<?xml version="1.0" encoding="UTF-8"?>
<svg xmlns="http://www.w3.org/2000/svg" xmlns:xlink="http://www.w3.org/1999/xlink" xmlns:svgjs="http://svgjs.com/svgjs" version="1.1" width="512" height="512" x="0" y="0" viewBox="0 0 512 512" style="enable-background:new 0 0 512 512" xml:space="preserve" class="">
  <g>
    <g xmlns="http://www.w3.org/2000/svg">
      <path d="m347 512h-272c-12.406 0-22.5-10.093-22.5-22.5v-305.266c0-4.142 3.357-7.5 7.5-7.5s7.5 3.358 7.5 7.5v305.266c0 4.136 3.364 7.5 7.5 7.5h272c4.136 0 7.5-3.364 7.5-7.5v-7.5h-127.5c-12.406 0-22.5-10.093-22.5-22.5v-17.5h-84.5c-4.143 0-7.5-3.358-7.5-7.5s3.357-7.5 7.5-7.5h84.5v-25h-84.5c-4.143 0-7.5-3.358-7.5-7.5s3.357-7.5 7.5-7.5h84.5v-25h-84.5c-4.143 0-7.5-3.358-7.5-7.5s3.357-7.5 7.5-7.5h84.5v-25h-84.5c-4.143 0-7.5-3.358-7.5-7.5s3.357-7.5 7.5-7.5h84.5v-25h-84.5c-4.143 0-7.5-3.358-7.5-7.5s3.357-7.5 7.5-7.5h84.5v-17.5c0-2.628.453-5.153 1.285-7.5h-85.785c-4.143 0-7.5-3.358-7.5-7.5s3.357-7.5 7.5-7.5h234.5v-144.5c0-4.136-3.364-7.5-7.5-7.5h-272c-4.136 0-7.5 3.364-7.5 7.5v66.734c0 4.142-3.357 7.5-7.5 7.5s-7.5-3.358-7.5-7.5v-66.734c0-12.407 10.094-22.5 22.5-22.5h7.5v-7.5c0-12.407 10.094-22.5 22.5-22.5h7.5v-7.5c0-12.407 10.094-22.5 22.5-22.5h272c12.406 0 22.5 10.093 22.5 22.5v182c0 4.142-3.357 7.5-7.5 7.5s-7.5-3.358-7.5-7.5v-182c0-4.136-3.364-7.5-7.5-7.5h-272c-4.136 0-7.5 3.364-7.5 7.5v7.5h249.5c11.199 0 22.5 8.503 22.5 27.5v169.5h37.5c12.406 0 22.5 10.093 22.5 22.5v210c0 12.407-10.094 22.5-22.5 22.5h-45c-4.143 0-7.5-3.358-7.5-7.5s3.357-7.5 7.5-7.5h45c4.136 0 7.5-3.364 7.5-7.5v-210c0-4.136-3.364-7.5-7.5-7.5h-210c-4.136 0-7.5 3.364-7.5 7.5v210c0 4.136 3.364 7.5 7.5 7.5h135c4.143 0 7.5 3.358 7.5 7.5v15c0 12.407-10.094 22.5-22.5 22.5zm22.5-285h15v-169.5c0-2.932-.541-12.5-7.5-12.5h-272c-4.136 0-7.5 3.364-7.5 7.5v7.5h249.5c12.406 0 22.5 10.093 22.5 22.5zm-37.5 210c-29.274 0-49.224-5.21-58.51-8.315-5.377-1.798-8.99-6.819-8.99-12.495v-63.379c0-5.676 3.613-10.697 8.991-12.496 3.23-1.08 7.752-2.416 13.509-3.697v-34.618c0-24.813 20.187-45 45-45s45 20.187 45 45v34.618c5.757 1.282 10.278 2.617 13.51 3.698 5.377 1.798 8.99 6.819 8.99 12.495v63.379c0 5.676-3.613 10.697-8.991 12.496-9.285 3.104-29.235 8.314-58.509 8.314zm-52.5-22.133c7.665 2.434 25.915 7.133 52.5 7.133s44.836-4.699 52.5-7.133v-60.733c-7.665-2.435-25.915-7.134-52.5-7.134s-44.836 4.699-52.5 7.133zm52.5-82.867c11.455 0 21.48.797 30 1.955v-31.955c0-16.542-13.458-30-30-30s-30 13.458-30 30v31.955c8.52-1.158 18.545-1.955 30-1.955zm-30-130h-182c-4.143 0-7.5-3.358-7.5-7.5s3.357-7.5 7.5-7.5h182c4.143 0 7.5 3.358 7.5 7.5s-3.357 7.5-7.5 7.5zm0-40h-182c-4.143 0-7.5-3.358-7.5-7.5s3.357-7.5 7.5-7.5h182c4.143 0 7.5 3.358 7.5 7.5s-3.357 7.5-7.5 7.5z" fill="#3a506b" data-original="#000000" style="" class=""/>
    </g>
  </g>
</svg>
