<?xml version="1.0" encoding="UTF-8"?>
<svg xmlns="http://www.w3.org/2000/svg" xmlns:xlink="http://www.w3.org/1999/xlink" xmlns:svgjs="http://svgjs.com/svgjs" version="1.1" width="512" height="512" x="0" y="0" viewBox="0 0 512 512" style="enable-background:new 0 0 512 512" xml:space="preserve" class="">
  <g>
    <g xmlns="http://www.w3.org/2000/svg">
      <g>
        <path d="m448.719 314.408c-23.815 0-44.216 14.841-52.479 35.755h-33.206c-1.95-4.374-6.331-7.434-11.419-7.434h-22.658c-17.791 0-34.44 7.012-46.882 19.745-12.32 12.61-19.135 29.387-19.189 47.243-.037 12.264-4.863 23.798-13.59 32.474-8.696 8.646-20.206 13.402-32.426 13.402-.049 0-.099 0-.147 0-25.293-.079-45.871-21.161-45.871-46.993v-157.897c60.254-12.769 105.083-65.376 107.568-127.427.135-3.376-1.133-6.711-3.477-9.151-.531-.553-1.116-1.044-1.733-1.486v-70.285c0-19.299-15.701-35.001-35.001-35.001h-28.373c-2.646-4.396-7.45-7.353-12.943-7.353-15.85 0-28.745 12.895-28.745 28.745v.782c0 15.85 12.895 28.745 28.745 28.745 5.494 0 10.297-2.957 12.942-7.353h19.809v60.346c-4.283 1.813-7.372 5.953-7.642 10.893-2.296 42.108-37.153 75.093-79.354 75.093-15.392 0-30.332-4.426-43.206-12.799-3.471-2.257-8.116-1.275-10.374 2.198-2.259 3.471-1.274 8.117 2.198 10.375 15.312 9.959 33.08 15.224 51.382 15.224 49.393 0 90.322-38.019 94.176-86.972h26.476c-3.453 55.96-45.608 102.758-101.154 111.803-3.629.591-6.294 3.725-6.294 7.401v164.12c0 34.077 27.284 61.886 60.822 61.991h.195c16.209 0 31.474-6.304 42.999-17.763 11.567-11.501 17.965-26.795 18.014-43.065.042-13.932 5.34-27.004 14.919-36.807 9.595-9.821 22.435-15.229 36.154-15.229h20.165v26.412h-19.387c-6.78 0-13.161 2.633-17.967 7.414-4.822 4.797-7.476 11.178-7.471 17.965.016 23.333-9.089 45.296-25.635 61.845-16.536 16.537-38.477 25.641-61.791 25.641h-.052c-48.179-.028-87.377-39.839-87.377-88.747v-163.779c0-3.676-2.665-6.81-6.294-7.401-55.545-9.045-97.701-55.842-101.153-111.803h26.477c1.292 16.311 6.821 32.026 16.062 45.583 2.332 3.422 6.998 4.307 10.419 1.974 3.422-2.333 4.306-6.997 1.973-10.419-8.133-11.935-12.847-25.854-13.632-40.254-.298-5.488-4.076-9.989-9.108-11.407v-59.834h19.809c2.645 4.396 7.448 7.353 12.942 7.353 15.85 0 28.745-12.895 28.745-28.745v-.782c0-15.849-12.895-28.744-28.745-28.744-5.494 0-10.297 2.957-12.942 7.353h-28.372c-19.299 0-35.001 15.701-35.001 35.001v71.52c-.088.086-.183.164-.269.252-2.344 2.44-3.611 5.775-3.475 9.149 2.483 62.051 47.311 114.658 107.567 127.427v157.553c0 57.172 45.921 103.712 102.366 103.744h.06c27.319 0 53.029-10.665 72.396-30.034 19.381-19.383 30.046-45.116 30.028-72.459-.002-2.763 1.082-5.364 3.051-7.323 1.976-1.966 4.601-3.049 7.389-3.049h21.881c5.175 0 9.625-3.161 11.524-7.653h33.102c8.262 20.913 28.663 35.755 52.479 35.755 8.815 0 17.261-1.979 25.103-5.88 3.708-1.845 5.218-6.346 3.374-10.054-1.845-3.707-6.346-5.218-10.054-3.374-5.748 2.86-11.947 4.31-18.423 4.31-22.837 0-41.417-18.579-41.417-41.417s18.58-41.417 41.417-41.417c22.838 0 41.418 18.58 41.418 41.417 0 5.51-1.062 10.857-3.158 15.894-1.591 3.824.22 8.213 4.043 9.803 3.825 1.59 8.213-.22 9.804-4.044 2.859-6.871 4.308-14.157 4.308-21.654 0-31.104-25.309-56.412-56.415-56.412zm-252.839-271.185c-7.108-.522-12.735-6.458-12.735-13.696v-.782c0-7.239 5.627-13.174 12.735-13.696zm62.33 67.054h-13.57v-65.262c0-5.014-4.079-9.094-9.094-9.094h-23.546v-13.57h26.207c11.03 0 20.003 8.974 20.003 20.003zm-170.263-95.228c7.108.521 12.735 6.457 12.735 13.696v.782c0 7.239-5.627 13.174-12.735 13.696zm-62.33 27.305c0-11.03 8.973-20.003 20.003-20.003h26.207v13.57h-23.546c-5.015 0-9.094 4.08-9.094 9.094v65.263h-13.57zm338.501 334.131v-11.325h28.471c-.187 1.863-.284 3.751-.284 5.663 0 1.911.098 3.8.284 5.662z" fill="#3a506b" data-original="#000000" style="" class=""/>
        <path d="m423.596 370.823c0 13.853 11.27 25.123 25.123 25.123s25.124-11.27 25.124-25.123-11.271-25.124-25.124-25.124c-13.854 0-25.123 11.27-25.123 25.124zm35.249 0c0 5.583-4.542 10.126-10.126 10.126-5.583 0-10.125-4.542-10.125-10.126s4.542-10.126 10.125-10.126c5.583-.001 10.126 4.542 10.126 10.126z" fill="#3a506b" data-original="#000000" style="" class=""/>
      </g>
    </g>
  </g>
</svg>
