<?xml version="1.0" encoding="UTF-8"?>
<svg xmlns="http://www.w3.org/2000/svg" xmlns:xlink="http://www.w3.org/1999/xlink" xmlns:svgjs="http://svgjs.com/svgjs" version="1.1" width="512" height="512" x="0" y="0" viewBox="0 0 512.001 512.001" style="enable-background:new 0 0 512 512" xml:space="preserve" class="">
  <g>
<g xmlns="http://www.w3.org/2000/svg">
	<g>
		<path d="M463.923,63.362h-0.139c-22.322,0-40.483,18.16-40.483,40.482v103.129c-2.244-0.412-4.539-0.631-6.869-0.631    c-10.053,0-19.505,3.915-26.671,11.082l-54.605,55.492c-10.257,10.423-15.906,24.218-15.906,38.842v190.243    c0,5.522,4.477,10,10,10h114.91c5.523,0,10-4.478,10-10v-72.918c0-0.953-0.142-1.871-0.391-2.744v-34.447    c0-4.047-2.409-7.525-5.868-9.099l35.894-27.564c12.905-9.911,20.61-25.542,20.61-41.814v-209.57    C504.405,81.522,486.245,63.362,463.923,63.362z M339.25,401.893h94.519v17.191H339.25V401.893z M339.25,492.002v-52.918h94.909    v52.918H339.25z M471.613,339.367l-55.375,42.525H339.25v-70.134c0-9.343,3.609-18.155,10.162-24.814l54.548-55.435    c3.331-3.332,7.761-5.167,12.472-5.167c4.013,0,7.814,1.342,10.914,3.796c0.169,0.133,0.328,0.265,0.485,0.397    c0.367,0.312,0.729,0.63,1.073,0.974l0.089,0.089c3.331,3.331,5.166,7.761,5.166,12.472c0,1.178-0.115,2.338-0.339,3.468    c-0.672,3.389-2.329,6.506-4.828,9.004l-36.242,36.242c-3.905,3.905-3.906,10.237,0,14.143c3.418,3.416,8.693,3.844,12.574,1.281    c0.555-0.366,1.081-0.793,1.569-1.281l36.242-36.242c7.109-7.108,11.024-16.56,11.024-26.614c0-0.626-0.015-1.251-0.046-1.872    c-0.009-0.191-0.029-0.38-0.042-0.57c-0.027-0.43-0.053-0.86-0.094-1.287c-0.02-0.201-0.05-0.399-0.073-0.6    c-0.047-0.414-0.091-0.828-0.152-1.238c-0.028-0.189-0.066-0.376-0.097-0.565c-0.068-0.419-0.135-0.839-0.217-1.254    c-0.031-0.156-0.071-0.309-0.103-0.465c-0.094-0.446-0.189-0.892-0.299-1.333c-0.027-0.11-0.062-0.219-0.09-0.329    c-0.125-0.484-0.255-0.967-0.399-1.444c-0.02-0.066-0.044-0.131-0.065-0.197c-0.16-0.519-0.328-1.035-0.51-1.546    c-0.012-0.032-0.025-0.064-0.037-0.096c-1.231-3.417-2.958-6.641-5.142-9.582c-0.008-0.011-0.017-0.021-0.025-0.032    c-0.356-0.478-0.722-0.948-1.102-1.41c-0.064-0.078-0.133-0.154-0.198-0.232c-0.324-0.388-0.652-0.774-0.993-1.151    c-0.16-0.177-0.329-0.348-0.493-0.522c-0.227-0.242-0.448-0.487-0.682-0.723V103.845c0-11.294,9.189-20.482,20.483-20.482h0.139    c11.294,0,20.482,9.188,20.482,20.482v209.57h0.001C484.405,323.515,479.623,333.216,471.613,339.367z" fill="#3a506b" data-original="#000000" style="" class=""/>
	</g>
</g>
<g xmlns="http://www.w3.org/2000/svg">
	<g>
		<path d="M386.591,320.932c-0.13-0.64-0.32-1.27-0.57-1.87c-0.25-0.6-0.56-1.18-0.92-1.729c-0.36-0.54-0.78-1.061-1.24-1.521    c-0.46-0.46-0.97-0.87-1.52-1.24c-0.54-0.359-1.12-0.67-1.73-0.92c-0.6-0.25-1.23-0.439-1.87-0.569c-1.29-0.261-2.61-0.261-3.9,0    c-0.64,0.13-1.27,0.319-1.88,0.569c-0.6,0.25-1.18,0.561-1.72,0.92c-0.55,0.37-1.06,0.78-1.52,1.24    c-0.46,0.46-0.88,0.98-1.25,1.521c-0.36,0.55-0.66,1.13-0.91,1.729c-0.25,0.601-0.45,1.23-0.58,1.87    c-0.13,0.65-0.19,1.3-0.19,1.96c0,0.65,0.06,1.3,0.19,1.95c0.13,0.64,0.33,1.27,0.58,1.87c0.25,0.6,0.55,1.18,0.91,1.729    c0.37,0.54,0.79,1.061,1.25,1.521c0.46,0.46,0.97,0.88,1.52,1.24c0.54,0.359,1.12,0.67,1.72,0.92c0.61,0.25,1.24,0.44,1.88,0.569    c0.64,0.13,1.3,0.19,1.95,0.19s1.31-0.061,1.95-0.19c0.64-0.13,1.27-0.319,1.87-0.569c0.61-0.25,1.19-0.56,1.73-0.92    c0.55-0.36,1.06-0.78,1.52-1.24c0.46-0.46,0.88-0.98,1.24-1.521c0.36-0.55,0.67-1.13,0.92-1.729c0.25-0.601,0.44-1.23,0.57-1.87    c0.13-0.65,0.2-1.3,0.2-1.95C386.791,322.232,386.721,321.583,386.591,320.932z" fill="#3a506b" data-original="#000000" style="" class=""/>
	</g>
</g>
<g xmlns="http://www.w3.org/2000/svg">
	<g>
		<path d="M145.021,320.932c-0.13-0.64-0.32-1.27-0.57-1.87c-0.25-0.6-0.56-1.18-0.92-1.729c-0.37-0.54-0.79-1.061-1.25-1.521    c-0.46-0.46-0.97-0.87-1.52-1.24c-0.54-0.359-1.12-0.67-1.72-0.92c-0.61-0.25-1.24-0.439-1.88-0.569c-1.29-0.261-2.61-0.261-3.9,0    c-0.64,0.13-1.27,0.319-1.87,0.569c-0.61,0.25-1.19,0.561-1.73,0.92c-0.55,0.37-1.06,0.78-1.52,1.24    c-0.46,0.46-0.88,0.98-1.24,1.521c-0.36,0.55-0.67,1.13-0.92,1.729c-0.25,0.601-0.44,1.23-0.57,1.87c-0.13,0.65-0.2,1.3-0.2,1.96    c0,0.65,0.07,1.3,0.2,1.95c0.13,0.639,0.32,1.269,0.57,1.87c0.25,0.6,0.56,1.18,0.92,1.729c0.36,0.54,0.78,1.061,1.24,1.521    c0.46,0.46,0.97,0.88,1.52,1.24c0.54,0.359,1.12,0.67,1.73,0.92c0.6,0.25,1.23,0.44,1.87,0.569c0.64,0.13,1.3,0.19,1.95,0.19    c0.65,0,1.31-0.061,1.95-0.19c0.64-0.13,1.27-0.319,1.88-0.569c0.6-0.25,1.18-0.56,1.72-0.92c0.55-0.36,1.06-0.78,1.52-1.24    c0.46-0.46,0.88-0.98,1.25-1.521c0.36-0.55,0.67-1.13,0.92-1.729c0.25-0.601,0.44-1.23,0.57-1.87c0.13-0.65,0.19-1.3,0.19-1.95    C145.211,322.232,145.151,321.583,145.021,320.932z" fill="#3a506b" data-original="#000000" style="" class=""/>
	</g>
</g>
<g xmlns="http://www.w3.org/2000/svg">
	<g>
		<path d="M391.747,136.139c1.916-6.292,2.406-12.742,1.454-19.251c-3.454-23.619-23.873-41.101-47.51-40.738    c-14.651,0.245-28.463,7.407-37.161,19.189c-12.728-58.088-46.832-84.549-119.244-95.23c-5.017-0.746-9.798,2.395-11.116,7.295    c-0.28,1.041-5.826,22.058-4.114,44.917c-15.105-0.261-31.277,1.633-48.426,5.688c-5.158,1.22-8.468,6.251-7.547,11.47    c0.376,2.13,8.64,47.124,37.245,68.333c-0.927,2.315-1.467,4.811-1.562,7.396c-0.302,8.218,3.949,15.85,11.093,19.919    c2.868,1.634,5.781,3.201,8.723,4.694c-14.424,14.616-43.208,9.773-43.519,9.717c-4.376-0.793-8.745,1.395-10.73,5.372    c-1.986,3.976-1.109,8.785,2.152,11.805l17.162,15.894l-1.48,19.986l-14.984-15.227c-7.109-7.109-16.561-11.024-26.614-11.024    c-2.33,0-4.626,0.219-6.869,0.631v-103.13c0-22.322-18.16-40.482-40.482-40.482h-0.139c-22.322,0-40.482,18.16-40.482,40.482    v209.57c0,16.272,7.705,31.903,20.61,41.814l35.894,27.564c-3.459,1.574-5.868,5.051-5.868,9.099v34.449    c-0.249,0.873-0.39,1.79-0.39,2.742v72.918c0,5.522,4.477,10,10,10h114.909c5.523,0,10-4.478,10-10V311.759    c0-14.624-5.648-28.419-15.905-38.842l-22.499-22.864c11.138-8.372,36.343-22.9,59.789-5.23    c14.64,11.032,30.165,16.471,47.173,16.47c3.912,0,7.905-0.287,11.981-0.861c46.457-6.537,74.926-35.806,84.617-86.991    c2.679-14.154,22.419-15.357,23.211-15.398c0.525-0.023,1.047-0.087,1.561-0.191c4.961-1.008,9.043-4.616,10.65-9.417    C394.718,144.291,394.1,139.746,391.747,136.139z M195.672,21.395c61.731,10.857,86.877,34.635,95.49,89.857    c-1.367,0.755-2.765,1.435-4.188,2.045c-0.087,0.037-0.173,0.075-0.26,0.111c-0.593,0.25-1.191,0.483-1.793,0.708    c-0.146,0.054-0.29,0.112-0.437,0.165c-0.709,0.257-1.423,0.498-2.143,0.719l-1.728,0.53c-1.146,0.352-2.242,0.446-3.01,0.44    c-0.039,0-0.086,0.003-0.123,0.002c-0.657-1.418-1.347-2.807-2.051-4.182c-0.162-0.317-0.326-0.632-0.491-0.947    c-1.445-2.761-2.984-5.434-4.614-8.016c-0.157-0.248-0.315-0.494-0.473-0.74c-1.663-2.587-3.417-5.083-5.262-7.484    c-0.187-0.244-0.377-0.485-0.566-0.727c-0.854-1.092-1.723-2.167-2.615-3.219c-0.086-0.102-0.17-0.207-0.256-0.309    c-0.924-1.082-1.873-2.136-2.836-3.175c-0.312-0.336-0.627-0.668-0.943-1c-0.72-0.756-1.451-1.5-2.192-2.232    c-0.399-0.395-0.797-0.791-1.202-1.179c-0.8-0.765-1.612-1.517-2.435-2.255c-0.549-0.493-1.106-0.977-1.666-1.458    c-0.426-0.366-0.858-0.726-1.29-1.086c-2.247-1.871-4.574-3.645-6.979-5.322c-0.02-0.014-0.04-0.027-0.06-0.041    c-6.179-4.302-12.85-7.977-20-10.934c-8.548-3.535-17.642-6.066-27.249-7.601C192.912,41.789,194.316,29.394,195.672,21.395z     M172.752,492.002L172.752,492.002H77.843v-52.918h94.909V492.002z M78.233,419.084v-17.191h94.518v17.191H78.233z     M162.588,286.946c6.555,6.658,10.163,15.47,10.163,24.813v70.134h-37.106H95.764l-55.376-42.525    c-8.01-6.151-12.792-15.854-12.792-25.952v-209.57c0-11.294,9.188-20.482,20.482-20.482h0.139    c11.294,0,20.482,9.188,20.482,20.482v113.778c-0.197,0.2-0.383,0.408-0.575,0.611c-0.21,0.222-0.424,0.441-0.628,0.667    c-0.208,0.23-0.405,0.468-0.607,0.703c-0.202,0.236-0.409,0.468-0.605,0.708c-0.193,0.237-0.376,0.48-0.564,0.721    c-0.191,0.245-0.386,0.488-0.57,0.738c-0.18,0.243-0.348,0.493-0.522,0.74c-0.179,0.255-0.363,0.508-0.535,0.767    c-0.165,0.248-0.319,0.501-0.477,0.752c-0.168,0.266-0.34,0.529-0.501,0.798c-0.152,0.255-0.293,0.515-0.438,0.773    c-0.154,0.272-0.313,0.542-0.459,0.818c-0.14,0.263-0.268,0.532-0.402,0.798c-0.139,0.277-0.283,0.552-0.415,0.832    c-0.128,0.272-0.244,0.549-0.366,0.824c-0.124,0.281-0.253,0.559-0.37,0.843c-0.116,0.281-0.219,0.568-0.328,0.852    c-0.109,0.283-0.223,0.563-0.325,0.849c-0.104,0.292-0.195,0.589-0.292,0.883c-0.093,0.283-0.192,0.564-0.278,0.849    c-0.092,0.307-0.171,0.617-0.256,0.926c-0.076,0.279-0.159,0.555-0.229,0.835c-0.08,0.32-0.145,0.645-0.217,0.967    c-0.061,0.274-0.128,0.546-0.182,0.822c-0.067,0.337-0.118,0.678-0.176,1.017c-0.045,0.265-0.097,0.529-0.137,0.796    c-0.053,0.363-0.091,0.729-0.134,1.095c-0.029,0.247-0.066,0.492-0.09,0.74c-0.041,0.418-0.065,0.838-0.092,1.259    c-0.013,0.199-0.034,0.395-0.043,0.595c-0.03,0.621-0.045,1.245-0.045,1.871c0,10.054,3.915,19.506,11.024,26.614l36.243,36.242    c3.905,3.904,10.237,3.904,14.142,0c3.905-3.905,3.905-10.237-0.001-14.143l-36.243-36.242c-3.331-3.331-5.166-7.761-5.166-12.472    c0-4.708,1.833-9.135,5.179-12.484l0.077-0.076c0.341-0.341,0.701-0.656,1.065-0.966c0.163-0.137,0.328-0.275,0.502-0.412    c3.098-2.449,6.896-3.789,10.905-3.789c4.711,0,9.14,1.835,12.415,5.109L162.588,286.946z M371.243,133.895    c-0.819,1.775-1.083,3.707-0.825,5.564c-13.055,3.079-28.628,11.6-32.161,30.259c-8.033,42.429-30.196,65.624-67.754,70.909    c-16.502,2.326-30.587-1.419-44.33-11.776c-12.158-9.162-24.481-12.455-35.924-12.455c-12.258,0-23.504,3.783-32.434,8.183    l1.133-15.296c0.225-3.035-0.945-6.008-3.178-8.075l-1.789-1.657c15.953-2.179,34.58-9.396,43.408-29.929    c2.173-5.053-0.143-10.911-5.182-13.113c-5.901-2.579-11.772-5.526-17.45-8.76c-0.696-0.396-1.034-1.004-1.004-1.806    c0.03-0.809,0.415-1.396,1.146-1.743c3.547-1.688,5.778-5.298,5.701-9.226c-0.077-3.929-2.447-7.447-6.059-8.995    c-20.18-8.648-30.369-35.99-34.486-50.585c53.731-10.003,95.212,5.22,115.984,42.514c0.032,0.058,0.063,0.118,0.096,0.176    c0.586,1.057,1.15,2.137,1.703,3.23c0.136,0.27,0.273,0.538,0.407,0.81c0.583,1.178,1.152,2.371,1.695,3.59    c0.258,0.577,0.547,1.118,0.852,1.641c0.085,0.146,0.173,0.287,0.261,0.428c0.255,0.409,0.523,0.802,0.806,1.177    c0.075,0.1,0.145,0.204,0.222,0.302c0.356,0.45,0.731,0.875,1.124,1.275c0.092,0.094,0.19,0.181,0.284,0.272    c0.323,0.313,0.657,0.611,1.002,0.894c0.118,0.096,0.234,0.194,0.354,0.286c0.439,0.339,0.889,0.662,1.357,0.954    c0.03,0.019,0.062,0.034,0.092,0.053c0.444,0.274,0.903,0.522,1.371,0.755c0.14,0.07,0.281,0.137,0.423,0.203    c0.413,0.193,0.833,0.371,1.26,0.535c0.102,0.039,0.202,0.083,0.305,0.12c0.521,0.189,1.051,0.355,1.589,0.503    c0.134,0.037,0.27,0.068,0.406,0.102c0.431,0.109,0.865,0.206,1.304,0.29c0.151,0.029,0.301,0.059,0.452,0.085    c0.556,0.095,1.116,0.176,1.681,0.233c0.067,0.007,0.134,0.009,0.201,0.015c0.508,0.047,1.018,0.078,1.53,0.096    c0.165,0.006,0.33,0.01,0.495,0.012c0.156,0.003,0.311,0.012,0.468,0.012c0.168,0,0.336-0.017,0.505-0.02    c0.435-0.008,0.869-0.024,1.304-0.051c0.277-0.017,0.553-0.038,0.829-0.063c0.439-0.04,0.875-0.093,1.311-0.152    c0.263-0.036,0.526-0.069,0.788-0.112c0.471-0.077,0.936-0.17,1.401-0.268c0.218-0.046,0.438-0.085,0.654-0.135    c0.675-0.158,1.343-0.334,1.996-0.534l1.637-0.502c0.892-0.273,1.778-0.567,2.657-0.878c0.025-0.009,0.049-0.019,0.073-0.028    c5.97-2.121,11.64-5.103,16.888-8.892c0.085-0.061,0.157-0.135,0.239-0.199c6.182-4.507,11.693-10.071,16.224-16.476    c4.993-7.059,13.12-11.358,21.741-11.502c0.149-0.003,0.298-0.004,0.447-0.004c13.419,0,24.958,10.088,26.94,23.638    C374.116,124.589,373.406,129.207,371.243,133.895z" fill="#3a506b" data-original="#000000" style="" class=""/>
	</g>
</g>















</g>
</svg>
