<?xml version="1.0" encoding="UTF-8"?>
<svg xmlns="http://www.w3.org/2000/svg" xmlns:xlink="http://www.w3.org/1999/xlink" xmlns:svgjs="http://svgjs.com/svgjs" version="1.1" width="512" height="512" x="0" y="0" viewBox="0 0 512.002 512.002" style="enable-background:new 0 0 512 512" xml:space="preserve" class="">
  <g>
<g xmlns="http://www.w3.org/2000/svg">
	<g>
		<path d="M511.918,195.058c-0.061-1.785-0.162-3.565-0.29-5.342c-0.68-9.505-2.304-18.895-4.865-28.024    c-8.067-28.786-24.776-53.876-48.322-72.558c-23.919-18.979-52.701-29.523-83.229-30.49c-1.576-0.05-3.112-0.076-4.563-0.076    c-32.177,0-63.666,11.103-88.667,31.262c-1.539,1.241-3.05,2.513-4.533,3.815c-20.752,18.23-35.847,42.313-43.132,68.816    c-0.521,1.894-1.002,3.799-1.442,5.717c-2.374,10.355-3.578,21.035-3.578,31.743c0,38.719,15.35,74.852,43.223,101.742    c26.485,25.543,61.335,39.61,98.129,39.61c77.942,0,141.353-63.41,141.353-141.352C512,198.297,511.972,196.676,511.918,195.058z     M348.97,103.673v-1.252c0-1.521,1.236-2.757,2.757-2.757c0.272,0,0.544-0.011,0.815-0.033l37.597-3.075    c5.346-0.438,9.396-5.015,9.176-10.375c-0.067-1.645-0.532-3.182-1.295-4.525c38.447,8.776,70.275,35.724,85.149,72.734h-5.772    c-4.392,0-8.183,2.516-9.893,6.565c-0.018,0.04-0.034,0.081-0.051,0.122c-1.651,4.059-0.761,8.511,2.364,11.662l2.023,2.016    c1.847,1.847,2.823,4.206,2.823,6.822c0,2.579-1.003,5.002-2.816,6.816c-1.774,1.771-4.139,2.747-6.656,2.747    c-2.521,0-4.882-0.973-6.649-2.74l-4.911-4.911c-6.228-6.228-14.097-10.185-22.757-11.442c-4.264-0.618-8.443,1.562-10.375,5.414    c-1.932,3.851-1.18,8.506,1.866,11.553l1.368,1.369c4.136,4.135,6.413,9.634,6.413,15.483v7.056    c0,5.595,4.284,10.209,9.744,10.733l-6.144,6.184c-5.28,5.303-9.915,11.253-13.771,17.676l-6.029,10.023    c-0.03,0.048-0.061,0.096-0.09,0.145l-7.636,12.622c-2.619,4.322-4.003,9.278-4.003,14.331v0.379c0,1.566-1.275,2.84-2.847,2.84    c-2.104,0-4.004-0.786-5.487-2.266c-1.49-1.49-2.277-3.389-2.277-5.493c0-7.13-2.775-13.832-7.815-18.873l-2.835-2.833    c-4.712-4.708-7.308-10.979-7.308-17.656v-18.15c0-7.843-6.378-14.225-14.218-14.225h-2.157c-6.42,0-11.643-5.223-11.643-11.643    v-9.451c0-6.845,5.568-12.413,12.413-12.413h50.682c5.522,0,10-4.477,10-10v-0.501c0-11.245-4.381-21.819-12.335-29.773    c-1.43-1.429-3.258-2.392-5.245-2.761l-40.313-7.486c-3.232-0.6-6.547,0.425-8.876,2.739c-2.938,2.92-4.556,6.816-4.556,10.971    c0,2.883-2.349,5.228-5.234,5.228h-6.209c-0.794,0-1.44-0.646-1.44-1.441v-8.359c0-5.949,2.315-11.542,6.508-15.74l3.638-3.631    C347.44,111.303,348.97,107.6,348.97,103.673z M360.969,154.854v-0.001c2.35-2.625,4.161-5.744,5.254-9.178l27.909,5.183    c0.967,1.25,1.79,2.588,2.461,3.996H360.969z M276.8,276.874c-17.822-21.627-27.504-48.472-27.504-76.953    c0-6.44,0.517-12.861,1.518-19.182c5.314,0.845,10.218,3.329,14.098,7.206l5.421,5.426c4.2,4.188,9.779,6.495,15.709,6.495    c4.098,0,7.952,1.598,10.868,4.514l0.099,0.097c4.895,4.9,7.59,11.408,7.59,18.325v11.017c0,9.012-3.512,17.489-9.886,23.868    l-11.794,11.794C280.644,271.756,278.599,274.237,276.8,276.874z M370.647,321.272c-0.955,0-1.908-0.012-2.86-0.034    c-0.312-0.007-0.622-0.022-0.933-0.031c-0.638-0.02-1.277-0.039-1.913-0.069c-0.375-0.017-0.749-0.042-1.123-0.063    c-0.573-0.032-1.146-0.063-1.718-0.103c-0.396-0.028-0.79-0.061-1.186-0.093c-0.549-0.043-1.097-0.087-1.645-0.138    c-0.406-0.038-0.81-0.08-1.214-0.122c-0.534-0.055-1.069-0.111-1.602-0.173c-0.412-0.048-0.823-0.1-1.234-0.152    c-0.523-0.066-1.047-0.135-1.569-0.208c-0.413-0.058-0.826-0.119-1.239-0.181c-0.521-0.078-1.04-0.16-1.559-0.245    c-0.409-0.067-0.817-0.135-1.224-0.206c-0.521-0.091-1.04-0.186-1.559-0.283c-0.404-0.076-0.808-0.152-1.211-0.232    c-0.522-0.104-1.042-0.212-1.562-0.323c-0.396-0.084-0.791-0.167-1.186-0.255c-0.53-0.118-1.058-0.242-1.586-0.367    c-0.382-0.09-0.764-0.179-1.145-0.273c-0.546-0.135-1.089-0.277-1.633-0.42c-0.359-0.094-0.719-0.185-1.077-0.283    c-0.583-0.159-1.164-0.326-1.745-0.494c-0.315-0.091-0.631-0.177-0.946-0.271c-0.712-0.211-1.42-0.433-2.128-0.657    c-0.18-0.057-0.361-0.11-0.54-0.168c-0.89-0.287-1.776-0.584-2.658-0.892c-0.2-0.07-0.398-0.145-0.597-0.215    c-0.677-0.24-1.354-0.482-2.026-0.734c-0.312-0.117-0.621-0.24-0.932-0.36c-0.557-0.214-1.115-0.428-1.669-0.651    c-0.346-0.139-0.689-0.284-1.033-0.426c-0.516-0.213-1.032-0.425-1.545-0.645c-0.36-0.154-0.718-0.314-1.076-0.472    c-0.494-0.217-0.987-0.435-1.478-0.659c-0.366-0.167-0.731-0.339-1.096-0.51c-0.479-0.224-0.958-0.451-1.434-0.682    c-0.367-0.178-0.732-0.359-1.097-0.54c-0.471-0.234-0.941-0.471-1.409-0.712c-0.365-0.188-0.73-0.377-1.093-0.569    c-0.463-0.244-0.925-0.492-1.385-0.742c-0.361-0.196-0.722-0.394-1.081-0.594c-0.461-0.257-0.92-0.518-1.378-0.781    c-0.353-0.203-0.707-0.406-1.058-0.613c-0.46-0.27-0.917-0.546-1.374-0.823c-0.344-0.208-0.688-0.415-1.03-0.627    c-0.464-0.288-0.925-0.582-1.385-0.876c-0.329-0.21-0.66-0.418-0.988-0.632c-0.478-0.312-0.952-0.632-1.427-0.951    c-0.303-0.204-0.609-0.405-0.91-0.612c-0.529-0.363-1.053-0.735-1.578-1.107c-0.242-0.171-0.486-0.339-0.727-0.512    c-0.762-0.549-1.52-1.107-2.271-1.675c-0.062-0.047-0.123-0.096-0.185-0.143c-0.687-0.522-1.37-1.051-2.048-1.588    c-0.255-0.202-0.506-0.411-0.76-0.616c-0.481-0.388-0.963-0.776-1.439-1.172c-0.293-0.243-0.581-0.493-0.872-0.739    c-0.348-0.295-0.696-0.591-1.042-0.891c1.491-2.952,3.458-5.677,5.832-8.05l11.797-11.797c10.15-10.158,15.74-23.656,15.74-38.007    v-11.017c0-12.255-4.773-23.783-13.459-32.478l-0.102-0.101c-6.679-6.679-15.556-10.357-24.996-10.357    c-0.616,0-1.15-0.221-1.573-0.643l-5.413-5.419c-6.515-6.508-14.641-10.812-23.476-12.538c0.416-1.25,0.833-2.5,1.286-3.729    c0.007-0.02,0.015-0.039,0.022-0.058c0.534-1.446,1.102-2.874,1.687-4.29c0.18-0.435,0.366-0.865,0.551-1.297    c0.444-1.041,0.902-2.074,1.373-3.098c0.199-0.432,0.396-0.866,0.599-1.295c0.615-1.297,1.248-2.583,1.906-3.852    c0.049-0.095,0.095-0.193,0.145-0.288c0.707-1.355,1.445-2.689,2.2-4.011c0.227-0.398,0.462-0.791,0.693-1.186    c0.562-0.959,1.137-1.909,1.724-2.85c0.254-0.407,0.507-0.814,0.765-1.217c0.721-1.125,1.458-2.237,2.214-3.335    c0.107-0.155,0.208-0.314,0.315-0.468c0.861-1.237,1.748-2.453,2.653-3.654c0.267-0.354,0.541-0.703,0.811-1.054    c0.674-0.875,1.359-1.742,2.057-2.597c0.302-0.371,0.605-0.742,0.911-1.109c0.817-0.978,1.648-1.942,2.494-2.892    c0.16-0.179,0.314-0.363,0.474-0.541c1.003-1.113,2.029-2.202,3.072-3.275c0.293-0.302,0.593-0.597,0.889-0.895    c0.786-0.792,1.582-1.574,2.388-2.343c0.343-0.326,0.685-0.653,1.031-0.975c0.904-0.842,1.821-1.669,2.75-2.482    c0.208-0.182,0.411-0.37,0.621-0.551c1.133-0.978,2.286-1.932,3.454-2.867c0.308-0.247,0.623-0.486,0.934-0.73    c0.893-0.7,1.795-1.388,2.707-2.063c0.378-0.279,0.756-0.557,1.137-0.832c0.981-0.708,1.973-1.4,2.976-2.078    c0.254-0.172,0.503-0.35,0.759-0.519c1.249-0.831,2.516-1.638,3.797-2.424c0.315-0.193,0.636-0.378,0.953-0.568    c0.994-0.597,1.996-1.18,3.008-1.748c0.409-0.229,0.818-0.457,1.229-0.681c1.047-0.572,2.105-1.128,3.17-1.67    c0.296-0.151,0.588-0.307,0.886-0.455c1.353-0.674,2.72-1.322,4.101-1.946c0.31-0.14,0.625-0.271,0.936-0.409    c1.092-0.482,2.193-0.95,3.301-1.401c0.434-0.176,0.869-0.35,1.306-0.522c1.1-0.432,2.208-0.848,3.323-1.248    c0.341-0.123,0.679-0.252,1.022-0.371c1.439-0.503,2.889-0.98,4.352-1.43c0.305-0.094,0.614-0.178,0.921-0.27    c1.176-0.351,2.359-0.686,3.549-1.003c0.461-0.122,0.923-0.241,1.385-0.358c0.393-0.099,0.791-0.186,1.185-0.281    c-7.216,3.602-12.265,10.923-12.611,19.439l-2.103,2.099c-7.976,7.985-12.368,18.599-12.368,29.885v8.359    c0,11.823,9.618,21.441,21.44,21.441h0.317c-6.534,5.934-10.645,14.494-10.645,23.996v9.451c0,16.222,12.271,29.632,28.018,31.436    v12.581c0,12.024,4.678,23.319,13.17,31.803l2.831,2.83c1.28,1.28,1.957,2.916,1.957,4.73c0,7.417,2.89,14.39,8.143,19.642    c5.244,5.234,12.212,8.116,19.629,8.116c12.594,0,22.84-10.246,22.84-22.84v-0.379c0-1.398,0.383-2.771,1.112-3.973l7.553-12.485    c0.038-0.061,0.076-0.122,0.113-0.184l6.123-10.178c3.027-5.044,6.661-9.709,10.808-13.874l6.866-6.91    c5.576-5.617,7.22-13.969,4.18-21.297c-1.061-2.544-2.61-4.773-4.514-6.601c3.372,1.317,6.998,2.006,10.732,2.006    c7.853,0,15.235-3.051,20.792-8.598c2.456-2.456,4.427-5.269,5.867-8.321c0.016,0.34,0.039,0.679,0.052,1.019    c0.012,0.32,0.024,0.641,0.033,0.961c0.037,1.238,0.063,2.478,0.063,3.72C492,266.832,437.561,321.272,370.647,321.272z" fill="#3a506b" data-original="#000000" style=""/>
	</g>
</g>
<g xmlns="http://www.w3.org/2000/svg">
	<g>
		<path d="M408.088,372.33H305.11c-0.043,0-0.075-0.038-0.067-0.08c0.402-2.218,0.617-4.487,0.617-6.789    c0-10.053-3.915-19.505-11.082-26.671l-55.492-54.605c-10.424-10.257-24.218-15.906-38.842-15.906H120.11H82.918H10.069    C4.508,268.279,0,272.787,0,278.348v114.771c0,5.561,4.508,10.069,10.069,10.069h72.849c0.95,0,1.866-0.141,2.736-0.388    c0.006-0.001,0.011-0.002,0.017-0.002h34.439c4.008,0,7.458-2.363,9.052-5.768c0.022-0.046,0.082-0.053,0.113-0.013l27.497,35.807    c9.911,12.905,25.543,20.61,41.814,20.61h209.501c22.396,0,40.552-18.156,40.552-40.552    C448.64,390.486,430.484,372.33,408.088,372.33z M72.917,383.118c0,0.038-0.031,0.069-0.069,0.069H20.069    c-0.038,0-0.069-0.031-0.069-0.069v-94.771c0-0.038,0.031-0.069,0.069-0.069h52.779c0.038,0,0.069,0.031,0.069,0.069V383.118z     M110.109,382.728c0,0.038-0.031,0.069-0.069,0.069H92.987c-0.038,0-0.069-0.031-0.069-0.069v-94.38    c0-0.038,0.031-0.069,0.069-0.069h17.053c0.038,0,0.069,0.031,0.069,0.069V382.728z M408.088,433.434H198.587    c-10.099,0-19.801-4.782-25.952-12.792l-42.511-55.357c-0.009-0.012-0.014-0.027-0.014-0.042v-76.895    c0-0.038,0.031-0.069,0.069-0.069h70.036c9.303,0,18.232,3.657,24.863,10.182l55.414,54.529c3.332,3.331,5.167,7.761,5.167,12.472    c0,4.01-1.341,7.809-3.791,10.907c-0.135,0.172-0.269,0.333-0.403,0.492c-0.311,0.366-0.629,0.729-0.973,1.073l-0.076,0.076    c-2.217,2.23-4.974,3.891-8.029,4.637c-2.698,0.658-5.387,0.707-7.924,0.204c-3.389-0.672-6.506-2.329-9.004-4.828l-36.242-36.242    c-3.906-3.905-10.236-3.905-14.143,0c-1.953,1.953-2.929,4.512-2.929,7.071c0,1.599,0.381,3.199,1.144,4.651    c0.458,0.871,1.053,1.688,1.785,2.421l36.242,36.242c7.108,7.109,16.561,11.024,26.614,11.024c0.626,0,1.251-0.015,1.872-0.046    c0.191-0.009,0.379-0.029,0.57-0.042c0.43-0.027,0.86-0.053,1.287-0.094c0.201-0.02,0.399-0.05,0.6-0.073    c0.414-0.047,0.828-0.092,1.238-0.152c0.184-0.027,0.366-0.064,0.549-0.094c0.425-0.069,0.85-0.137,1.271-0.22    c0.14-0.028,0.277-0.063,0.417-0.093c0.462-0.097,0.925-0.195,1.382-0.309c0.09-0.022,0.178-0.05,0.267-0.073    c0.505-0.13,1.008-0.265,1.505-0.416c0.047-0.014,0.093-0.031,0.141-0.046c0.539-0.165,1.075-0.34,1.605-0.53    c0.004-0.002,0.009-0.003,0.013-0.005c4.018-1.437,7.77-3.56,11.11-6.304c0.056-0.046,0.109-0.095,0.164-0.141    c0.412-0.342,0.819-0.69,1.217-1.051c0.157-0.141,0.307-0.291,0.462-0.435c0.253-0.237,0.51-0.47,0.758-0.715    c0.013-0.012,0.03-0.02,0.048-0.02h113.681c11.351-0.001,20.553,9.2,20.553,20.551    C428.64,424.233,419.439,433.434,408.088,433.434z" fill="#3a506b" data-original="#000000" style=""/>
	</g>
</g>
<g xmlns="http://www.w3.org/2000/svg">
	<g>
		<path d="M198.92,323.861c-0.13-0.63-0.32-1.26-0.57-1.87c-0.25-0.6-0.56-1.18-0.92-1.72c-0.37-0.55-0.78-1.06-1.24-1.52    c-0.47-0.46-0.979-0.88-1.529-1.25c-0.54-0.36-1.12-0.67-1.721-0.92c-0.6-0.25-1.229-0.441-1.87-0.57    c-1.289-0.26-2.619-0.26-3.909,0c-0.641,0.13-1.271,0.32-1.87,0.57c-0.6,0.25-1.181,0.559-1.73,0.92    c-0.54,0.37-1.06,0.79-1.52,1.25c-0.46,0.46-0.88,0.97-1.24,1.52c-0.36,0.54-0.67,1.12-0.92,1.72c-0.25,0.61-0.44,1.24-0.57,1.87    c-0.13,0.65-0.2,1.31-0.2,1.96c0,0.65,0.07,1.31,0.2,1.95s0.32,1.27,0.57,1.87c0.25,0.61,0.56,1.191,0.92,1.73    c0.36,0.55,0.78,1.06,1.24,1.52c0.46,0.46,0.98,0.88,1.52,1.24c0.55,0.36,1.13,0.67,1.73,0.92c0.6,0.25,1.23,0.44,1.87,0.57    s1.3,0.2,1.949,0.2c0.66,0,1.311-0.07,1.96-0.2c0.641-0.13,1.27-0.32,1.87-0.57c0.6-0.25,1.181-0.56,1.721-0.92    c0.55-0.36,1.059-0.78,1.529-1.24c0.46-0.46,0.87-0.97,1.24-1.52c0.36-0.539,0.67-1.12,0.92-1.73c0.25-0.6,0.44-1.23,0.57-1.87    s0.189-1.3,0.189-1.95S199.049,324.51,198.92,323.861z" fill="#3a506b" data-original="#000000" style=""/>
	</g>
</g>















</g>
</svg>
