<?xml version="1.0" encoding="UTF-8"?>
<svg xmlns="http://www.w3.org/2000/svg" xmlns:xlink="http://www.w3.org/1999/xlink" xmlns:svgjs="http://svgjs.com/svgjs" version="1.1" width="512" height="512" x="0" y="0" viewBox="0 0 511.999 511.999" style="enable-background:new 0 0 512 512" xml:space="preserve" class="">
  <g>
<g xmlns="http://www.w3.org/2000/svg">
	<g>
		<path d="M269.22,285.28c-0.46-0.46-0.97-0.88-1.52-1.25c-0.54-0.36-1.12-0.67-1.72-0.92c-0.61-0.25-1.24-0.44-1.87-0.57    c-3.25-0.65-6.71,0.42-9.03,2.74c-1.86,1.86-2.93,4.43-2.93,7.07c0,2.63,1.07,5.211,2.93,7.07c1.86,1.86,4.44,2.93,7.07,2.93    c0.65,0,1.31-0.07,1.96-0.2c0.63-0.13,1.26-0.32,1.87-0.57c0.6-0.25,1.18-0.56,1.72-0.92c0.55-0.36,1.06-0.78,1.52-1.24    c1.86-1.86,2.93-4.44,2.93-7.07C272.15,289.71,271.08,287.14,269.22,285.28z" fill="#3a506b" data-original="#000000" style=""/>
	</g>
</g>
<g xmlns="http://www.w3.org/2000/svg">
	<g>
		<path d="M509.071,154.41l-80.987-80.987c-3.905-3.904-10.237-3.904-14.143,0l-45.44,45.44c-2.193,2.194-3.154,5.153-2.883,8.018    c-6.373,1.628-13.781,3.348-20.586,4.636h-0.001c-12.362,2.339-16.105,2.01-16.729,1.923c-24.212-3.46-48.989,4.802-66.283,22.096    l-0.688,0.688c-18.468-14.349-43.75-21.678-65.781-18.531c-5.73,0.821-25.433-3.224-40.696-7.143    c0.473-3.046-0.453-6.267-2.799-8.613l-48.516-48.516c-3.905-3.905-10.237-3.905-14.143,0l-86.467,86.47    c-3.905,3.905-3.905,10.237,0,14.143l48.516,48.516c1.953,1.952,4.512,2.929,7.071,2.929c0.608,0,1.215-0.059,1.815-0.169    l3.658,20.764c5.856,33.24,20.918,63.28,43.558,86.87c0.812,0.846,1.634,1.685,2.464,2.516l96.867,96.868    c5.92,5.92,13.791,9.18,22.164,9.179c8.372-0.001,16.243-3.261,22.163-9.183c2.825-2.826,4.997-6.062,6.515-9.518l8.15,8.15    c5.919,5.92,13.79,9.18,22.162,9.18c8.372,0,16.242-3.26,22.162-9.18c2.788-2.788,4.985-6.007,6.531-9.509l1.965,1.966    c12.221,12.22,32.104,12.22,44.324,0c10.387-10.388,11.945-26.311,4.673-38.36c3.853-1.556,7.389-3.887,10.415-6.914    c5.919-5.92,9.18-13.79,9.18-22.162c0-4.281-0.858-8.43-2.483-12.255l23.98-23.979c0.779-0.78,1.55-1.567,2.314-2.363    c21.292-22.187,35.458-50.436,40.964-81.693l3.32-18.844c0.393,0.046,0.787,0.078,1.182,0.078c2.559,0,5.119-0.977,7.071-2.929    l45.44-45.44C512.976,164.647,512.976,158.315,509.071,154.41z M58.516,201.336l-34.374-34.374l72.326-72.326l34.374,34.374    L58.516,201.336z M363.96,363.997c-2.142,2.143-4.99,3.322-8.019,3.322c-3.029,0-5.877-1.18-8.02-3.322l-56.46-56.459    c-3.905-3.905-10.237-3.905-14.143,0c-3.905,3.905-3.905,10.237,0,14.143l71.552,71.552c4.422,4.422,4.422,11.617,0,16.039    c-4.422,4.423-11.617,4.423-16.039,0l-109.827-109.83c-3.905-3.905-10.237-3.905-14.143,0c-1.953,1.953-2.929,4.512-2.929,7.071    c0,2.559,0.976,5.119,2.929,7.071l87.19,87.19c2.143,2.142,3.322,4.99,3.322,8.02c0,3.029-1.18,5.877-3.322,8.019    c-2.142,2.143-4.99,3.322-8.02,3.322c-3.03,0-5.877-1.18-8.02-3.322l-90.095-90.065c-3.905-3.905-10.237-3.905-14.143,0    c-3.905,3.905-3.905,10.237,0,14.143l61.27,61.27c0.05,0.051,0.106,0.093,0.157,0.142c4.271,4.433,4.229,11.509-0.141,15.881    c-2.142,2.143-4.99,3.323-8.02,3.323c-3.03,0-5.878-1.179-8.02-3.321l-96.868-96.868c-0.733-0.733-1.459-1.473-2.176-2.221    c-19.884-20.72-33.126-47.17-38.292-76.492l-5.714-32.437l62.778-62.778c13.695,3.857,45.21,11.881,57.629,10.105    c15.861-2.263,34.641,2.96,48.666,13.018l-57.885,57.885c-0.362,0.362-0.712,0.731-1.053,1.108    c-0.05,0.055-0.096,0.113-0.145,0.168c-0.292,0.327-0.578,0.657-0.854,0.995c-0.011,0.014-0.022,0.029-0.033,0.043    c-4.338,5.328-6.698,11.928-6.698,18.891s2.36,13.563,6.697,18.891c0.012,0.014,0.022,0.029,0.034,0.043    c0.276,0.337,0.562,0.668,0.854,0.995c0.049,0.055,0.095,0.113,0.145,0.168c0.341,0.376,0.691,0.746,1.053,1.108    s0.732,0.713,1.109,1.054c0.052,0.047,0.105,0.09,0.157,0.136c0.33,0.295,0.665,0.584,1.006,0.863    c0.012,0.01,0.024,0.018,0.036,0.028c5.329,4.341,11.931,6.702,18.898,6.702c7.461,0,14.504-2.709,20.012-7.657    c0.026-0.023,0.053-0.045,0.079-0.069c0.378-0.342,0.75-0.694,1.113-1.058l19.533-19.533l8.088-8.088L363.96,347.958    c0.007,0.007,0.018,0.02,0.025,0.027c0.126,0.127,0.238,0.263,0.358,0.394c0.079,0.091,0.158,0.182,0.239,0.277    c0.052,0.061,0.11,0.114,0.163,0.173c1.643,2.016,2.537,4.512,2.537,7.148C367.283,359.007,366.103,361.855,363.96,363.997z     M432.358,232.221c-4.813,27.335-17.157,51.995-35.693,71.31c-0.67,0.698-1.348,1.39-2.03,2.072l-22.373,22.373l-5.261-5.261    l-93.67-93.671l24.941-24.941c3.905-3.905,3.905-10.237,0-14.142c-3.905-3.905-10.236-3.905-14.142,0l-66.705,66.704    c-0.243,0.243-0.496,0.471-0.757,0.684c-0.007,0.006-0.015,0.011-0.022,0.016c-3.626,2.939-8.847,2.956-12.494,0.055    c-0.033-0.026-0.068-0.048-0.1-0.074c-0.26-0.212-0.511-0.438-0.753-0.68s-0.468-0.493-0.68-0.753    c-0.026-0.032-0.048-0.068-0.074-0.1c-0.185-0.232-0.362-0.468-0.523-0.712c0-0.001-0.001-0.001-0.001-0.002    c-2.188-3.32-2.189-7.668-0.002-10.988c0.001-0.002,0.002-0.004,0.003-0.006c0.161-0.244,0.338-0.479,0.522-0.711    c0.026-0.033,0.048-0.068,0.075-0.101c0.212-0.259,0.438-0.511,0.68-0.753l72.86-72.86c12.866-12.866,31.303-19.007,49.313-16.439    c3.016,0.432,8.711,0.684,23.274-2.07h0.002c10.975-2.077,22.842-5.067,30.633-7.28l22.187,22.187l-27.53,27.529    c-12.642,12.642-33.211,12.642-45.852,0l-0.94-0.94c-3.905-3.904-10.237-3.904-14.143,0c-3.905,3.905-3.905,10.237,0,14.143    l0.941,0.941c9.901,9.901,23.066,15.354,37.068,15.354c14.003,0,27.167-5.453,37.068-15.354l27.53-27.529l21.943,21.943    L432.358,232.221z M456.56,192.78l-1.076-1.076c-0.001-0.001-0.002-0.003-0.004-0.004l-65.765-65.765l31.298-31.298l66.845,66.845    L456.56,192.78z" fill="#3a506b" data-original="#000000" style=""/>
	</g>
</g>















</g>
</svg>
