<?xml version="1.0" encoding="UTF-8"?>
<svg xmlns="http://www.w3.org/2000/svg" xmlns:xlink="http://www.w3.org/1999/xlink" xmlns:svgjs="http://svgjs.com/svgjs" version="1.1" width="512" height="512" x="0" y="0" viewBox="0 0 512 512" style="enable-background:new 0 0 512 512" xml:space="preserve" class="">
  <g>
<g xmlns="http://www.w3.org/2000/svg">
	<g>
		<path d="M483.138,137.918c-15.307-29.405-35.904-55.257-61.222-76.839c-20.98-17.882-44.51-32.168-69.931-42.457    C321.49,6.265,289.195,0,256,0c-9.436,0-19.238,0.574-29.125,1.704c-42.668,4.83-83.764,20.54-118.843,45.431    c-34.397,24.406-62.497,57.21-81.264,94.866C9.007,177.656,0,216.011,0,256c0,68.368,26.633,132.653,74.993,181.011    C123.352,485.369,187.635,512,256,512c46.118,0,91.337-12.417,130.769-35.908c38.271-22.8,70.104-55.33,92.063-94.074    C500.53,343.71,512,300.13,512,255.99C512,214.973,502.02,174.144,483.138,137.918z M461.43,372.159    C419.537,446.08,340.82,492,256,492C125.869,492,20,386.131,20,256c0-36.866,8.301-72.22,24.67-105.08    C80.541,78.944,149.496,30.591,229.136,21.576C238.282,20.53,247.32,20,256,20c30.609,0,60.376,5.773,88.478,17.16    c23.431,9.484,45.12,22.653,64.464,39.141c23.35,19.904,42.345,43.744,56.457,70.857c0.001,0.001,0.002,0.003,0.002,0.005    C482.803,180.546,492,218.178,492,255.99C492,296.682,481.429,336.853,461.43,372.159z" fill="#3a506b" data-original="#000000" style="" class=""/>
	</g>
</g>
<g xmlns="http://www.w3.org/2000/svg">
	<g>
		<path d="M378.744,423.782c-3.059-4.597-9.27-5.842-13.865-2.781c-31.925,21.257-69.11,32.493-107.537,32.493    c-107.279,0-194.557-87.278-194.557-194.557c0-30.462,6.823-59.603,20.281-86.611c2.463-4.943,0.453-10.947-4.49-13.411    c-4.943-2.462-10.947-0.453-13.41,4.491c-14.851,29.805-22.381,61.946-22.381,95.531c0,118.307,96.25,214.557,214.557,214.557    c42.385,0,83.403-12.396,118.621-35.846C380.561,434.587,381.806,428.379,378.744,423.782z" fill="#3a506b" data-original="#000000" style="" class=""/>
	</g>
</g>
<g xmlns="http://www.w3.org/2000/svg">
	<g>
		<path d="M412.928,400.35c-0.128-0.64-0.319-1.27-0.569-1.88c-0.25-0.6-0.56-1.18-0.92-1.72c-0.37-0.55-0.79-1.06-1.25-1.52    c-0.46-0.46-0.97-0.88-1.52-1.25c-0.54-0.36-1.12-0.67-1.72-0.92c-0.61-0.25-1.24-0.44-1.87-0.57c-1.3-0.26-2.62-0.25-3.91,0    c-0.64,0.13-1.27,0.32-1.87,0.57c-0.61,0.25-1.19,0.56-1.73,0.92c-0.55,0.37-1.06,0.79-1.52,1.25c-0.46,0.46-0.88,0.97-1.24,1.52    c-0.359,0.54-0.67,1.12-0.92,1.72c-0.25,0.61-0.439,1.24-0.57,1.88c-0.13,0.64-0.199,1.3-0.199,1.95s0.069,1.31,0.199,1.95    c0.131,0.64,0.32,1.27,0.57,1.87c0.25,0.61,0.561,1.19,0.92,1.73c0.36,0.55,0.78,1.06,1.24,1.52c1.86,1.86,4.44,2.93,7.07,2.93    s5.21-1.07,7.069-2.93c0.46-0.46,0.88-0.97,1.25-1.52c0.36-0.54,0.67-1.12,0.92-1.73c0.25-0.6,0.44-1.23,0.57-1.87    s0.19-1.3,0.19-1.95S413.058,400.99,412.928,400.35z" fill="#3a506b" data-original="#000000" style="" class=""/>
	</g>
</g>
<g xmlns="http://www.w3.org/2000/svg">
	<g>
		<path d="M254.658,38.506c-42.384,0-83.402,12.396-118.621,35.846c-4.598,3.061-5.843,9.269-2.781,13.866    c3.059,4.597,9.27,5.841,13.865,2.781c31.925-21.257,69.11-32.493,107.537-32.493c107.279,0,194.557,87.278,194.557,194.557    c0,30.462-6.823,59.602-20.281,86.611c-2.463,4.943-0.453,10.947,4.49,13.411c1.433,0.713,2.953,1.052,4.452,1.052    c3.673-0.001,7.209-2.032,8.958-5.543c14.851-29.805,22.381-61.946,22.381-95.531C469.215,134.756,372.965,38.506,254.658,38.506z    " fill="#3a506b" data-original="#000000" style="" class=""/>
	</g>
</g>
<g xmlns="http://www.w3.org/2000/svg">
	<g>
		<path d="M118.68,107.75c-0.13-0.64-0.32-1.27-0.57-1.87c-0.25-0.61-0.56-1.19-0.92-1.73c-0.359-0.55-0.779-1.06-1.239-1.52    c-0.46-0.46-0.971-0.88-1.521-1.24c-0.54-0.36-1.12-0.67-1.729-0.92c-0.601-0.25-1.23-0.44-1.87-0.57c-1.29-0.26-2.62-0.26-3.91,0    c-0.63,0.13-1.26,0.32-1.87,0.57c-0.6,0.25-1.18,0.56-1.72,0.92c-0.55,0.36-1.061,0.78-1.521,1.24c-0.46,0.46-0.88,0.97-1.25,1.52    c-0.359,0.54-0.67,1.12-0.92,1.73c-0.25,0.6-0.439,1.23-0.57,1.87c-0.13,0.64-0.189,1.3-0.189,1.95c0,2.64,1.06,5.21,2.93,7.07    c0.459,0.46,0.969,0.88,1.519,1.25c0.54,0.36,1.12,0.67,1.72,0.92c0.61,0.25,1.24,0.44,1.87,0.57c0.649,0.13,1.31,0.19,1.96,0.19    s1.31-0.06,1.95-0.19s1.27-0.32,1.87-0.57c0.609-0.25,1.189-0.56,1.729-0.92c0.55-0.37,1.06-0.79,1.521-1.25    c1.859-1.86,2.93-4.43,2.93-7.07C118.88,109.05,118.81,108.39,118.68,107.75z" fill="#3a506b" data-original="#000000" style="" class=""/>
	</g>
</g>
<g xmlns="http://www.w3.org/2000/svg">
	<g>
		<path d="M402.337,181.668h-72.005v-72.004c0-5.523-4.478-10-10-10H191.668c-5.523,0-10,4.477-10,10v72.004h-72.005    c-5.522,0-10,4.477-10,10v128.665c0,5.523,4.478,10,10,10h72.005v72.004c0,5.523,4.477,10,10,10h128.664c5.522,0,10-4.477,10-10    v-72.004h72.005c5.522,0,10-4.477,10-10V191.668C412.337,186.145,407.859,181.668,402.337,181.668z M392.337,310.333h-72.005    c-5.522,0-10,4.477-10,10v72.004H201.668v-72.004c0-5.523-4.478-10-10-10h-72.005V201.668h72.005c5.522,0,10-4.477,10-10v-72.004    h108.664v72.004c0,5.523,4.478,10,10,10h72.005V310.333z" fill="#3a506b" data-original="#000000" style="" class=""/>
	</g>
</g>
<g xmlns="http://www.w3.org/2000/svg">
	<g>
		<path d="M285.771,203.89c-14.279,0-23.764,5.3-29.804,10.912c-6.029-5.613-15.501-10.912-29.768-10.912    c-23.88,0-48.054,16.851-48.054,49.057c0,12.573,2.854,23.002,9.251,33.816c10.763,18.193,38.909,37.092,59.145,49.726    c1.06,0.662,1.936,1.209,2.596,1.629c2.07,1.321,4.444,1.981,6.819,1.981c2.364,0,4.729-0.655,6.796-1.964    c0.653-0.415,1.522-0.954,2.57-1.605c20.258-12.579,48.445-31.424,59.296-49.767c6.388-10.797,9.236-21.226,9.236-33.816    C333.854,220.741,309.665,203.89,285.771,203.89z M307.405,276.58c-6.287,10.627-23.59,24.827-51.438,42.214    c-27.849-17.478-45.125-31.679-51.358-42.215c-4.591-7.761-6.464-14.607-6.464-23.633c0-21.447,15.112-29.057,28.054-29.057    c11.891,0,17.444,5.724,20.009,10.521c1.922,3.601,5.655,5.84,9.743,5.843c0.002,0,0.005,0,0.007,0    c4.084,0,7.817-2.233,9.74-5.825c2.578-4.808,8.153-10.539,20.073-10.539c12.956,0.001,28.083,7.611,28.083,29.058    C313.854,261.99,311.986,268.837,307.405,276.58z" fill="#3a506b" data-original="#000000" style="" class=""/>
	</g>
</g>















</g>
</svg>
