<?xml version="1.0" encoding="UTF-8"?>
<svg xmlns="http://www.w3.org/2000/svg" xmlns:xlink="http://www.w3.org/1999/xlink" xmlns:svgjs="http://svgjs.com/svgjs" version="1.1" width="512" height="512" x="0" y="0" viewBox="0 0 512.001 512.001" style="enable-background:new 0 0 512 512" xml:space="preserve" class="">
  <g>
<g xmlns="http://www.w3.org/2000/svg">
	<g>
		<path d="M464.864,55.318c-2.868-1.839-6.473-2.091-9.57-0.671c-17.604,8.08-36.424,12.177-55.938,12.177    c-46.075,0-88.407-23.252-113.237-62.201C284.283,1.744,281.103,0,277.687,0h-43.37c-3.416,0-6.596,1.744-8.432,4.624    c-24.831,38.948-67.163,62.201-113.238,62.201c-19.513,0-38.333-4.097-55.937-12.177c-3.095-1.421-6.702-1.168-9.57,0.67    c-2.868,1.839-4.602,5.011-4.602,8.418v232.847c0,28.044,11.404,56.944,33.894,85.895c17.447,22.458,41.647,45.084,71.931,67.251    c51.11,37.411,101.387,60.416,103.502,61.377c1.314,0.597,2.725,0.895,4.136,0.895c1.411,0,2.822-0.298,4.136-0.895    c2.115-0.961,52.392-23.966,103.502-61.377c30.284-22.166,54.484-44.793,71.931-67.251c22.49-28.951,33.894-57.85,33.894-85.895    V63.736C469.465,60.33,467.731,57.157,464.864,55.318z M449.466,296.583h-0.001c0,96.64-165.003,180.597-193.463,194.352    c-28.46-13.755-193.463-97.712-193.463-194.352V78.503c16.053,5.527,32.848,8.321,50.108,8.321    c51.091,0,98.174-24.877,127.039-66.825h32.633c28.864,41.947,75.947,66.825,127.038,66.825c17.261,0,34.055-2.793,50.109-8.321    V296.583z" fill="#3a506b" data-original="#000000" style="" class=""/>
	</g>
</g>
<g xmlns="http://www.w3.org/2000/svg">
	<g>
		<path d="M425.911,108.579c-2.11-1.896-4.923-2.81-7.746-2.507c-6.181,0.659-12.509,0.993-18.807,0.993    c-52.229,0-101.201-23.032-134.36-63.191c-1.899-2.301-4.728-3.633-7.711-3.633h-2.569c-2.983,0-5.811,1.332-7.711,3.633    c-33.16,40.159-82.132,63.191-134.359,63.191c-6.298,0-12.626-0.334-18.807-0.993c-2.822-0.303-5.636,0.61-7.746,2.507    c-2.11,1.896-3.314,4.6-3.314,7.437v180.567c0,18.222,7.997,38.078,23.768,59.017c15.021,19.942,36.746,40.436,64.572,60.914    c29.917,22.016,60.17,39.06,80.281,49.482c1.442,0.748,3.022,1.122,4.601,1.122c1.579,0,3.159-0.374,4.601-1.122    c20.111-10.422,50.363-27.466,80.281-49.482c27.826-20.477,49.551-40.971,64.572-60.914    c15.772-20.939,23.768-40.795,23.768-59.017V116.016C429.225,113.179,428.02,110.476,425.911,108.579z M409.225,296.583    c0,28.476-29.23,66.318-80.195,103.822c-26.682,19.635-53.709,35.209-73.027,45.424c-19.318-10.216-46.345-25.789-73.027-45.424    c-50.965-37.504-80.195-75.346-80.195-103.822V157.35h236.506c5.523,0,10-4.477,10-10c0-5.523-4.477-10-10-10H102.78v-10.53    c3.284,0.163,6.58,0.245,9.867,0.245c54.929,0,106.635-22.865,143.355-63.059c36.72,40.194,88.426,63.059,143.354,63.059    c3.288,0,6.583-0.082,9.868-0.245v48.37h0H173.666c-5.523,0-10,4.477-10,10s4.477,10,10,10h235.559V296.583z" fill="#3a506b" data-original="#000000" style="" class=""/>
	</g>
</g>
<g xmlns="http://www.w3.org/2000/svg">
	<g>
		<path d="M384.332,145.39c-0.13-0.63-0.32-1.26-0.57-1.87c-0.25-0.6-0.56-1.18-0.92-1.72c-0.37-0.55-0.78-1.06-1.24-1.52    c-0.47-0.46-0.98-0.88-1.53-1.24c-0.54-0.36-1.12-0.67-1.72-0.92c-0.6-0.25-1.23-0.45-1.87-0.57c-1.29-0.26-2.62-0.26-3.91,0    c-0.64,0.12-1.27,0.32-1.87,0.57c-0.6,0.25-1.18,0.56-1.73,0.92c-0.54,0.36-1.06,0.78-1.52,1.24c-0.46,0.46-0.88,0.97-1.24,1.52    c-0.36,0.54-0.67,1.12-0.92,1.72c-0.25,0.61-0.44,1.24-0.57,1.87c-0.13,0.65-0.2,1.31-0.2,1.96c0,2.63,1.07,5.21,2.93,7.07    c0.46,0.46,0.98,0.88,1.52,1.24c0.55,0.36,1.13,0.67,1.73,0.92c0.6,0.25,1.23,0.45,1.87,0.57c0.65,0.13,1.3,0.2,1.95,0.2    c0.66,0,1.31-0.07,1.96-0.2c0.64-0.12,1.27-0.32,1.87-0.57c0.6-0.25,1.18-0.56,1.72-0.92c0.55-0.36,1.06-0.78,1.53-1.24    c0.46-0.46,0.87-0.97,1.24-1.52c0.36-0.54,0.67-1.12,0.92-1.73c0.25-0.6,0.44-1.23,0.57-1.87c0.13-0.64,0.19-1.3,0.19-1.95    C384.522,146.7,384.462,146.04,384.332,145.39z" fill="#3a506b" data-original="#000000" style="" class=""/>
	</g>
</g>
<g xmlns="http://www.w3.org/2000/svg">
	<g>
		<path d="M148.232,183.24c-0.13-0.64-0.32-1.27-0.57-1.87c-0.25-0.61-0.56-1.19-0.92-1.73c-0.37-0.55-0.78-1.059-1.24-1.52    c-0.47-0.46-0.98-0.88-1.52-1.24c-0.55-0.36-1.13-0.67-1.73-0.92s-1.23-0.45-1.87-0.57c-1.29-0.26-2.62-0.26-3.91,0    c-0.64,0.12-1.27,0.32-1.87,0.57c-0.6,0.25-1.19,0.56-1.73,0.92c-0.55,0.36-1.059,0.78-1.52,1.24c-0.46,0.46-0.88,0.97-1.24,1.52    c-0.36,0.54-0.67,1.12-0.92,1.73c-0.25,0.6-0.44,1.23-0.57,1.87s-0.2,1.3-0.2,1.95c0,0.65,0.07,1.31,0.2,1.95    c0.13,0.64,0.32,1.27,0.57,1.87c0.25,0.61,0.56,1.19,0.92,1.73c0.36,0.55,0.78,1.06,1.24,1.52c0.461,0.46,0.97,0.88,1.52,1.24    c0.54,0.36,1.13,0.67,1.73,0.92c0.6,0.25,1.231,0.45,1.87,0.57c0.64,0.13,1.3,0.2,1.95,0.2c0.66,0,1.31-0.07,1.96-0.2    c0.64-0.12,1.27-0.32,1.87-0.57c0.6-0.25,1.18-0.56,1.73-0.92c0.54-0.36,1.05-0.78,1.52-1.24c0.46-0.46,0.87-0.97,1.24-1.52    c0.36-0.54,0.67-1.12,0.92-1.73c0.25-0.6,0.44-1.23,0.57-1.87c0.13-0.64,0.19-1.3,0.19-1.95    C148.422,184.54,148.362,183.88,148.232,183.24z" fill="#3a506b" data-original="#000000" style="" class=""/>
	</g>
</g>
<g xmlns="http://www.w3.org/2000/svg">
	<g>
		<path d="M350.755,227.45c-12.559-11.876-29.736-18.415-48.368-18.415c-23.801,0-38.248,10.193-46.442,19.407    c-8.177-9.216-22.597-19.407-46.374-19.407c-18.63,0-35.8,6.542-48.349,18.419c-13.7,12.967-20.942,31.099-20.942,52.433    c0,18.533,4.205,33.906,13.635,49.846c16.146,27.294,59.268,56.207,90.298,75.58c1.672,1.044,3.056,1.908,4.098,2.573    c2.315,1.477,4.969,2.215,7.625,2.215c2.643-0.001,5.287-0.732,7.595-2.197c1.03-0.654,2.398-1.503,4.05-2.528    c31.065-19.289,74.248-48.116,90.531-75.642c9.414-15.914,13.612-31.287,13.612-49.846    C371.724,258.554,364.473,240.421,350.755,227.45z M340.897,319.55c-15.67,26.488-67.001,58.361-83.868,68.835    c-0.376,0.233-0.739,0.458-1.086,0.675c-0.364-0.228-0.743-0.464-1.139-0.711c-16.855-10.523-68.147-42.546-83.677-68.798    c-7.604-12.854-10.849-24.716-10.849-39.663c0.002-35.13,24.758-50.854,49.293-50.854c21.291,0,31.382,10.522,36.098,19.349    c2.024,3.789,5.955,6.145,10.257,6.148c0.003,0,0.006,0,0.01,0c4.299,0,8.229-2.349,10.259-6.133    c4.736-8.834,14.86-19.364,36.192-19.364c24.557,0,49.336,15.724,49.336,50.853C351.723,294.861,348.485,306.723,340.897,319.55z" fill="#3a506b" data-original="#000000" style="" class=""/>
	</g>
</g>















</g>
</svg>
