<?xml version="1.0" encoding="UTF-8"?>
<svg xmlns="http://www.w3.org/2000/svg" xmlns:xlink="http://www.w3.org/1999/xlink" xmlns:svgjs="http://svgjs.com/svgjs" version="1.1" width="512" height="512" x="0" y="0" viewBox="0 0 512 512" style="enable-background:new 0 0 512 512" xml:space="preserve" class="">
  <g>
<g xmlns="http://www.w3.org/2000/svg">
	<g>
		<path d="M352.067,195.511c-12.719-12.026-30.116-18.65-48.988-18.65c-24.21,0-38.859,10.412-47.137,19.773    c-8.259-9.362-22.883-19.773-47.067-19.773c-18.87,0-36.261,6.625-48.969,18.653c-13.875,13.133-21.209,31.498-21.209,53.11    c0,18.782,4.262,34.361,13.818,50.516c16.372,27.674,60.12,57.005,91.602,76.661c1.697,1.058,3.101,1.935,4.158,2.609    c2.324,1.483,4.991,2.225,7.657,2.225c2.655,0,5.311-0.735,7.628-2.207c1.046-0.664,2.435-1.525,4.11-2.566    c31.517-19.569,75.326-48.814,91.837-76.723c9.541-16.127,13.795-31.706,13.795-50.515    C373.302,227.013,365.959,208.647,352.067,195.511z M342.296,288.957c-15.924,26.917-68.047,59.28-85.175,69.915    c-0.41,0.255-0.804,0.499-1.18,0.733c-0.392-0.245-0.803-0.501-1.231-0.769c-17.116-10.686-69.199-43.203-84.981-69.879    c-7.732-13.071-11.031-25.133-11.031-40.333c0-35.758,25.201-51.763,50.178-51.763c21.684,0,31.964,10.722,36.769,19.715    c2.028,3.798,5.967,6.159,10.28,6.163c0.003,0,0.006,0,0.01,0c4.309,0,8.247-2.354,10.28-6.145    c4.826-9.002,15.141-19.732,36.865-19.732c24.999,0,50.224,16.005,50.224,51.763C353.304,263.852,350.012,275.914,342.296,288.957    z" fill="#3a506b" data-original="#000000" style="" class=""/>
	</g>
</g>
<g xmlns="http://www.w3.org/2000/svg">
	<g>
		<path d="M303.782,24.913H120.925c-14.592,0-28.608,6.909-37.494,18.481L60.528,73.217c-1.818-2.494-4.754-4.121-8.077-4.121H10    c-5.523,0-10,4.477-10,10v99.921c0,5.523,4.477,10,10,10h42.451h69.919c13.097,0,25.45-5.059,34.785-14.245l48.477-47.701    c7.853-7.853,11.066-18.613,9.651-28.843h88.499c20.18,0,36.598-16.417,36.598-36.597V61.51    C340.38,41.33,323.962,24.913,303.782,24.913z M42.451,169.016H20V89.095h22.451V169.016z M320.38,61.631    c0,9.151-7.445,16.597-16.598,16.597h-98.758c-0.127-0.122-0.26-0.236-0.389-0.355c-0.193-0.179-0.385-0.357-0.581-0.531    c-0.247-0.22-0.499-0.433-0.752-0.645c-0.167-0.14-0.333-0.281-0.502-0.416c-0.313-0.253-0.632-0.497-0.953-0.737    c-0.111-0.083-0.22-0.168-0.331-0.249c-0.425-0.311-0.857-0.611-1.294-0.901c-0.007-0.004-0.013-0.009-0.02-0.014    c-5.524-3.656-11.996-5.624-18.772-5.624c-7.927,0-15.439,2.688-21.503,7.629c-0.012,0.01-0.024,0.018-0.036,0.028    c-0.384,0.314-0.76,0.64-1.132,0.972c-0.063,0.057-0.129,0.109-0.192,0.166c-0.428,0.388-0.849,0.786-1.26,1.198l-26.789,26.789    c-3.905,3.905-3.905,10.237,0,14.143c3.906,3.905,10.236,3.905,14.143,0l26.789-26.789c0.341-0.341,0.696-0.661,1.062-0.96    c0.057-0.046,0.118-0.085,0.176-0.13c0.317-0.251,0.638-0.494,0.971-0.713c0.017-0.011,0.035-0.02,0.051-0.031    c3.1-2.027,6.825-2.709,10.343-2.051c0.024,0.005,0.049,0.006,0.074,0.011c0.352,0.068,0.7,0.159,1.048,0.254    c0.097,0.027,0.196,0.045,0.292,0.073c0.273,0.081,0.54,0.184,0.809,0.281c0.169,0.062,0.341,0.114,0.507,0.182    c0.183,0.075,0.36,0.167,0.54,0.25c0.246,0.113,0.494,0.22,0.734,0.348c0.09,0.048,0.176,0.106,0.266,0.156    c0.319,0.18,0.637,0.362,0.944,0.568c0.008,0.005,0.015,0.011,0.022,0.016c0.761,0.512,1.48,1.102,2.146,1.768l0.02,0.02    l0.036,0.036c0.223,0.223,0.426,0.462,0.632,0.697c0.175,0.207,0.355,0.427,0.556,0.686c0.02,0.026,0.044,0.048,0.065,0.074    c1.861,2.442,2.882,5.402,2.882,8.524c0,3.77-1.469,7.315-4.077,9.924l-48.419,47.644c-5.572,5.479-12.944,8.498-20.76,8.498    H62.451V103.55l36.842-47.974c5.127-6.676,13.214-10.663,21.632-10.663h182.857c9.152,0,16.598,7.445,16.598,16.597V61.631z" fill="#3a506b" data-original="#000000" style="" class=""/>
	</g>
</g>
<g xmlns="http://www.w3.org/2000/svg">
	<g>
		<path d="M122.46,135.58c-0.12-0.64-0.32-1.26-0.57-1.87c-0.25-0.6-0.56-1.18-0.92-1.72c-0.36-0.55-0.78-1.06-1.24-1.52    c-0.46-0.47-0.97-0.88-1.52-1.25c-0.54-0.36-1.12-0.67-1.73-0.92c-0.6-0.25-1.229-0.44-1.87-0.57c-1.29-0.26-2.609-0.26-3.899,0    c-0.641,0.13-1.271,0.32-1.87,0.57c-0.61,0.25-1.19,0.56-1.73,0.92c-0.55,0.37-1.06,0.78-1.52,1.25    c-0.46,0.46-0.88,0.97-1.25,1.52c-0.36,0.54-0.67,1.12-0.92,1.72c-0.25,0.61-0.44,1.23-0.57,1.87    c-0.13,0.65-0.189,1.31-0.189,1.96c0,0.65,0.06,1.31,0.189,1.95c0.13,0.64,0.32,1.27,0.57,1.87c0.25,0.6,0.56,1.19,0.92,1.73    c0.37,0.55,0.79,1.06,1.25,1.52s0.97,0.88,1.52,1.24c0.54,0.36,1.12,0.67,1.73,0.92c0.6,0.25,1.229,0.44,1.87,0.57    c0.64,0.13,1.3,0.2,1.95,0.2c0.649,0,1.31-0.07,1.949-0.2c0.641-0.13,1.271-0.32,1.87-0.57c0.61-0.25,1.19-0.56,1.73-0.92    c0.55-0.36,1.06-0.78,1.52-1.24c0.46-0.46,0.88-0.97,1.24-1.52c0.36-0.54,0.67-1.13,0.92-1.73s0.45-1.23,0.57-1.87    c0.13-0.64,0.2-1.3,0.2-1.95C122.66,136.89,122.59,136.23,122.46,135.58z" fill="#3a506b" data-original="#000000" style="" class=""/>
	</g>
</g>
<g xmlns="http://www.w3.org/2000/svg">
	<g>
		<path d="M409.141,372.51c-0.121-0.64-0.322-1.27-0.572-1.87c-0.25-0.61-0.56-1.19-0.92-1.73c-0.359-0.55-0.779-1.06-1.239-1.52    c-0.46-0.46-0.971-0.88-1.521-1.24c-0.54-0.36-1.12-0.67-1.729-0.92c-0.601-0.25-1.23-0.44-1.87-0.57c-1.29-0.26-2.61-0.26-3.9,0    c-0.64,0.13-1.27,0.32-1.87,0.57c-0.609,0.25-1.189,0.56-1.729,0.92c-0.55,0.36-1.061,0.78-1.521,1.24    c-0.46,0.46-0.88,0.97-1.25,1.52c-0.359,0.54-0.66,1.12-0.91,1.73c-0.25,0.6-0.449,1.23-0.579,1.87    c-0.131,0.64-0.19,1.3-0.19,1.95c0,2.64,1.07,5.21,2.93,7.07c0.46,0.46,0.971,0.88,1.521,1.25c0.54,0.36,1.12,0.67,1.729,0.92    c0.601,0.25,1.23,0.44,1.87,0.57c0.641,0.13,1.3,0.19,1.95,0.19c0.65,0,1.31-0.06,1.95-0.19s1.27-0.32,1.87-0.57    c0.609-0.25,1.189-0.56,1.729-0.92c0.55-0.37,1.061-0.79,1.521-1.25c1.859-1.86,2.93-4.43,2.93-7.07    C409.341,373.81,409.271,373.15,409.141,372.51z" fill="#3a506b" data-original="#000000" style="" class=""/>
	</g>
</g>
<g xmlns="http://www.w3.org/2000/svg">
	<g>
		<path d="M502,322.983h-42.451H389.63c-13.097,0-25.45,5.059-34.785,14.245l-48.477,47.702c-6.443,6.443-9.992,15.011-9.992,24.123    c0,1.593,0.115,3.168,0.328,4.719h-88.487c-20.18,0-36.598,16.418-36.598,36.597v0.121c0,20.18,16.418,36.597,36.598,36.597    h182.857c14.592,0,28.608-6.909,37.495-18.481l22.902-29.822c1.819,2.494,4.754,4.121,8.077,4.121H502c5.522,0,10-4.477,10-10    v-99.922C512,327.46,507.522,322.983,502,322.983z M449.548,408.45l-36.841,47.975c-5.126,6.676-13.213,10.662-21.632,10.662    H208.218c-9.152,0-16.598-7.445-16.598-16.597v-0.121c0-9.152,7.445-16.597,16.598-16.597h98.758    c0.127,0.121,0.259,0.235,0.388,0.354c0.193,0.179,0.386,0.359,0.583,0.533c0.246,0.219,0.497,0.431,0.749,0.642    c0.168,0.141,0.335,0.283,0.505,0.42c0.312,0.252,0.629,0.495,0.949,0.734c0.112,0.083,0.222,0.17,0.334,0.252    c0.423,0.309,0.852,0.608,1.288,0.896c0.009,0.006,0.018,0.013,0.027,0.019c5.524,3.656,11.995,5.624,18.771,5.624    c7.929,0,15.443-2.689,21.507-7.632c0.01-0.008,0.021-0.016,0.031-0.025c0.387-0.316,0.766-0.645,1.141-0.979    c0.06-0.054,0.123-0.104,0.183-0.158c0.428-0.388,0.849-0.787,1.261-1.198l26.272-26.273c3.905-3.905,3.905-10.237,0-14.142    c-3.906-3.905-10.236-3.905-14.143,0l-26.272,26.272c-0.341,0.341-0.696,0.661-1.062,0.96c-0.056,0.046-0.118,0.085-0.175,0.13    c-0.317,0.251-0.639,0.494-0.972,0.714c-0.016,0.01-0.032,0.019-0.048,0.029c-3.1,2.028-6.827,2.711-10.346,2.053    c-0.024-0.005-0.049-0.006-0.074-0.011c-0.352-0.068-0.7-0.159-1.048-0.254c-0.097-0.027-0.196-0.045-0.292-0.073    c-0.273-0.081-0.54-0.184-0.808-0.281c-0.169-0.062-0.341-0.113-0.507-0.182c-0.183-0.075-0.36-0.167-0.54-0.25    c-0.246-0.113-0.494-0.22-0.734-0.348c-0.09-0.048-0.176-0.106-0.266-0.156c-0.319-0.18-0.637-0.362-0.944-0.568    c-0.008-0.005-0.015-0.011-0.022-0.017c-0.761-0.512-1.48-1.102-2.146-1.768l-0.013-0.013l-0.043-0.043    c-0.231-0.231-0.441-0.477-0.654-0.721c-0.167-0.199-0.343-0.414-0.534-0.661c-0.02-0.026-0.044-0.048-0.065-0.074    c-1.861-2.442-2.882-5.401-2.882-8.524c0-3.77,1.469-7.314,4.077-9.924l48.419-47.645c5.57-5.482,12.942-8.501,20.758-8.501    h59.919V408.45z M492,422.905h-22.451v-79.922H492V422.905z" fill="#3a506b" data-original="#000000" style="" class=""/>
	</g>
</g>















</g>
</svg>
