<?xml version="1.0" encoding="UTF-8"?>
<svg xmlns="http://www.w3.org/2000/svg" xmlns:xlink="http://www.w3.org/1999/xlink" xmlns:svgjs="http://svgjs.com/svgjs" version="1.1" width="512" height="512" x="0" y="0" viewBox="0 0 512 512" style="enable-background:new 0 0 512 512" xml:space="preserve" class="">
  <g>
<g xmlns="http://www.w3.org/2000/svg">
	<g>
		<path d="M477.398,133.533c-5.213,0-10.162,1.16-14.6,3.233V62.578c0-19.079-15.523-34.601-34.602-34.601    c-5.494,0-10.692,1.287-15.311,3.575c-1.406-6.877-4.854-13.301-9.926-18.277c-6.681-6.556-15.462-10.079-24.632-9.896    c-18.712,0.355-33.935,15.874-33.935,34.595v5.538c-4.439-2.075-9.387-3.234-14.602-3.234c-19.079,0-34.602,15.522-34.602,34.602    v15.634c-4.254-2.005-8.972-3.166-13.935-3.26c-9.214-0.179-17.951,3.338-24.632,9.894c-0.214,0.21-0.416,0.429-0.624,0.645    c-0.202-0.209-0.399-0.423-0.607-0.627c-6.68-6.566-15.435-10.096-24.646-9.911c-4.963,0.094-9.682,1.255-13.936,3.26V74.88    c0-19.08-15.522-34.602-34.601-34.602c-5.215,0-10.162,1.159-14.601,3.234v-5.538c0-18.721-15.224-34.24-33.936-34.595    c-9.203-0.185-17.951,3.34-24.632,9.896c-5.071,4.976-8.52,11.4-9.925,18.277c-4.619-2.289-9.817-3.575-15.311-3.575    c-19.079,0-34.601,15.522-34.601,34.601v74.189c-4.439-2.075-9.387-3.234-14.601-3.234c-19.078,0-34.6,15.522-34.6,34.601v126.817    c0,29.377,14.031,57.44,37.532,75.068c5.604,4.204,19.098,24.731,28.489,40.708c-3.135,1.688-5.267,4.999-5.267,8.809v79.092    c0,5.523,4.477,10,10,10h140.963c5.523,0,10-4.477,10-10v-72.534c11.146,2.452,22.627,3.713,34.283,3.713    c11.652,0,23.137-1.275,34.283-3.737v72.558c0,5.523,4.478,10,10,10h140.964c5.522,0,10-4.477,10-10v-79.092    c0-3.81-2.132-7.121-5.267-8.809c9.39-15.977,22.883-36.503,28.488-40.708C497.97,352.392,512,324.329,512,294.952V168.134    C512,149.055,496.478,133.533,477.398,133.533z M329.791,60.278c8.052,0,14.602,6.55,14.602,14.602v64.831    c-1.236-0.834-2.483-1.645-3.738-2.441c-0.246-0.156-0.493-0.311-0.739-0.465c-1.416-0.888-2.842-1.755-4.282-2.595    c-0.206-0.12-0.414-0.237-0.62-0.356c-1.499-0.866-3.007-1.711-4.53-2.525c-0.084-0.045-0.169-0.087-0.253-0.132    c-1.522-0.81-3.057-1.593-4.602-2.351c-0.137-0.067-0.272-0.137-0.409-0.204c-1.525-0.743-3.063-1.455-4.61-2.147    c-0.238-0.107-0.476-0.215-0.715-0.32c-1.506-0.665-3.023-1.303-4.548-1.92c-0.052-0.021-0.104-0.045-0.156-0.066v-2.339V74.88    h-0.001C315.19,66.829,321.74,60.278,329.791,60.278z M270.63,111.424c2.815-2.763,6.434-4.241,10.245-4.174    c6.378,0.121,11.796,4.422,13.641,10.236c-0.326-0.081-0.655-0.154-0.982-0.233c-0.527-0.127-1.054-0.254-1.582-0.376    c-0.503-0.116-1.006-0.228-1.51-0.339c-0.533-0.118-1.067-0.234-1.602-0.346c-0.505-0.106-1.01-0.208-1.516-0.308    c-0.538-0.107-1.077-0.213-1.617-0.315c-0.505-0.095-1.011-0.187-1.518-0.277c-0.543-0.097-1.086-0.192-1.631-0.283    c-0.506-0.085-1.012-0.166-1.519-0.246c-0.548-0.087-1.098-0.171-1.647-0.252c-0.506-0.074-1.013-0.146-1.52-0.215    c-0.553-0.076-1.106-0.149-1.66-0.219c-0.508-0.064-1.017-0.126-1.526-0.185c-0.554-0.065-1.108-0.126-1.663-0.185    c-0.513-0.054-1.026-0.106-1.541-0.156c-0.556-0.053-1.112-0.104-1.669-0.152c-0.275-0.024-0.549-0.053-0.825-0.075    C269.479,112.651,270.028,112.015,270.63,111.424z M277.93,153.139c5.346-0.438,9.396-5.015,9.176-10.375    c-0.119-2.912-1.481-5.485-3.555-7.233c3.363,0.672,6.69,1.453,9.965,2.363c41.666,11.581,75.743,42.121,91.613,83.239h-8.439    c-4.43,0-8.254,2.537-9.98,6.621c-0.017,0.041-0.034,0.082-0.051,0.123c-1.673,4.106-0.768,8.607,2.383,11.769l2.289,2.282    c2.306,2.306,3.575,5.373,3.575,8.637c0,3.264-1.27,6.332-3.569,8.631c-2.252,2.248-5.251,3.486-8.446,3.486    c-3.199,0-6.196-1.236-8.44-3.48l-5.554-5.554c-6.841-6.841-15.483-11.186-24.992-12.566c-4.262-0.616-8.444,1.563-10.375,5.413    c-1.932,3.851-1.18,8.506,1.866,11.553l1.547,1.548c4.922,4.922,7.633,11.466,7.633,18.428v7.977    c0,6.002,4.883,10.886,10.885,10.886c0.332,0,0.607,0.188,0.73,0.479c0.132,0.317,0.068,0.639-0.172,0.881l-7.751,7.802    c-5.897,5.921-11.072,12.564-15.376,19.735l-6.851,11.385c-0.023,0.038-0.047,0.076-0.069,0.114l-8.635,14.272    c-2.837,4.682-4.336,10.051-4.336,15.525v0.428c0,2.491-2.026,4.517-4.525,4.517c-2.733,0-5.199-1.02-7.126-2.943    c-1.935-1.935-2.958-4.402-2.958-7.134c0-7.712-3.002-14.962-8.453-20.413l-3.205-3.204c-5.574-5.57-8.644-12.987-8.644-20.886    v-20.52c0-8.148-6.626-14.776-14.769-14.776h-2.439c-7.978,0-14.469-6.491-14.469-14.469v-10.685c0-8.459,6.881-15.34,15.34-15.34    h57.3c5.522,0,10-4.477,10-10v-0.566c0-12.365-4.816-23.992-13.563-32.737c-1.43-1.43-3.258-2.392-5.245-2.761l-45.578-8.464    c-3.232-0.601-6.547,0.425-8.876,2.74c-3.072,3.054-4.764,7.13-4.764,11.476c0,3.98-3.241,7.218-7.225,7.218h-7.019    c-1.618,0-2.935-1.317-2.935-2.935v-9.451c0-7.074,2.753-13.726,7.742-18.72l4.109-4.103c2.894-2.913,4.487-6.772,4.487-10.865    v-1.415c0-2.439,1.984-4.423,4.423-4.423c0.272,0,0.544-0.011,0.815-0.033L277.93,153.139z M241.904,221.656    c3.883-3.463,6.771-8.021,8.174-13.181l33.194,6.164c1.719,2.135,3.076,4.499,4.043,7.017H241.904z M231.125,107.25    c0.088-0.001,0.176-0.002,0.264-0.002c3.697,0,7.233,1.479,9.982,4.181c0.602,0.592,1.152,1.231,1.645,1.907    c-0.074,0.006-0.148,0.014-0.222,0.021c-0.554,0.047-1.107,0.102-1.661,0.155c-0.545,0.052-1.09,0.101-1.634,0.158    c-0.553,0.058-1.104,0.125-1.656,0.189c-0.542,0.063-1.085,0.124-1.626,0.192c-0.55,0.07-1.099,0.147-1.649,0.222    c-0.542,0.074-1.084,0.147-1.626,0.227c-0.547,0.081-1.092,0.168-1.637,0.255c-0.542,0.086-1.083,0.171-1.624,0.262    c-0.545,0.092-1.088,0.191-1.631,0.288c-0.539,0.097-1.077,0.193-1.615,0.296c-0.542,0.103-1.083,0.212-1.624,0.321    c-0.538,0.108-1.075,0.217-1.612,0.33c-0.537,0.114-1.072,0.233-1.607,0.352c-0.538,0.12-1.076,0.241-1.612,0.366    c-0.533,0.125-1.065,0.254-1.597,0.384c-0.309,0.076-0.62,0.146-0.928,0.223C219.272,111.716,224.713,107.372,231.125,107.25z     M167.607,74.882c0.001-8.053,6.551-14.603,14.602-14.603c8.051,0,14.601,6.55,14.601,14.602v46.969    c0,0.801,0.094,1.58,0.272,2.327c-0.009,0.004-0.018,0.008-0.027,0.011c-1.65,0.66-3.285,1.355-4.913,2.07    c-0.248,0.109-0.497,0.215-0.744,0.326c-1.554,0.693-3.096,1.412-4.628,2.155c-0.286,0.139-0.572,0.279-0.858,0.419    c-1.533,0.754-3.055,1.53-4.564,2.334c-0.222,0.118-0.441,0.24-0.662,0.359c-1.567,0.845-3.124,1.709-4.663,2.607    c-0.018,0.01-0.036,0.02-0.054,0.031c-1.545,0.902-3.072,1.839-4.587,2.794c-0.222,0.14-0.444,0.277-0.665,0.418    c-1.044,0.665-2.082,1.341-3.11,2.031V74.882z M49.533,354.021C31.04,340.15,20,318.068,20,294.952V168.134    c0-8.051,6.55-14.601,14.602-14.601c8.051,0,14.601,6.55,14.601,14.602c0,0.124,0.014,0.244,0.019,0.367v82.499    c0,5.523,4.477,10,10,10c5.523,0,10-4.477,10-10L69.203,62.578c0-8.051,6.55-14.601,14.601-14.601    c8.051,0,14.602,6.55,14.602,14.602v67.756c0,5.523,4.477,10,10,10s10-4.477,10-10V38.529c0-4.082,1.692-8.083,4.642-10.978    c2.817-2.764,6.441-4.239,10.246-4.175c7.893,0.15,14.315,6.699,14.315,14.599v117.696c-1.945,1.826-3.847,3.694-5.694,5.612    c-2.192,2.277-4.311,4.62-6.361,7.02c-0.215,0.252-0.429,0.505-0.642,0.758c-16.197,19.203-27.77,42.111-33.402,66.644    c0,0.001,0,0.001,0,0.001v0.001c-2.663,11.61-4.013,23.587-4.013,35.596c0,4.996,0.247,9.99,0.712,14.954    c-5.769-1.495-11.816-2.293-18.046-2.293h-1.942c-5.523,0-10,4.477-10,10s4.477,10,10,10h1.942    c10.732,0,20.713,3.271,29.002,8.867c0.024,0.016,0.047,0.032,0.071,0.048c2.041,1.383,3.979,2.907,5.799,4.558    c0.024,0.022,0.049,0.044,0.073,0.066c1.151,1.048,2.252,2.151,3.306,3.298c0.117,0.128,0.235,0.255,0.35,0.384    c0.472,0.524,0.934,1.056,1.385,1.598c0.141,0.17,0.276,0.345,0.415,0.516c0.301,0.372,0.598,0.749,0.889,1.13    c0.223,0.293,0.444,0.587,0.661,0.884c0.167,0.228,0.328,0.459,0.491,0.69c0.514,0.729,1.012,1.468,1.488,2.221    c0.025,0.04,0.052,0.08,0.077,0.12c2.993,4.773,5.209,10.023,6.531,15.547c0.012,0.049,0.022,0.097,0.034,0.146    c0.214,0.904,0.399,1.816,0.564,2.734c0.04,0.223,0.083,0.446,0.12,0.67c0.066,0.398,0.126,0.798,0.183,1.198    c0.062,0.441,0.118,0.883,0.169,1.327c0.038,0.325,0.076,0.649,0.108,0.975c0.063,0.654,0.113,1.312,0.15,1.974    c0.013,0.224,0.024,0.449,0.034,0.674c0.034,0.773,0.059,1.549,0.059,2.331v10.688v42.929H88.293    C80.623,395.769,61.136,362.724,49.533,354.021z M157.738,350.871c-2.052,2.052-3.915,4.267-5.62,6.591v-1.54    c0-1.086-0.033-2.167-0.082-3.245c-0.012-0.267-0.023-0.535-0.038-0.801c-0.056-0.983-0.129-1.963-0.224-2.938    c-0.036-0.376-0.082-0.749-0.125-1.124c-0.071-0.623-0.151-1.245-0.238-1.865c-0.11-0.792-0.237-1.577-0.373-2.36    c-0.073-0.419-0.144-0.839-0.225-1.256c-0.124-0.645-0.258-1.286-0.399-1.925c-0.027-0.122-0.057-0.243-0.084-0.365    c-1.605-7.092-4.257-13.787-7.79-19.918c-0.097-0.17-0.194-0.34-0.293-0.509c-0.319-0.544-0.641-1.085-0.974-1.619    c-0.317-0.511-0.645-1.016-0.975-1.519c-0.325-0.494-0.655-0.983-0.992-1.468c-0.368-0.531-0.742-1.058-1.124-1.58    c-0.187-0.254-0.37-0.511-0.56-0.763c-0.596-0.793-1.211-1.572-1.84-2.34c-0.098-0.119-0.197-0.237-0.296-0.355    c-4.503-5.428-9.817-10.23-15.836-14.189c-1.432-8.041-2.156-16.255-2.156-24.477c0-7.776,0.65-15.532,1.929-23.151    c6.777,0.781,13.057,3.794,17.956,8.688l6.126,6.134c4.502,4.489,10.482,6.962,16.839,6.962c4.982,0,9.668,1.942,13.195,5.47    l0.127,0.127c5.781,5.787,8.964,13.472,8.964,21.641v12.456c0,10.537-4.106,20.449-11.559,27.908L157.738,350.871z     M162.253,399.125c0.862,0.634,1.729,1.259,2.603,1.875c0.386,0.272,0.772,0.545,1.16,0.814c2.586,1.789,5.22,3.496,7.897,5.121    c0.091,0.055,0.183,0.109,0.274,0.164c1.382,0.835,2.775,1.647,4.18,2.438h-26.248V391.02c0.231,0.201,0.465,0.397,0.698,0.597    c0.393,0.338,0.785,0.677,1.181,1.01c0.971,0.818,1.951,1.623,2.938,2.416c0.222,0.178,0.441,0.361,0.664,0.538    c1.131,0.898,2.275,1.775,3.427,2.64C161.434,398.526,161.844,398.825,162.253,399.125z M80.753,488.629v-59.092h1.586h115.189    h4.188v59.092H80.753z M307.354,399.95c-0.629,0.251-1.259,0.498-1.892,0.74c-15.596,5.961-32.321,9.118-49.463,9.118    c-1.093,0-2.184-0.014-3.274-0.039c-0.369-0.009-0.737-0.026-1.105-0.037c-0.721-0.022-1.441-0.044-2.16-0.077    c-0.434-0.02-0.867-0.049-1.301-0.073c-0.652-0.036-1.304-0.072-1.955-0.117c-0.458-0.032-0.914-0.072-1.371-0.108    c-0.625-0.05-1.249-0.099-1.872-0.157c-0.47-0.044-0.938-0.094-1.407-0.143c-0.606-0.063-1.213-0.126-1.818-0.196    c-0.478-0.056-0.954-0.117-1.43-0.178c-0.595-0.076-1.189-0.153-1.782-0.236c-0.48-0.067-0.96-0.139-1.439-0.212    c-0.587-0.089-1.173-0.18-1.758-0.276c-0.48-0.079-0.96-0.161-1.439-0.245c-0.581-0.102-1.162-0.207-1.741-0.316    c-0.478-0.09-0.956-0.183-1.432-0.278c-0.579-0.116-1.157-0.235-1.734-0.358c-0.473-0.101-0.946-0.202-1.418-0.308    c-0.579-0.129-1.156-0.264-1.733-0.401c-0.465-0.111-0.93-0.221-1.394-0.336c-0.582-0.145-1.161-0.296-1.741-0.448    c-0.457-0.12-0.914-0.238-1.369-0.363c-0.585-0.16-1.168-0.328-1.751-0.495c-0.444-0.128-0.889-0.253-1.332-0.385    c-0.6-0.179-1.196-0.367-1.793-0.554c-0.422-0.132-0.845-0.261-1.265-0.397c-0.634-0.206-1.264-0.421-1.894-0.635    c-0.379-0.129-0.76-0.253-1.138-0.386c-0.733-0.257-1.461-0.524-2.189-0.793c-0.051-0.019-0.103-0.037-0.155-0.056    c-0.087-0.035-0.169-0.081-0.258-0.114c-6.689-2.499-13.124-5.481-19.28-8.932c-0.033-0.018-0.066-0.038-0.099-0.056    c-0.918-0.515-1.828-1.044-2.733-1.58c-0.217-0.129-0.433-0.259-0.649-0.389c-0.719-0.431-1.434-0.87-2.145-1.315    c-0.34-0.213-0.68-0.428-1.018-0.644c-0.583-0.371-1.162-0.748-1.739-1.129c-0.397-0.262-0.794-0.525-1.188-0.792    c-0.097-0.065-0.193-0.132-0.29-0.198c-0.42-0.284-0.838-0.572-1.254-0.861c-0.374-0.26-0.748-0.521-1.12-0.785    c-0.224-0.159-0.447-0.319-0.67-0.479c-0.311-0.223-0.621-0.448-0.93-0.674c-0.345-0.252-0.689-0.506-1.031-0.761    c-0.264-0.196-0.527-0.393-0.79-0.591c-0.297-0.225-0.592-0.452-0.888-0.679c-0.311-0.239-0.62-0.479-0.929-0.721    c-0.276-0.216-0.554-0.432-0.829-0.65c-0.32-0.254-0.637-0.513-0.955-0.77c-0.27-0.218-0.539-0.437-0.807-0.657    c-0.273-0.225-0.549-0.447-0.821-0.674c-0.376-0.314-0.748-0.634-1.121-0.952c-0.22-0.187-0.44-0.374-0.658-0.563    c-0.252-0.217-0.505-0.431-0.756-0.65c-0.084-0.074-0.167-0.15-0.251-0.224c1.793-3.814,4.257-7.327,7.282-10.351l13.336-13.337    c11.23-11.239,17.414-26.171,17.414-42.048v-12.456c0-13.507-5.261-26.212-14.818-35.779l-0.13-0.13    c-7.305-7.304-17.013-11.327-27.337-11.327c-1.04,0-1.979-0.389-2.702-1.109l-6.12-6.127    c-7.541-7.533-17.042-12.387-27.347-14.083c0.002-0.007,0.004-0.014,0.006-0.021c0.513-1.598,1.059-3.179,1.625-4.749    c0.068-0.189,0.134-0.381,0.203-0.57c0.544-1.487,1.116-2.958,1.706-4.417c0.103-0.255,0.206-0.511,0.31-0.766    c0.586-1.422,1.194-2.83,1.823-4.225c0.122-0.27,0.245-0.54,0.369-0.809c0.637-1.388,1.293-2.764,1.972-4.124    c0.122-0.245,0.248-0.487,0.371-0.73c0.703-1.387,1.424-2.763,2.17-4.12c0.091-0.165,0.185-0.327,0.276-0.492    c0.738-1.329,1.497-2.644,2.276-3.944c0.08-0.134,0.158-0.271,0.239-0.404c0.798-1.321,1.622-2.622,2.462-3.911    c0.153-0.235,0.303-0.471,0.457-0.705c0.812-1.232,1.647-2.446,2.496-3.648c0.192-0.272,0.384-0.544,0.578-0.814    c0.845-1.176,1.707-2.338,2.586-3.485c0.206-0.269,0.415-0.536,0.623-0.804c0.893-1.147,1.801-2.281,2.729-3.398    c0.194-0.234,0.392-0.464,0.588-0.697c0.963-1.143,1.938-2.274,2.936-3.384c0.139-0.154,0.281-0.304,0.421-0.458    c0.952-1.049,1.921-2.082,2.905-3.1c0.167-0.173,0.33-0.348,0.498-0.52c1.025-1.049,2.07-2.077,3.126-3.092    c0.238-0.228,0.474-0.459,0.713-0.685c1.033-0.978,2.082-1.937,3.144-2.882c0.271-0.241,0.542-0.481,0.815-0.72    c1.063-0.931,2.139-1.846,3.23-2.743c0.272-0.224,0.547-0.445,0.822-0.667c1.115-0.903,2.24-1.791,3.383-2.658    c0.24-0.182,0.484-0.36,0.725-0.541c1.159-0.868,2.328-1.722,3.514-2.553c0.18-0.126,0.361-0.249,0.541-0.374    c1.166-0.809,2.347-1.598,3.539-2.371c0.227-0.147,0.451-0.298,0.679-0.444c1.226-0.785,2.469-1.546,3.721-2.293    c0.288-0.171,0.574-0.344,0.863-0.514c1.234-0.724,2.482-1.427,3.74-2.113c0.307-0.167,0.614-0.333,0.923-0.498    c1.267-0.678,2.545-1.339,3.836-1.978c0.292-0.145,0.586-0.286,0.879-0.429c1.328-0.646,2.665-1.277,4.015-1.881    c0.228-0.102,0.458-0.199,0.686-0.3c1.358-0.599,2.725-1.179,4.105-1.735c0.144-0.058,0.287-0.117,0.431-0.175    c1.418-0.565,2.849-1.103,4.289-1.622c0.241-0.087,0.481-0.178,0.723-0.263c1.415-0.501,2.842-0.976,4.277-1.433    c0.293-0.093,0.586-0.188,0.881-0.279c1.421-0.442,2.852-0.86,4.292-1.257c0.301-0.083,0.603-0.164,0.905-0.245    c1.458-0.391,2.923-0.762,4.399-1.107c0.266-0.062,0.534-0.121,0.801-0.182c1.527-0.347,3.062-0.675,4.607-0.972    c0.17-0.033,0.341-0.061,0.511-0.093c1.556-0.293,3.121-0.561,4.694-0.802c0.117-0.018,0.233-0.039,0.351-0.056    c1.6-0.241,3.211-0.448,4.828-0.634c0.239-0.028,0.477-0.058,0.716-0.084c1.563-0.172,3.135-0.314,4.712-0.434    c0.286-0.022,0.573-0.044,0.859-0.064c1.566-0.109,3.138-0.193,4.716-0.251c0.131-0.005,0.263-0.008,0.394-0.013    c0.195,0.787,0.425,1.559,0.688,2.317l-17.729,1.45c-13.089,0.243-23.693,10.836-23.957,23.92l-2.742,2.737    c-8.771,8.781-13.602,20.453-13.602,32.864v9.451c0,12.646,10.289,22.935,22.935,22.935h4.006    c-8.715,6.442-14.376,16.79-14.376,28.435v10.685c0,18.066,13.971,32.931,31.677,34.357v15.408    c0,13.245,5.153,25.687,14.506,35.032l3.202,3.202c1.698,1.697,2.595,3.865,2.595,6.27c0,8.035,3.131,15.59,8.822,21.283    c5.682,5.671,13.232,8.794,21.269,8.794c13.519,0,24.518-10.999,24.518-24.517v-0.428c0-1.82,0.498-3.605,1.444-5.168l8.573-14.17    c0.031-0.05,0.061-0.1,0.092-0.15l6.924-11.508c3.477-5.792,7.649-11.149,12.412-15.932l7.762-7.812    c5.933-5.974,7.682-14.859,4.448-22.658c-1.999-4.787-5.624-8.531-10.08-10.701v-0.958c0-0.368-0.004-0.735-0.013-1.102    c5.326,3.743,11.669,5.759,18.328,5.759c8.531,0,16.55-3.314,22.583-9.338c4.148-4.149,7.024-9.232,8.435-14.775    c0.097,1.057,0.198,2.114,0.27,3.175c0.005,0.073,0.008,0.146,0.012,0.219c0.089,1.337,0.154,2.678,0.205,4.02    c0.014,0.362,0.026,0.724,0.037,1.086c0.042,1.41,0.072,2.821,0.072,4.234c0,4.104-0.182,8.21-0.543,12.297    c-0.361,4.087-0.902,8.156-1.62,12.185c-6.003,3.95-11.304,8.738-15.799,14.149c-0.116,0.139-0.233,0.278-0.348,0.418    c-0.616,0.753-1.219,1.517-1.803,2.293c-0.207,0.274-0.406,0.552-0.608,0.829c-0.36,0.493-0.714,0.99-1.061,1.491    c-0.438,0.63-0.862,1.269-1.28,1.913c-0.235,0.364-0.473,0.726-0.702,1.094c-0.345,0.554-0.68,1.115-1.011,1.68    c-0.08,0.137-0.158,0.275-0.238,0.413c-3.556,6.159-6.224,12.887-7.832,20.017c-0.024,0.105-0.049,0.209-0.073,0.314    c-0.142,0.645-0.277,1.292-0.402,1.943c-0.078,0.402-0.146,0.807-0.217,1.211c-0.139,0.798-0.268,1.599-0.38,2.406    c-0.087,0.616-0.166,1.233-0.236,1.853c-0.043,0.377-0.089,0.753-0.126,1.132c-0.095,0.975-0.168,1.953-0.224,2.935    c-0.015,0.267-0.026,0.534-0.038,0.801c-0.049,1.078-0.082,2.159-0.082,3.245v6.978c-0.905,1.025-1.826,2.035-2.76,3.032    c-0.183,0.195-0.37,0.385-0.553,0.579c-0.768,0.811-1.543,1.615-2.329,2.406c-0.193,0.194-0.388,0.385-0.582,0.578    c-0.809,0.804-1.625,1.6-2.452,2.383c-0.153,0.145-0.307,0.289-0.46,0.433c-0.915,0.859-1.841,1.706-2.778,2.539    c-0.064,0.057-0.128,0.115-0.193,0.172c-7.4,6.549-15.475,12.294-24.073,17.124c-0.004,0.002-0.009,0.005-0.013,0.007    c-3.608,2.026-7.311,3.888-11.092,5.585c-0.403,0.181-0.81,0.353-1.215,0.53c-0.775,0.339-1.553,0.674-2.335,0.998    C308.484,399.498,307.919,399.725,307.354,399.95z M359.881,391.008v18.529h-26.299    C342.908,404.297,351.722,398.099,359.881,391.008z M431.247,488.629H310.283v-59.092h4.189h115.189h1.586V488.629z M492,294.952    c0,23.116-11.04,45.198-29.533,59.069c-11.604,8.706-31.091,41.749-38.76,55.517h-43.826v-42.931v-10.686    c0-0.782,0.025-1.558,0.059-2.331c0.01-0.225,0.021-0.449,0.034-0.673c0.038-0.66,0.088-1.318,0.15-1.971    c0.032-0.33,0.071-0.658,0.109-0.986c0.05-0.439,0.106-0.877,0.167-1.313c0.057-0.404,0.117-0.807,0.184-1.209    c0.036-0.216,0.077-0.429,0.115-0.644c0.167-0.933,0.356-1.86,0.573-2.778c0.009-0.036,0.017-0.073,0.025-0.11    c1.324-5.535,3.545-10.797,6.547-15.579c0.508-0.81,1.043-1.602,1.596-2.383c0.142-0.201,0.283-0.403,0.428-0.602    c0.228-0.313,0.461-0.624,0.697-0.932c0.268-0.351,0.542-0.698,0.819-1.041c0.179-0.223,0.357-0.447,0.54-0.668    c0.421-0.506,0.853-1.003,1.293-1.492c0.13-0.145,0.262-0.287,0.393-0.431c0.48-0.522,0.966-1.037,1.467-1.538    c0.017-0.017,0.034-0.035,0.051-0.052c0.57-0.569,1.153-1.125,1.748-1.667c0.039-0.036,0.079-0.07,0.118-0.106    c1.805-1.635,3.725-3.146,5.747-4.517c0.037-0.025,0.074-0.051,0.111-0.076c8.285-5.59,18.261-8.857,28.986-8.857h1.942    c5.522,0,10-4.477,10-10s-4.478-10-10-10h-1.942c-6.231,0-12.279,0.798-18.048,2.294c0.467-4.97,0.715-9.963,0.715-14.955    c0-14.558-1.977-28.982-5.873-42.868c-7.35-26.226-21.098-49.717-40.156-68.841c-1.334-1.339-2.697-2.653-4.083-3.948V37.974    c0-7.9,6.422-14.449,14.314-14.599c3.791-0.061,7.429,1.411,10.246,4.175c2.949,2.895,4.642,6.896,4.642,10.978v91.806    c0,5.523,4.478,10,10,10c5.522,0,10-4.477,10-10V62.578c0-8.051,6.55-14.602,14.602-14.602s14.602,6.55,14.602,14.601    l-0.021,188.424c0,5.523,4.478,10,10,10c5.523,0,10-4.477,10-10v-82.48c0.005-0.129,0.02-0.256,0.02-0.387    c0-8.051,6.55-14.602,14.6-14.602c8.052,0,14.602,6.55,14.602,14.601V294.952z" fill="#3a506b" data-original="#000000" style="" class=""/>
	</g>
</g>
<g xmlns="http://www.w3.org/2000/svg">
	<g>
		<path d="M118.21,162.071c-0.13-0.64-0.32-1.27-0.57-1.87c-0.25-0.6-0.56-1.18-0.92-1.73c-0.36-0.54-0.78-1.06-1.24-1.52    c-0.46-0.46-0.98-0.88-1.52-1.24c-0.55-0.36-1.13-0.67-1.73-0.92c-0.6-0.25-1.23-0.44-1.87-0.57c-1.29-0.26-2.62-0.26-3.91,0    c-0.64,0.13-1.27,0.32-1.87,0.57c-0.6,0.25-1.18,0.56-1.73,0.92c-0.539,0.36-1.05,0.78-1.52,1.24c-0.46,0.46-0.87,0.98-1.24,1.52    c-0.36,0.55-0.67,1.13-0.92,1.73s-0.44,1.23-0.57,1.87c-0.13,0.65-0.2,1.3-0.2,1.95c0,0.66,0.07,1.31,0.2,1.96    c0.13,0.64,0.32,1.27,0.57,1.87c0.25,0.6,0.56,1.18,0.92,1.73c0.37,0.54,0.78,1.05,1.24,1.52c0.47,0.46,0.98,0.87,1.52,1.24    c0.55,0.36,1.13,0.67,1.73,0.92c0.6,0.25,1.23,0.44,1.87,0.57c0.65,0.13,1.3,0.19,1.96,0.19c0.65,0,1.3-0.06,1.95-0.19    c0.64-0.13,1.27-0.32,1.87-0.57c0.6-0.25,1.18-0.56,1.73-0.92c0.54-0.37,1.06-0.78,1.52-1.24c0.46-0.47,0.88-0.98,1.24-1.52    c0.36-0.55,0.67-1.13,0.92-1.73c0.25-0.6,0.44-1.23,0.57-1.87c0.13-0.65,0.19-1.3,0.19-1.96    C118.4,163.371,118.34,162.721,118.21,162.071z" fill="#3a506b" data-original="#000000" style="" class=""/>
	</g>
</g>
<g xmlns="http://www.w3.org/2000/svg">
	<g>
		<path d="M413.399,162.071c-0.129-0.64-0.319-1.27-0.569-1.87c-0.25-0.6-0.561-1.18-0.92-1.73c-0.36-0.54-0.78-1.06-1.24-1.52    c-0.47-0.46-0.98-0.88-1.52-1.24c-0.55-0.36-1.13-0.67-1.73-0.92c-0.601-0.25-1.23-0.44-1.87-0.57c-1.29-0.26-2.62-0.26-3.91,0    c-0.64,0.13-1.27,0.32-1.87,0.57c-0.6,0.25-1.189,0.56-1.729,0.92c-0.55,0.36-1.061,0.78-1.521,1.24    c-0.46,0.46-0.88,0.98-1.239,1.52c-0.36,0.55-0.671,1.13-0.921,1.73c-0.25,0.6-0.44,1.23-0.569,1.87c-0.13,0.65-0.2,1.3-0.2,1.95    c0,0.66,0.07,1.31,0.2,1.96c0.13,0.64,0.319,1.27,0.569,1.87c0.25,0.6,0.56,1.18,0.921,1.73c0.359,0.54,0.779,1.059,1.239,1.52    c0.46,0.46,0.971,0.88,1.521,1.24c0.54,0.36,1.13,0.67,1.729,0.92c0.601,0.25,1.23,0.44,1.87,0.57c0.641,0.13,1.3,0.2,1.95,0.2    c0.66,0,1.31-0.07,1.96-0.2c0.64-0.13,1.27-0.32,1.87-0.57c0.6-0.25,1.18-0.56,1.73-0.92c0.54-0.36,1.051-0.78,1.52-1.24    c0.46-0.461,0.88-0.98,1.24-1.52c0.359-0.55,0.67-1.13,0.92-1.73s0.439-1.23,0.569-1.87c0.131-0.65,0.2-1.3,0.2-1.96    C413.599,163.371,413.53,162.721,413.399,162.071z" fill="#3a506b" data-original="#000000" style="" class=""/>
	</g>
</g>















</g>
</svg>
