<?xml version="1.0" encoding="UTF-8"?>
<svg xmlns="http://www.w3.org/2000/svg" xmlns:xlink="http://www.w3.org/1999/xlink" xmlns:svgjs="http://svgjs.com/svgjs" version="1.1" width="512" height="512" x="0" y="0" viewBox="0 0 511.998 511.998" style="enable-background:new 0 0 512 512" xml:space="preserve" class="">
  <g>
<g xmlns="http://www.w3.org/2000/svg">
	<g>
		<path d="M504.228,236.87l-78.527-76.178V66.398c0-5.523-4.477-10-10-10h-41.668c-5.523,0-10,4.477-10,10v34.471L262.962,2.822    c-3.879-3.763-10.047-3.763-13.926,0L7.77,236.87c-2.225,2.159-3.324,5.227-2.973,8.308s2.11,5.824,4.764,7.428l33.017,19.955    c3.899,2.357,8.899,1.779,12.16-1.405l15.086-14.735v245.577c0,5.523,4.477,10,10,10h352.351c5.523,0,10-4.477,10-10V256.421    l15.086,14.735c1.92,1.876,4.443,2.846,6.99,2.846c1.777,0,3.567-0.473,5.169-1.441l33.017-19.955    c2.653-1.604,4.413-4.348,4.764-7.428C507.552,242.097,506.453,239.029,504.228,236.87z M384.033,76.398h21.668v64.892    l-1.602-1.554l-20.066-19.466V76.398z M422.174,491.998H89.824v-255.11l75.412-73.656h96.703c5.523,0,10-4.477,10-10    s-4.477-10-10-10h-76.226L256,74.582L371.241,187.14h-166.74c-5.523,0-10,4.477-10,10c0,5.523,4.477,10,10,10h187.216    l30.457,29.748V491.998z M465.699,251.441L262.986,53.45c-0.486-0.474-1.008-0.889-1.557-1.245    c-1.647-1.067-3.539-1.601-5.431-1.601c-1.892,0-3.783,0.534-5.431,1.601c-0.549,0.356-1.071,0.771-1.557,1.245L46.299,251.441    l-15.296-9.244L255.999,23.932l224.996,218.265L465.699,251.441z" fill="#3a506b" data-original="#000000" style="" class=""/>
	</g>
</g>
<g xmlns="http://www.w3.org/2000/svg">
	<g>
		<path d="M306.869,151.279c-0.13-0.64-0.32-1.27-0.57-1.87s-0.56-1.19-0.92-1.73c-0.36-0.55-0.78-1.06-1.24-1.52    c-0.46-0.46-0.97-0.88-1.52-1.24c-0.54-0.36-1.12-0.67-1.73-0.92c-0.6-0.25-1.23-0.44-1.87-0.57c-1.29-0.26-2.62-0.26-3.91,0    c-0.63,0.13-1.26,0.32-1.87,0.57c-0.6,0.25-1.18,0.56-1.72,0.92c-0.55,0.36-1.06,0.78-1.52,1.24c-0.46,0.46-0.88,0.97-1.25,1.52    c-0.36,0.54-0.67,1.13-0.92,1.73c-0.25,0.6-0.44,1.23-0.57,1.87s-0.19,1.3-0.19,1.95c0,0.66,0.06,1.31,0.19,1.96    c0.13,0.63,0.32,1.26,0.57,1.87c0.25,0.6,0.56,1.18,0.92,1.72c0.37,0.55,0.79,1.06,1.25,1.52c0.46,0.47,0.97,0.88,1.52,1.25    c0.54,0.36,1.12,0.67,1.72,0.92c0.61,0.25,1.24,0.44,1.87,0.57c0.65,0.13,1.31,0.19,1.96,0.19c0.65,0,1.31-0.06,1.95-0.19    s1.27-0.32,1.87-0.57c0.61-0.25,1.19-0.56,1.73-0.92c0.55-0.37,1.06-0.78,1.52-1.25c0.46-0.46,0.88-0.97,1.24-1.52    c0.36-0.54,0.67-1.12,0.92-1.72c0.25-0.61,0.44-1.24,0.57-1.87c0.13-0.65,0.2-1.3,0.2-1.96    C307.069,152.579,306.999,151.919,306.869,151.279z" fill="#3a506b" data-original="#000000" style="" class=""/>
	</g>
</g>
<g xmlns="http://www.w3.org/2000/svg">
	<g>
		<path d="M179.18,195.189c-0.13-0.64-0.32-1.27-0.57-1.87c-0.25-0.61-0.56-1.19-0.92-1.73c-0.37-0.55-0.78-1.06-1.24-1.52    c-1.87-1.86-4.44-2.93-7.07-2.93c-2.64,0-5.22,1.07-7.08,2.93c-0.46,0.46-0.88,0.97-1.24,1.52c-0.36,0.54-0.671,1.12-0.921,1.73    c-0.25,0.6-0.44,1.23-0.57,1.87c-0.13,0.64-0.2,1.3-0.2,1.95c0,0.65,0.07,1.31,0.2,1.96c0.13,0.63,0.32,1.26,0.57,1.87    c0.25,0.6,0.56,1.18,0.921,1.72c0.36,0.55,0.78,1.06,1.24,1.52c0.46,0.46,0.98,0.88,1.52,1.25c0.55,0.36,1.13,0.66,1.73,0.91    c0.6,0.25,1.23,0.45,1.87,0.58c0.65,0.13,1.3,0.19,1.96,0.19c2.63,0,5.2-1.07,7.07-2.93c0.46-0.46,0.87-0.97,1.24-1.52    c0.36-0.54,0.67-1.12,0.92-1.72c0.25-0.61,0.44-1.24,0.57-1.87c0.13-0.65,0.2-1.31,0.2-1.96    C179.38,196.489,179.31,195.83,179.18,195.189z" fill="#3a506b" data-original="#000000" style="" class=""/>
	</g>
</g>
<g xmlns="http://www.w3.org/2000/svg">
	<g>
		<path d="M357.233,253.959c-2.867-1.839-6.474-2.091-9.57-0.671c-7.595,3.486-15.718,5.253-24.141,5.253    c-19.886,0-38.157-10.038-48.877-26.852c-1.836-2.88-5.016-4.624-8.432-4.624h-20.428c-3.416,0-6.596,1.744-8.432,4.624    c-10.72,16.814-28.992,26.852-48.877,26.852c-8.424,0-16.546-1.768-24.141-5.253c-3.096-1.42-6.702-1.169-9.57,0.671    c-2.867,1.839-4.602,5.011-4.602,8.417v109.675c0,25.436,17.499,51.142,52.011,76.403c24.509,17.94,48.671,28.996,49.688,29.458    c1.314,0.597,2.725,0.896,4.136,0.896s2.822-0.298,4.136-0.896c1.017-0.462,25.179-11.518,49.688-29.458    c34.512-25.262,52.011-50.967,52.011-76.403V262.376C361.834,258.97,360.101,255.798,357.233,253.959z M341.835,372.052    L341.835,372.052c-0.001,36.34-58.485,72.379-85.841,85.702c-27.359-13.299-85.831-49.292-85.831-85.702v-95.669    c5.95,1.436,12.071,2.159,18.312,2.159c24.876,0,47.869-11.667,62.559-31.476h9.929c14.69,19.809,37.683,31.476,62.559,31.476    c6.241,0,12.362-0.723,18.313-2.159V372.052z" fill="#3a506b" data-original="#000000" style="" class=""/>
	</g>
</g>
<g xmlns="http://www.w3.org/2000/svg">
	<g>
		<path d="M312.799,298.076c-18.561-2.012-36.037-9.229-50.54-20.872c-3.657-2.936-8.863-2.936-12.521,0    c-14.503,11.643-31.979,18.86-50.54,20.872c-5.076,0.55-8.922,4.836-8.922,9.942v64.034c0,11.072,12.946,27.269,34.631,43.328    c7.824,5.794,16.621,11.481,26.147,16.903c1.533,0.873,3.24,1.309,4.946,1.309s3.413-0.437,4.947-1.31    c9.126-5.195,17.599-10.644,25.182-16.195c22.286-16.313,35.591-32.774,35.591-44.035v-64.034    C321.722,302.912,317.875,298.626,312.799,298.076z M301.722,371.59L301.722,371.59c-0.816,2.926-7.247,13.604-27.404,28.358    c-5.592,4.093-11.735,8.14-18.317,12.069c-6.933-4.137-13.37-8.4-19.191-12.71c-19.477-14.424-25.726-24.855-26.534-27.725    v-54.935c16.461-3.064,32.022-9.581,45.723-19.155c13.701,9.573,29.262,16.09,45.723,19.155V371.59z" fill="#3a506b" data-original="#000000" style="" class=""/>
	</g>
</g>















</g>
</svg>
