<?xml version="1.0" encoding="UTF-8"?>
<svg xmlns="http://www.w3.org/2000/svg" xmlns:xlink="http://www.w3.org/1999/xlink" xmlns:svgjs="http://svgjs.com/svgjs" version="1.1" width="512" height="512" x="0" y="0" viewBox="0 0 512 512" style="enable-background:new 0 0 512 512" xml:space="preserve" class="">
  <g>
<g xmlns="http://www.w3.org/2000/svg">
	<g>
		<path d="M334.887,132.076h-37.869V99.952c0-5.522-4.478-10-10-10h-50.638c-5.522,0-10,4.478-10,10v32.124H188.51    c-5.522,0-10,4.477-10,10v50.639c0,5.522,4.477,10,10,10h37.869v93.387c0,5.522,4.478,10,10,10h50.638c5.522,0,10-4.478,10-10    v-93.387h37.869c5.523,0,10-4.477,10-10v-50.639C344.887,136.553,340.41,132.076,334.887,132.076z M324.887,182.715h-37.869    c-5.523,0-10,4.478-10,10v93.387h-30.638v-93.387c0-5.522-4.478-10-10-10H198.51v-30.639h37.869c5.522,0,10-4.478,10-10v-32.124    h30.638v32.124c0,5.522,4.477,10,10,10h37.869V182.715z" fill="#3a506b" data-original="#000000" style="" class=""/>
	</g>
</g>
<g xmlns="http://www.w3.org/2000/svg">
	<g>
		<path d="M392.218,427.662c-0.46-0.46-0.97-0.881-1.52-1.24c-0.54-0.36-1.131-0.67-1.73-0.92s-1.229-0.44-1.87-0.57    c-3.25-0.65-6.7,0.41-9.02,2.73c-0.471,0.46-0.88,0.979-1.25,1.52c-0.36,0.55-0.67,1.13-0.92,1.73    c-0.25,0.6-0.44,1.229-0.57,1.869c-0.13,0.65-0.19,1.301-0.19,1.95c0,0.66,0.061,1.311,0.19,1.96    c0.132,0.639,0.322,1.269,0.572,1.869c0.25,0.601,0.56,1.181,0.92,1.73c0.37,0.54,0.79,1.05,1.25,1.52    c1.859,1.86,4.43,2.92,7.069,2.92c0.65,0,1.311-0.06,1.95-0.189c0.641-0.13,1.27-0.32,1.87-0.57c0.6-0.25,1.19-0.56,1.73-0.92    c0.55-0.37,1.06-0.78,1.52-1.24c0.46-0.47,0.88-0.979,1.24-1.52c0.359-0.55,0.67-1.13,0.92-1.73c0.25-0.6,0.439-1.229,0.57-1.87    c0.13-0.65,0.199-1.3,0.199-1.96C395.148,432.101,394.079,429.531,392.218,427.662z" fill="#3a506b" data-original="#000000" style="" class=""/>
	</g>
</g>
<g xmlns="http://www.w3.org/2000/svg">
	<g>
		<path d="M133.809,52.3c-0.13-0.64-0.319-1.27-0.569-1.87s-0.561-1.18-0.921-1.729c-0.369-0.54-0.789-1.061-1.25-1.521    c-0.46-0.46-0.97-0.87-1.52-1.24c-0.54-0.359-1.12-0.67-1.72-0.92c-0.61-0.25-1.24-0.439-1.87-0.569    c-1.29-0.261-2.62-0.261-3.91,0c-0.64,0.13-1.27,0.319-1.87,0.569c-0.61,0.25-1.19,0.561-1.729,0.92    c-0.551,0.37-1.061,0.78-1.521,1.24s-0.88,0.98-1.24,1.521c-0.359,0.55-0.67,1.13-0.92,1.729c-0.25,0.601-0.439,1.23-0.569,1.87    c-0.131,0.65-0.2,1.3-0.2,1.96c0,0.65,0.069,1.3,0.2,1.95c0.129,0.64,0.319,1.269,0.569,1.87c0.25,0.6,0.561,1.18,0.92,1.729    c0.36,0.54,0.78,1.05,1.24,1.521c0.46,0.46,0.97,0.87,1.521,1.239c0.54,0.36,1.119,0.671,1.729,0.921    c0.601,0.25,1.23,0.439,1.87,0.569c0.64,0.13,1.3,0.2,1.95,0.2c0.649,0,1.31-0.07,1.96-0.2c0.63-0.13,1.26-0.319,1.87-0.569    c0.6-0.25,1.18-0.561,1.72-0.921c0.55-0.369,1.06-0.779,1.52-1.239c0.461-0.471,0.881-0.98,1.25-1.521    c0.36-0.55,0.671-1.13,0.921-1.729c0.25-0.601,0.439-1.23,0.569-1.87c0.13-0.65,0.19-1.3,0.19-1.95    C133.999,53.6,133.939,52.95,133.809,52.3z" fill="#3a506b" data-original="#000000" style="" class=""/>
	</g>
</g>
<g xmlns="http://www.w3.org/2000/svg">
	<g>
		<path d="M454.545,0h-76.559H112.224c-6.045,0-12.058,0.848-17.863,2.517c-27.617,7.911-46.906,33.51-46.906,62.253v382.46    c0,28.743,19.289,54.342,46.897,62.25c5.814,1.672,11.827,2.52,17.872,2.52h342.32c5.523,0,10-4.478,10-10v-38    c0-5.521-4.475-9.998-9.996-10v-39c5.521-0.002,9.996-4.479,9.996-10V212.67V10C464.545,4.477,460.066,0,454.545,0z M444.545,395    H134.001V89.284c0-5.522-4.478-10-10-10c-5.522,0-10,4.478-10,10V397.17c-5.574,1.929-10.684,5.105-14.979,9.399    c-6.491,6.491-10.441,14.844-11.358,23.854c-0.002,0.016-0.004,0.032-0.006,0.048c-0.058,0.575-0.099,1.153-0.132,1.733    c-0.005,0.095-0.016,0.188-0.021,0.283c-0.033,0.668-0.051,1.339-0.051,2.013c0,21.78,17.72,39.5,39.5,39.5h317.59v18h-332.32    c-4.175,0-8.329-0.586-12.355-1.743c-19.085-5.467-32.414-23.16-32.414-43.026V64.77c0-19.866,13.329-37.56,32.423-43.029    c4.018-1.154,8.172-1.74,12.347-1.74h255.761v192.67c0,3.531,1.862,6.801,4.9,8.602c3.038,1.802,6.801,1.865,9.898,0.172    l33.48-18.314l28.28,15.469V395z M350.117,424.734H110.103c2.745-4.717,7.395-8.194,12.903-9.331    c0.009-0.002,0.017-0.005,0.026-0.007c0.548-0.112,1.108-0.191,1.671-0.256c0.093-0.011,0.183-0.031,0.276-0.041    c0.65-0.066,1.309-0.1,1.976-0.1h307.594V454H126.954c-6.996,0-13.126-3.716-16.567-9.266h239.73c5.522,0,10-4.478,10-10    C360.117,429.212,355.639,424.734,350.117,424.734z M444.545,195.802l-23.481-12.845c-1.495-0.817-3.147-1.227-4.799-1.227    c-1.652,0-3.304,0.409-4.799,1.227l-23.48,12.845V20h56.559V195.802z" fill="#3a506b" data-original="#000000" style="" class=""/>
	</g>
</g>















</g>
</svg>
