<?xml version="1.0" encoding="UTF-8"?>
<svg xmlns="http://www.w3.org/2000/svg" xmlns:xlink="http://www.w3.org/1999/xlink" xmlns:svgjs="http://svgjs.com/svgjs" version="1.1" width="512" height="512" x="0" y="0" viewBox="0 0 512 512" style="enable-background:new 0 0 512 512" xml:space="preserve" class="">
  <g>
<g xmlns="http://www.w3.org/2000/svg">
	<g>
		<path d="M367.239,177.252c-0.131-0.641-0.32-1.27-0.57-1.87c-0.25-0.61-0.56-1.19-0.92-1.73c-0.36-0.55-0.78-1.06-1.24-1.52    c-0.46-0.46-0.979-0.88-1.52-1.24c-0.551-0.359-1.131-0.67-1.73-0.92s-1.229-0.439-1.87-0.57c-1.29-0.26-2.62-0.26-3.91,0    c-0.64,0.131-1.27,0.32-1.87,0.57c-0.6,0.25-1.18,0.561-1.73,0.92c-0.54,0.36-1.061,0.78-1.52,1.24    c-0.46,0.46-0.88,0.97-1.239,1.52c-0.36,0.54-0.67,1.12-0.92,1.73c-0.25,0.6-0.44,1.23-0.57,1.87s-0.19,1.3-0.19,1.95    c0,0.659,0.061,1.31,0.19,1.96c0.128,0.63,0.319,1.26,0.569,1.87c0.25,0.6,0.56,1.18,0.92,1.72c0.359,0.55,0.779,1.06,1.239,1.52    c0.46,0.46,0.98,0.88,1.52,1.25c0.55,0.36,1.13,0.67,1.73,0.92c0.601,0.25,1.23,0.44,1.87,0.57c0.65,0.13,1.301,0.19,1.96,0.19    c2.63,0,5.21-1.07,7.07-2.931c1.86-1.859,2.93-4.43,2.93-7.069C367.438,178.552,367.369,177.891,367.239,177.252z" fill="#3a506b" data-original="#000000" style="" class=""/>
	</g>
</g>
<g xmlns="http://www.w3.org/2000/svg">
	<g>
		<path d="M467.011,400.918h-22.525V244.173l14.459,15.85c3.217,3.527,8.477,4.287,12.56,1.819l32.784-19.814    c2.581-1.561,4.321-4.203,4.733-7.191s-0.547-6.004-2.609-8.205L316.64,24.11c-1.891-2.018-4.532-3.162-7.297-3.162    c-2.765,0-5.406,1.144-7.297,3.162l-189.773,202.52c-2.063,2.201-3.021,5.217-2.609,8.205c0.413,2.988,2.152,5.631,4.734,7.191    l32.783,19.814c1.606,0.971,3.395,1.441,5.168,1.441c2.737,0,5.441-1.121,7.392-3.261l14.459-15.85v37.314h-37.815H93.696H10    c-5.523,0-10,4.478-10,10v155.525c0,5.522,4.477,10,10,10h83.696c5.523,0,10-4.478,10-10v-14.078h32.689    c4.99,0,9.114-3.659,9.866-8.437l33.39,43.479c11.098,14.451,28.602,23.079,46.823,23.079h240.549    c24.807,0,44.988-20.182,44.988-44.988v-0.159C512,421.099,491.818,400.918,467.011,400.918z M83.696,422.933v14.078H20V301.486    h63.697V422.933z M126.385,412.933h-22.689V301.486h22.689V412.933z M150.5,240.477l-15.19-9.181L309.343,45.573l174.035,185.724    l-15.19,9.181L316.731,74.455c-1.895-2.077-4.576-3.261-7.388-3.261c-2.812,0-5.493,1.184-7.388,3.261L176.812,211.634    L150.5,240.477z M309.344,270.185c-18.636,0-36.055,7.234-49.066,20.117c-9.549-5.741-20.504-8.816-31.914-8.816H194.2v-59.238    l30.146-33.045h98.209c5.522,0,10-4.477,10-10c0-5.522-4.478-10-10-10h-79.964l66.753-73.172l115.143,126.217v178.669h-45.233    v-60.823C379.254,301.546,347.892,270.185,309.344,270.185z M339.264,366.177c-0.044-0.057-0.089-0.113-0.133-0.17    c-0.459-0.59-0.935-1.17-1.427-1.739c-0.12-0.139-0.238-0.279-0.36-0.417c-0.561-0.631-1.136-1.254-1.739-1.857l-59.812-58.855    c9.112-8.317,20.943-12.955,33.55-12.955c27.521,0,49.91,22.39,49.91,49.91v60.823h-12.431c0.694-3.036,1.061-6.169,1.061-9.362    C347.883,382.269,344.861,373.453,339.264,366.177z M467.012,471.054h-240.55c-12.048,0-23.622-5.705-30.961-15.261    l-49.118-63.959v-90.349h37.815h44.164c9.941,0,19.371,3.443,26.921,9.747c0.034,0.029,0.063,0.061,0.097,0.09    c0.469,0.392,0.901,0.768,1.307,1.133c0.402,0.367,0.804,0.735,1.194,1.119l63.638,62.62c0.077,0.077,0.142,0.161,0.217,0.239    c0.407,0.419,0.803,0.846,1.171,1.291c0.265,0.321,0.503,0.657,0.747,0.99c0.153,0.208,0.316,0.409,0.462,0.621    c0.287,0.423,0.548,0.858,0.803,1.297c0.076,0.13,0.159,0.256,0.232,0.387c0.267,0.482,0.508,0.974,0.736,1.472    c0.043,0.095,0.091,0.187,0.134,0.282c0.226,0.512,0.426,1.033,0.611,1.559c0.032,0.091,0.066,0.18,0.097,0.271    c0.175,0.52,0.326,1.046,0.461,1.576c0.029,0.112,0.057,0.224,0.084,0.336c0.121,0.509,0.222,1.022,0.306,1.537    c0.025,0.152,0.046,0.306,0.068,0.458c0.069,0.485,0.123,0.972,0.159,1.46c0.014,0.198,0.02,0.397,0.029,0.596    c0.021,0.462,0.037,0.926,0.029,1.389c-0.004,0.199-0.02,0.396-0.029,0.594c-0.021,0.479-0.044,0.957-0.097,1.434    c-0.006,0.056-0.018,0.111-0.025,0.167c-0.217,1.829-0.666,3.637-1.352,5.378c-0.014,0.036-0.025,0.074-0.04,0.11    c-0.185,0.462-0.401,0.913-0.619,1.364c-0.081,0.168-0.154,0.339-0.24,0.505c-0.203,0.394-0.433,0.777-0.662,1.161    c-0.126,0.21-0.245,0.423-0.379,0.63c-0.231,0.358-0.484,0.706-0.738,1.053c-0.174,0.238-0.344,0.478-0.528,0.71    c-0.144,0.181-0.29,0.357-0.438,0.532c-0.394,0.464-0.797,0.922-1.232,1.357l-0.067,0.068c-8.472,8.471-22.253,8.47-30.723,0    l-41.6-41.601c-3.906-3.903-10.237-3.903-14.142,0c-0.732,0.732-1.327,1.55-1.785,2.421c-1.983,3.774-1.389,8.549,1.784,11.722    l41.6,41.601c0.508,0.508,1.026,1,1.554,1.477c0.277,0.25,0.564,0.484,0.846,0.726c0.255,0.218,0.505,0.444,0.764,0.655    c0.356,0.29,0.721,0.563,1.085,0.84c0.193,0.147,0.382,0.303,0.577,0.447c0.425,0.312,0.859,0.606,1.292,0.9    c0.14,0.095,0.277,0.198,0.418,0.291c0.406,0.267,0.82,0.517,1.233,0.77c0.175,0.107,0.346,0.222,0.523,0.326    c0.413,0.244,0.834,0.47,1.254,0.698c0.182,0.099,0.36,0.206,0.543,0.302c0.576,0.302,1.158,0.588,1.744,0.861    c0.03,0.014,0.059,0.03,0.088,0.044c15.436,7.152,34.382,4.367,47.12-8.371l0.068-0.068c0.047-0.047,0.093-0.094,0.14-0.141    h33.451h65.232h32.525c13.778,0,24.988,11.21,24.988,24.989v0.16H492C492,459.844,480.79,471.054,467.012,471.054z" fill="#3a506b" data-original="#000000" style="" class=""/>
	</g>
</g>
<g xmlns="http://www.w3.org/2000/svg">
	<g>
		<path d="M222.659,338.981c-0.46-0.461-0.97-0.881-1.52-1.24c-0.54-0.36-1.12-0.671-1.73-0.921c-0.6-0.25-1.23-0.439-1.87-0.569    c-3.24-0.66-6.7,0.41-9.02,2.729c-1.86,1.86-2.93,4.44-2.93,7.07c0,0.65,0.07,1.31,0.2,1.96c0.12,0.63,0.32,1.26,0.57,1.87    c0.25,0.6,0.56,1.18,0.92,1.72c0.36,0.55,0.78,1.061,1.24,1.521c1.86,1.87,4.44,2.93,7.07,2.93c0.65,0,1.31-0.06,1.95-0.19    c0.64-0.13,1.27-0.319,1.87-0.569c0.61-0.25,1.19-0.56,1.73-0.92c0.55-0.37,1.06-0.79,1.52-1.25c0.46-0.46,0.88-0.971,1.24-1.521    c0.37-0.54,0.67-1.12,0.92-1.72c0.25-0.61,0.45-1.24,0.58-1.87c0.12-0.65,0.19-1.31,0.19-1.96    C225.589,343.421,224.519,340.841,222.659,338.981z" fill="#3a506b" data-original="#000000" style="" class=""/>
	</g>
</g>















</g>
</svg>
