<?xml version="1.0" encoding="UTF-8"?>
<svg xmlns="http://www.w3.org/2000/svg" xmlns:xlink="http://www.w3.org/1999/xlink" xmlns:svgjs="http://svgjs.com/svgjs" version="1.1" width="512" height="512" x="0" y="0" viewBox="0 0 512 512" style="enable-background:new 0 0 512 512" xml:space="preserve" class="">
  <g>
<g xmlns="http://www.w3.org/2000/svg">
	<g>
		<path d="M502,25.579H10c-5.523,0-10,4.478-10,10v38.622v293.623v108.597c0,5.522,4.477,10,10,10h492c5.522,0,10-4.478,10-10    V367.824V74.201V35.579C512,30.057,507.522,25.579,502,25.579z M492,466.421H20v-88.597h472V466.421z M492,357.824H20V84.201h472    V357.824z M492,64.201H20V45.579h472V64.201z" fill="#3a506b" data-original="#000000" style="" class=""/>
	</g>
</g>
<g xmlns="http://www.w3.org/2000/svg">
	<g>
		<path d="M346.616,388.903c-18.464,0-33.485,15.021-33.485,33.484c0,18.464,15.021,33.485,33.485,33.485    c18.463,0,33.484-15.022,33.484-33.485C380.1,403.924,365.079,388.903,346.616,388.903z M346.616,435.871    c-7.436,0-13.485-6.05-13.485-13.485s6.05-13.484,13.485-13.484c7.436,0,13.484,6.049,13.484,13.484    C360.1,429.822,354.051,435.871,346.616,435.871z" fill="#3a506b" data-original="#000000" style="" class=""/>
	</g>
</g>
<g xmlns="http://www.w3.org/2000/svg">
	<g>
		<path d="M426.197,388.903c-18.464,0-33.485,15.021-33.485,33.484c0,18.464,15.021,33.485,33.485,33.485    c18.463,0,33.484-15.022,33.484-33.485C459.681,403.924,444.66,388.903,426.197,388.903z M426.197,435.871    c-7.436,0-13.485-6.05-13.485-13.485s6.05-13.484,13.485-13.484c7.436,0,13.484,6.049,13.484,13.484    C439.681,429.822,433.632,435.871,426.197,435.871z" fill="#3a506b" data-original="#000000" style="" class=""/>
	</g>
</g>
<g xmlns="http://www.w3.org/2000/svg">
	<g>
		<path d="M280.489,422.43c-0.131-0.64-0.32-1.27-0.57-1.87c-0.25-0.6-0.56-1.18-0.92-1.729c-0.36-0.54-0.78-1.051-1.24-1.521    c-0.46-0.46-0.979-0.87-1.52-1.24c-0.551-0.359-1.131-0.67-1.73-0.92s-1.229-0.439-1.87-0.569c-1.29-0.261-2.62-0.261-3.91,0    c-0.64,0.13-1.26,0.319-1.87,0.569c-0.6,0.25-1.18,0.561-1.72,0.92c-0.55,0.37-1.07,0.78-1.53,1.24    c-0.46,0.47-0.88,0.98-1.239,1.521c-0.36,0.55-0.67,1.13-0.92,1.729c-0.25,0.601-0.44,1.23-0.57,1.87    c-0.13,0.65-0.19,1.3-0.19,1.96c0,0.65,0.06,1.311,0.19,1.95c0.13,0.639,0.32,1.269,0.57,1.87c0.25,0.6,0.56,1.189,0.92,1.73    c0.359,0.54,0.779,1.06,1.239,1.52c0.46,0.46,0.98,0.88,1.53,1.24c0.54,0.359,1.12,0.67,1.72,0.92c0.61,0.25,1.23,0.44,1.87,0.569    c0.65,0.13,1.301,0.2,1.96,0.2c0.65,0,1.301-0.07,1.95-0.2c0.641-0.13,1.271-0.319,1.87-0.569s1.18-0.56,1.73-0.92    c0.54-0.36,1.06-0.78,1.52-1.24c0.46-0.46,0.88-0.98,1.24-1.52c0.359-0.55,0.67-1.13,0.92-1.73c0.25-0.601,0.44-1.23,0.57-1.87    s0.189-1.3,0.189-1.95C280.678,423.73,280.618,423.081,280.489,422.43z" fill="#3a506b" data-original="#000000" style="" class=""/>
	</g>
</g>
<g xmlns="http://www.w3.org/2000/svg">
	<g>
		<path d="M236.198,414.386H70.846c-5.523,0-10,4.478-10,10c0,5.522,4.477,10,10,10h165.352c5.523,0,10-4.478,10-10    C246.198,418.864,241.721,414.386,236.198,414.386z" fill="#3a506b" data-original="#000000" style="" class=""/>
	</g>
</g>
<g xmlns="http://www.w3.org/2000/svg">
	<g>
		<path d="M405.584,179.9c-1.113-23.231-9.962-45.093-24.916-61.56c-15.449-17.012-35.715-26.381-57.065-26.381    c-30.387,0-55.524,17.64-67.454,27.77c-11.627-10.22-36.19-27.77-67.75-27.77c-21.349,0-41.614,9.369-57.064,26.381    c-14.954,16.467-23.804,38.329-24.916,61.561c-0.659,13.778,1.034,26.618,5.176,39.255c0.004,0.012,0.009,0.023,0.013,0.035    c2.766,8.428,6.656,16.841,11.894,25.72c20.316,34.441,116.301,97.424,127.179,104.491c1.656,1.077,3.552,1.615,5.448,1.615    c1.895,0,3.79-0.538,5.446-1.613c10.839-7.039,106.486-69.771,126.931-104.501c8.233-13.987,13.183-26.825,15.575-40.401    C405.499,196.45,405.991,188.403,405.584,179.9z M371.269,234.756c-14.394,24.452-83.448,73.3-115.14,94.299    c-31.798-21.071-101.097-70.057-115.401-94.307c-1.753-2.97-3.324-5.864-4.726-8.708h18.224c5.759,0,7.692-3.128,12.364-10.684    c1.969-3.184,4.667-7.611,8.021-13.161c0.893-1.479,1.785-2.958,2.655-4.401l7.306,13.846c1.787,3.623,5.463,6.094,9.486,6.389    c0.268,0.02,0.538,0.029,0.809,0.029h27.317l21.72,40.339c1.619,3.697,5.116,6.121,9.166,6.195    c0.063,0.001,0.127,0.001,0.19,0.001c0.115,0,0.228-0.01,0.342-0.014c0.123-0.004,0.246-0.006,0.368-0.015    c0.195-0.014,0.389-0.036,0.581-0.061c0.065-0.008,0.131-0.014,0.196-0.023c3.49-0.513,6.45-2.81,7.897-6.159    c0.003-0.006,0.006-0.012,0.009-0.018c0.098-0.229,0.187-0.464,0.271-0.702c0.011-0.032,0.025-0.061,0.036-0.092l16.08-43.609    l5.849,9.172c2.053,3.517,5.888,5.747,9.994,5.747h29.238c4.702,0,8.957-2.986,10.597-7.348l12.258-29.792    c1.726,3.918,3.156,7.129,4.265,9.573c0.809,1.784,1.497,3.271,2,4.312c0.952,1.97,3.48,7.201,9.851,7.201h18.355    C379.119,219.901,375.782,227.089,371.269,234.756z M385.439,192.766H369.35c-2.981-6.596-8.231-18.589-13.019-29.686    c-1.472-4.021-5.095-6.712-9.345-6.819c-4.411-0.102-8.297,2.596-9.865,6.807l-18.824,45.753H299.52l-13.872-21.756    c-1.949-3.321-5.45-5.282-9.215-5.176c-0.198,0.005-0.393-0.01-0.592,0.007c-3.462,0.292-6.442,2.307-8.113,5.306    c-0.064,0.114-0.141,0.216-0.201,0.333c-0.011,0.021-0.017,0.045-0.028,0.066c-0.219,0.436-0.416,0.889-0.578,1.362l-15.32,41.544    l-13.875-25.769c-1.791-3.96-5.851-6.679-10.276-6.679h-27.431l-12.952-24.546c-0.235-0.483-0.502-0.942-0.795-1.374    c-1.907-2.807-4.981-4.498-8.354-4.533c-0.26-0.003-0.521,0.005-0.784,0.022c-3.773,0.239-6.977,2.469-8.599,5.845    c-6.496,10.874-15.341,25.554-19.698,32.568h-20.188c-1.935-8.094-2.674-16.395-2.254-25.185    c1.82-37.99,29.635-68.897,62.004-68.897c34.437,0,59.893,27.904,60.13,28.167c1.858,2.092,4.516,3.301,7.314,3.348    c2.796,0.045,5.494-1.09,7.422-3.117c0.27-0.284,27.371-28.397,60.338-28.397c32.369,0,60.184,30.907,62.004,68.896    C385.802,184.939,385.748,188.883,385.439,192.766z" fill="#3a506b" data-original="#000000" style="" class=""/>
	</g>
</g>















</g>
</svg>
