<?xml version="1.0" encoding="UTF-8"?>
<svg xmlns="http://www.w3.org/2000/svg" xmlns:xlink="http://www.w3.org/1999/xlink" xmlns:svgjs="http://svgjs.com/svgjs" version="1.1" width="512" height="512" x="0" y="0" viewBox="0 0 512 512" style="enable-background:new 0 0 512 512" xml:space="preserve" class="">
  <g>
<g xmlns="http://www.w3.org/2000/svg">
	<g>
		<path d="M276,60h-10V50c0-5.522-4.478-10-10-10c-5.522,0-10,4.478-10,10v10h-10c-5.522,0-10,4.478-10,10c0,5.522,4.478,10,10,10    h10v10c0,5.522,4.478,10,10,10c5.522,0,10-4.478,10-10V80h10c5.522,0,10-4.478,10-10C286,64.478,281.522,60,276,60z" fill="#3a506b" data-original="#000000" style=""/>
	</g>
</g>
<g xmlns="http://www.w3.org/2000/svg">
	<g>
		<path d="M136,160H76c-5.522,0-10,4.478-10,10v60c0,5.522,4.478,10,10,10h60c5.522,0,10-4.478,10-10v-60    C146,164.478,141.522,160,136,160z M126,220H86v-40h40V220z" fill="#3a506b" data-original="#000000" style=""/>
	</g>
</g>
<g xmlns="http://www.w3.org/2000/svg">
	<g>
		<path d="M236,160h-60c-5.522,0-10,4.478-10,10v60c0,5.522,4.478,10,10,10h60c5.522,0,10-4.478,10-10v-60    C246,164.478,241.522,160,236,160z M226,220h-40v-40h40V220z" fill="#3a506b" data-original="#000000" style=""/>
	</g>
</g>
<g xmlns="http://www.w3.org/2000/svg">
	<g>
		<path d="M336,160h-60c-5.522,0-10,4.478-10,10v60c0,5.522,4.478,10,10,10h60c5.522,0,10-4.478,10-10v-60    C346,164.478,341.522,160,336,160z M326,220h-40v-40h40V220z" fill="#3a506b" data-original="#000000" style=""/>
	</g>
</g>
<g xmlns="http://www.w3.org/2000/svg">
	<g>
		<path d="M436,160h-60c-5.522,0-10,4.478-10,10v60c0,5.522,4.478,10,10,10h60c5.522,0,10-4.478,10-10v-60    C446,164.478,441.522,160,436,160z M426,220h-40v-40h40V220z" fill="#3a506b" data-original="#000000" style=""/>
	</g>
</g>
<g xmlns="http://www.w3.org/2000/svg">
	<g>
		<path d="M136,260H76c-5.522,0-10,4.478-10,10v60c0,5.522,4.478,10,10,10h60c5.522,0,10-4.478,10-10v-60    C146,264.478,141.522,260,136,260z M126,320H86v-40h40V320z" fill="#3a506b" data-original="#000000" style=""/>
	</g>
</g>
<g xmlns="http://www.w3.org/2000/svg">
	<g>
		<path d="M136,360H76c-5.522,0-10,4.478-10,10v60c0,5.522,4.478,10,10,10h60c5.522,0,10-4.478,10-10v-60    C146,364.478,141.522,360,136,360z M126,420H86v-40h40V420z" fill="#3a506b" data-original="#000000" style=""/>
	</g>
</g>
<g xmlns="http://www.w3.org/2000/svg">
	<g>
		<path d="M436,360h-60c-5.522,0-10,4.478-10,10v60c0,5.522,4.478,10,10,10h60c5.522,0,10-4.478,10-10v-60    C446,364.478,441.522,360,436,360z M426,420h-40v-40h40V420z" fill="#3a506b" data-original="#000000" style=""/>
	</g>
</g>
<g xmlns="http://www.w3.org/2000/svg">
	<g>
		<path d="M236,260h-60c-5.522,0-10,4.478-10,10v60c0,5.522,4.478,10,10,10h60c5.522,0,10-4.478,10-10v-60    C246,264.478,241.522,260,236,260z M226,320h-40v-40h40V320z" fill="#3a506b" data-original="#000000" style=""/>
	</g>
</g>
<g xmlns="http://www.w3.org/2000/svg">
	<g>
		<path d="M336,260h-60c-5.522,0-10,4.478-10,10v60c0,5.522,4.478,10,10,10h60c5.522,0,10-4.478,10-10v-60    C346,264.478,341.522,260,336,260z M326,320h-40v-40h40V320z" fill="#3a506b" data-original="#000000" style=""/>
	</g>
</g>
<g xmlns="http://www.w3.org/2000/svg">
	<g>
		<path d="M436,260h-60c-5.522,0-10,4.478-10,10v60c0,5.522,4.478,10,10,10h60c5.522,0,10-4.478,10-10v-60    C446,264.478,441.522,260,436,260z M426,320h-40v-40h40V320z" fill="#3a506b" data-original="#000000" style=""/>
	</g>
</g>
<g xmlns="http://www.w3.org/2000/svg">
	<g>
		<path d="M502,59.929H326V10c0-5.522-4.478-10-10-10H196c-5.522,0-10,4.478-10,10v49.929H10c-5.522,0-10,4.478-10,10V502    c0,5.522,4.478,10,10,10h492c5.522,0,10-4.478,10-10V69.929C512,64.406,507.522,59.929,502,59.929z M206,20h100v100H206V20z     M246,492h-40V380h40V492z M306,492h-40V380h40V492z M492,100h-41.54c-5.521,0-10,4.49-10,10s4.479,10,10,10H492v372H326V370    c0-5.522-4.478-10-10-10H196c-5.522,0-10,4.478-10,10v122H20V120h41.54c5.52,0,10-4.49,10-10s-4.48-10-10-10H20V79.929h166V100    h-44.46c-5.51,0-10,4.49-10,10s4.49,10,10,10H186v10c0,5.522,4.478,10,10,10h120c5.522,0,10-4.478,10-10v-10h44.46    c5.51,0,10-4.49,10-10s-4.49-10-10-10H326V79.929h166V100z" fill="#3a506b" data-original="#000000" style=""/>
	</g>
</g>
<g xmlns="http://www.w3.org/2000/svg">
	<g>
		<path d="M101.54,100c-5.51,0-10,4.49-10,10s4.49,10,10,10c5.52,0,10-4.49,10-10S107.06,100,101.54,100z" fill="#3a506b" data-original="#000000" style=""/>
	</g>
</g>
<g xmlns="http://www.w3.org/2000/svg">
	<g>
		<path d="M410.46,100c-5.521,0-10,4.49-10,10s4.479,10,10,10c5.51,0,10-4.49,10-10S415.97,100,410.46,100z" fill="#3a506b" data-original="#000000" style=""/>
	</g>
</g>















</g>
</svg>
