<?xml version="1.0" encoding="UTF-8"?>
<svg xmlns="http://www.w3.org/2000/svg" xmlns:xlink="http://www.w3.org/1999/xlink" xmlns:svgjs="http://svgjs.com/svgjs" version="1.1" width="512" height="512" x="0" y="0" viewBox="0 0 512 512" style="enable-background:new 0 0 512 512" xml:space="preserve" class="">
  <g>
<g xmlns="http://www.w3.org/2000/svg">
	<g>
		<path d="M378.766,152.806H364.04c-3.038,0-5.911,1.381-7.809,3.753L334.03,184.31v-71.517c0-4.247-2.683-8.03-6.69-9.437    c-4.004-1.403-8.465-0.127-11.118,3.189l-37.008,46.26h-15.205c-3.038,0-5.911,1.381-7.809,3.753l-22.201,27.754v-71.524    c0-4.247-2.683-8.03-6.69-9.437c-4.007-1.405-8.467-0.126-11.118,3.19l-37.008,46.264h-6.628c1.512-9.8-0.204-19.257-5.143-27.468    c-8.065-13.412-21.556-21.826-36.085-22.508c-8.382-0.39-16.879,2.005-24.765,6.931c-7.884-4.923-16.323-7.315-24.762-6.931    c-14.53,0.682-28.02,9.096-36.084,22.508c-7.058,11.734-7.56,26.013-1.414,40.205c3.901,9.009,10.596,18.439,19.898,28.027    c14.531,14.979,31.119,25.944,31.82,26.405c3.141,2.063,6.787,3.153,10.544,3.153c3.759,0,7.405-1.091,10.54-3.151    c0.697-0.458,17.251-11.386,31.823-26.407c6.831-7.04,12.251-13.996,16.196-20.764h18.865c3.038,0,5.911-1.381,7.809-3.754    l22.201-27.754v71.524c0,4.247,2.683,8.03,6.69,9.437c1.084,0.38,2.202,0.564,3.308,0.564c2.98,0,5.876-1.335,7.811-3.754    l37.008-46.264h15.205c3.038,0,5.911-1.381,7.809-3.753L314.03,141.3v71.517c0,4.247,2.683,8.03,6.689,9.437    c4.008,1.404,8.467,0.128,11.119-3.189l37.008-46.259h9.92c5.522,0,10-4.478,10-10    C388.766,157.284,384.288,152.806,378.766,152.806z M150.473,157.593c-2.938,6.785-8.287,14.203-15.899,22.049    c-11.813,12.176-25.414,21.57-28.011,23.323c-2.633-1.77-16.072-11.021-28.008-23.323c-7.612-7.848-12.962-15.266-15.898-22.048    c-3.612-8.339-3.545-15.724,0.199-21.95c4.611-7.67,12.044-12.469,19.877-12.836c0.276-0.013,0.554-0.02,0.832-0.02    c5.184,0,10.688,2.229,15.927,6.452c0.218,0.175,0.431,0.352,0.64,0.526c3.726,3.13,9.161,3.124,12.879-0.012    c0.203-0.171,0.412-0.344,0.636-0.523c5.511-4.443,11.307-6.689,16.743-6.424c7.838,0.367,15.271,5.166,19.884,12.836    C154.017,141.869,154.085,149.254,150.473,157.593z" fill="#FFFFFF" data-original="#000000" style="" class=""/>
	</g>
</g>
<g xmlns="http://www.w3.org/2000/svg">
	<g>
		<path d="M305,243.127h-62c-5.522,0-10,4.478-10,10c0,5.522,4.478,10,10,10h62c5.522,0,10-4.478,10-10    C315,247.605,310.522,243.127,305,243.127z" fill="#FFFFFF" data-original="#000000" style="" class=""/>
	</g>
</g>
<g xmlns="http://www.w3.org/2000/svg">
	<g>
		<path d="M422,243.127h-77c-5.522,0-10,4.478-10,10c0,5.522,4.478,10,10,10h77c5.522,0,10-4.478,10-10    C432,247.605,427.522,243.127,422,243.127z" fill="#FFFFFF" data-original="#000000" style="" class=""/>
	</g>
</g>
<g xmlns="http://www.w3.org/2000/svg">
	<g>
		<path d="M127,243.127H50c-5.522,0-10,4.478-10,10c0,5.522,4.478,10,10,10h77c5.522,0,10-4.478,10-10    C137,247.605,132.522,243.127,127,243.127z" fill="#FFFFFF" data-original="#000000" style="" class=""/>
	</g>
</g>
<g xmlns="http://www.w3.org/2000/svg">
	<g>
		<path d="M203,243.127h-36c-5.522,0-10,4.478-10,10c0,5.522,4.478,10,10,10h36c5.522,0,10-4.477,10-10    C213,247.605,208.522,243.127,203,243.127z" fill="#FFFFFF" data-original="#000000" style="" class=""/>
	</g>
</g>
<g xmlns="http://www.w3.org/2000/svg">
	<g>
		<path d="M469.069,246.052c-1.859-1.86-4.439-2.92-7.069-2.92s-5.21,1.06-7.07,2.92c-1.86,1.86-2.93,4.44-2.93,7.08    c0,2.63,1.069,5.21,2.93,7.07c1.86,1.859,4.44,2.92,7.07,2.92s5.21-1.061,7.069-2.92c1.86-1.87,2.931-4.44,2.931-7.07    C472,250.492,470.93,247.922,469.069,246.052z" fill="#FFFFFF" data-original="#000000" style="" class=""/>
	</g>
</g>
<g xmlns="http://www.w3.org/2000/svg">
	<g>
		<path d="M462,22.788H50c-27.57,0-50,22.43-50,50v290.34c0,27.57,22.43,50,50,50h155.128c-2.026,12.214-7.347,24.32-12.926,36.977    c-2.74,6.217-5.548,12.592-8,19.108H156c-5.522,0-10,4.478-10,10c0,5.522,4.478,10,10,10h200c5.522,0,10-4.478,10-10    c0-5.522-4.478-10-10-10h-28.201c-2.452-6.517-5.26-12.891-8-19.108c-5.579-12.656-10.9-24.762-12.926-36.977H462    c27.57,0,50-22.43,50-50V72.788C512,45.217,489.57,22.788,462,22.788z M50,42.788h412c13.036,0,24.152,8.361,28.28,20H21.72    C25.848,51.149,36.964,42.788,50,42.788z M205.727,469.212L205.727,469.212c1.51-3.623,3.118-7.284,4.775-11.041    c1.308-2.968,2.622-5.954,3.904-8.964H263c5.522,0,10-4.478,10-10c0-5.522-4.478-10-10-10h-41.153    c1.569-5.239,2.801-10.587,3.503-16.08h61.312c2.033,15.96,8.516,30.706,14.836,45.044c1.656,3.757,3.265,7.418,4.776,11.041    H205.727z M492,363.127c0,16.542-13.458,30-30,30H50c-16.542,0-30-13.458-30-30v-20h472V363.127z M492,323.127H20V82.788h472    V323.127z" fill="#FFFFFF" data-original="#000000" style="" class=""/>
	</g>
</g>
<g xmlns="http://www.w3.org/2000/svg">
	<g>
		<path d="M239,283.127h-36c-5.522,0-10,4.478-10,10c0,5.522,4.478,10,10,10h36c5.522,0,10-4.478,10-10    C249,287.605,244.522,283.127,239,283.127z" fill="#FFFFFF" data-original="#000000" style="" class=""/>
	</g>
</g>
<g xmlns="http://www.w3.org/2000/svg">
	<g>
		<path d="M307.667,283.127H279c-5.522,0-10,4.478-10,10c0,5.522,4.478,10,10,10h28.667c5.522,0,10-4.478,10-10    C317.667,287.605,313.189,283.127,307.667,283.127z" fill="#FFFFFF" data-original="#000000" style="" class=""/>
	</g>
</g>
<g xmlns="http://www.w3.org/2000/svg">
	<g>
		<path d="M163,283.127H50c-5.522,0-10,4.478-10,10c0,5.522,4.478,10,10,10h113c5.522,0,10-4.478,10-10    C173,287.605,168.522,283.127,163,283.127z" fill="#FFFFFF" data-original="#000000" style="" class=""/>
	</g>
</g>
<g xmlns="http://www.w3.org/2000/svg">
	<g>
		<path d="M462,102.788h-46.103c-5.522,0-10,4.478-10,10c0,5.522,4.478,10,10,10H462c5.522,0,10-4.478,10-10    C472,107.266,467.522,102.788,462,102.788z" fill="#FFFFFF" data-original="#000000" style="" class=""/>
	</g>
</g>
<g xmlns="http://www.w3.org/2000/svg">
	<g>
		<path d="M462,142.788h-46.103c-5.522,0-10,4.478-10,10c0,5.522,4.478,10,10,10H462c5.522,0,10-4.478,10-10    C472,147.266,467.522,142.788,462,142.788z" fill="#FFFFFF" data-original="#000000" style="" class=""/>
	</g>
</g>
<g xmlns="http://www.w3.org/2000/svg">
	<g>
		<path d="M462,182.788h-46.103c-5.522,0-10,4.478-10,10c0,5.522,4.478,10,10,10H462c5.522,0,10-4.478,10-10    C472,187.266,467.522,182.788,462,182.788z" fill="#FFFFFF" data-original="#000000" style="" class=""/>
	</g>
</g>















</g>
</svg>
