<?xml version="1.0" encoding="UTF-8"?>
<svg xmlns="http://www.w3.org/2000/svg" xmlns:xlink="http://www.w3.org/1999/xlink" xmlns:svgjs="http://svgjs.com/svgjs" version="1.1" width="512" height="512" x="0" y="0" viewBox="0 0 512 512" style="enable-background:new 0 0 512 512" xml:space="preserve" class="">
  <g>
<g xmlns="http://www.w3.org/2000/svg">
	<g>
		<path d="M436,52h-70v-2c0-8.01-3.121-15.542-8.789-21.211C351.543,23.122,344.01,20,336,20h-10V10c0-5.522-4.477-10-10-10H196    c-5.523,0-10,4.478-10,10v10h-10c-8.01,0-15.543,3.122-21.211,8.789C149.121,34.457,146,41.989,146,50v2H76    c-5.523,0-10,4.478-10,10v440c0,5.523,4.477,10,10,10h360c5.523,0,10-4.477,10-10V62C446,56.478,441.523,52,436,52z M206,20h100    v20H206V20z M166,50c0-2.668,1.041-5.179,2.931-7.068C170.821,41.041,173.332,40,176,40h10v10c0,5.523,4.477,10,10,10h120    c5.523,0,10-4.477,10-10V40h10c2.668,0,5.179,1.041,7.069,2.931C344.959,44.821,346,47.332,346,50v33.819l-5.527-2.763    c-2.815-1.408-6.13-1.408-8.945,0l-15.522,7.763l-15.524-7.763c-2.815-1.408-6.13-1.408-8.945,0L276.01,88.82l-15.528-7.764    c-2.815-1.407-6.129-1.407-8.944,0L236.01,88.82l-15.528-7.764c-2.815-1.407-6.129-1.407-8.944,0l-15.529,7.765l-15.533-7.765    c-1.407-0.704-2.939-1.056-4.471-1.056s-3.064,0.352-4.472,1.056L166,83.821V50z M126,72h20v28c0,3.466,1.794,6.685,4.742,8.506    c2.948,1.822,6.629,1.988,9.729,0.438l15.532-7.765l15.533,7.765c2.814,1.407,6.128,1.407,8.943,0l15.529-7.764l15.528,7.764    c2.815,1.408,6.129,1.408,8.944,0l15.528-7.764l15.528,7.764c2.815,1.408,6.129,1.408,8.945,0l15.525-7.764l15.525,7.764    c1.408,0.704,2.94,1.056,4.473,1.056c1.533,0,3.065-0.352,4.473-1.056l15.522-7.764l15.526,7.764    c3.1,1.55,6.781,1.384,9.729-0.438c2.948-1.822,4.743-5.041,4.743-8.507V72h20v380H126V72z M426,492H86V72h20v390    c0,5.523,4.477,10,10,10h280c5.523,0,10-4.477,10-10V72h20V492z" fill="#3a506b" data-original="#000000" style="" class=""/>
	</g>
</g>
<g xmlns="http://www.w3.org/2000/svg">
	<g>
		<path d="M223.533,130c-7.418,0-14.019,2.696-19.045,7.273c-5.026-4.577-11.626-7.273-19.045-7.273    c-17.069,0-30.955,13.849-30.955,30.871c0,7.983,3.03,15.524,8.543,21.291c3.421,4.167,23.806,28.688,36.203,36.346    c1.61,0.995,3.433,1.492,5.255,1.492s3.645-0.497,5.255-1.492c12.396-7.658,32.78-32.177,36.201-36.346    c5.513-5.766,8.543-13.307,8.543-21.291C254.488,143.849,240.602,130,223.533,130z M231.359,168.475    c-0.221,0.224-0.431,0.458-0.63,0.701c-6.585,8.064-18.083,21.047-26.239,28.24c-8.152-7.19-19.652-20.174-26.242-28.241    c-0.198-0.243-0.409-0.477-0.629-0.7c-2.019-2.044-3.13-4.745-3.13-7.604c0-5.995,4.915-10.871,10.955-10.871    c6.241,0,9.034,5.635,9.034,11.218c0,5.523,4.499,10,10.022,10s10-4.477,10-10c0-5.583,2.793-11.218,9.034-11.218    c6.041,0,10.955,4.876,10.955,10.871C234.489,163.73,233.378,166.431,231.359,168.475z" fill="#3a506b" data-original="#000000" style="" class=""/>
	</g>
</g>
<g xmlns="http://www.w3.org/2000/svg">
	<g>
		<path d="M356,130h-73.333c-5.523,0-10,4.478-10,10c0,5.523,4.477,10,10,10H356c5.523,0,10-4.477,10-10    C366,134.478,361.523,130,356,130z" fill="#3a506b" data-original="#000000" style="" class=""/>
	</g>
</g>
<g xmlns="http://www.w3.org/2000/svg">
	<g>
		<path d="M356,170h-73.333c-5.523,0-10,4.478-10,10c0,5.523,4.477,10,10,10H356c5.523,0,10-4.477,10-10    C366,174.478,361.523,170,356,170z" fill="#3a506b" data-original="#000000" style="" class=""/>
	</g>
</g>
<g xmlns="http://www.w3.org/2000/svg">
	<g>
		<path d="M356,210h-73.333c-5.523,0-10,4.478-10,10c0,5.523,4.477,10,10,10H356c5.523,0,10-4.477,10-10    C366,214.478,361.523,210,356,210z" fill="#3a506b" data-original="#000000" style="" class=""/>
	</g>
</g>
<g xmlns="http://www.w3.org/2000/svg">
	<g>
		<path d="M356,250H156c-5.523,0-10,4.478-10,10c0,5.523,4.477,10,10,10h200c5.523,0,10-4.477,10-10    C366,254.478,361.523,250,356,250z" fill="#3a506b" data-original="#000000" style="" class=""/>
	</g>
</g>
<g xmlns="http://www.w3.org/2000/svg">
	<g>
		<path d="M356,290H156c-5.523,0-10,4.478-10,10c0,5.523,4.477,10,10,10h200c5.523,0,10-4.477,10-10    C366,294.478,361.523,290,356,290z" fill="#3a506b" data-original="#000000" style="" class=""/>
	</g>
</g>
<g xmlns="http://www.w3.org/2000/svg">
	<g>
		<path d="M356,330H186c-5.523,0-10,4.478-10,10c0,5.523,4.477,10,10,10h170c5.523,0,10-4.477,10-10    C366,334.478,361.523,330,356,330z" fill="#3a506b" data-original="#000000" style="" class=""/>
	</g>
</g>
<g xmlns="http://www.w3.org/2000/svg">
	<g>
		<path d="M246.003,370.001h-90c-5.52,0-10,4.49-10,10s4.48,10,10,10h90c5.51,0,10-4.49,10-10S251.513,370.001,246.003,370.001z" fill="#3a506b" data-original="#000000" style="" class=""/>
	</g>
</g>
<g xmlns="http://www.w3.org/2000/svg">
	<g>
		<path d="M286.003,370.001c-5.52,0-10,4.49-10,10s4.48,10,10,10c5.51,0,10-4.49,10-10S291.513,370.001,286.003,370.001z" fill="#3a506b" data-original="#000000" style="" class=""/>
	</g>
</g>















</g>
</svg>
