<?xml version="1.0" encoding="UTF-8"?>
<svg xmlns="http://www.w3.org/2000/svg" xmlns:xlink="http://www.w3.org/1999/xlink" xmlns:svgjs="http://svgjs.com/svgjs" version="1.1" width="512" height="512" x="0" y="0" viewBox="0 0 512 512" style="enable-background:new 0 0 512 512" xml:space="preserve" class="">
  <g>
    <path xmlns="http://www.w3.org/2000/svg" d="m406.304688 297.351562-115.105469-30.046874v-11.191407c28.035156-18.152343 46.621093-49.707031 46.621093-85.519531v-70.125c0-55.398438-45.066406-100.46875-100.464843-100.46875h-2.710938c-55.398437 0-100.46875 45.070312-100.46875 100.46875v70.125c0 36.058594 18.84375 67.796875 47.203125 85.894531v10.808594l-115.617187 30.085937c-38.71875 10.078126-65.761719 45.054688-65.761719 85.066407v119.550781c0 5.523438 4.476562 10 10 10h452c5.523438 0 10-4.476562 10-10v-25.5c0-5.523438-4.476562-10-10-10s-10 4.476562-10 10v15.5h-205.664062v-66.78125l61.671874-131.90625c32.324219 12.0625 54.335938 43.253906 54.335938 78.226562v39.96875c-11.945312 4.152344-20.546875 15.515626-20.546875 28.855469 0 16.84375 13.703125 30.546875 30.546875 30.546875 16.839844 0 30.542969-13.703125 30.542969-30.546875 0-13.339843-8.601563-24.703125-20.542969-28.855469v-39.96875c0-24.691406-8.855469-47.867187-23.878906-66.003906l42.789062 11.167969c29.878906 7.800781 50.746094 34.816406 50.746094 65.699219v4.097656c0 5.523438 4.476562 10 10 10s10-4.476562 10-10v-4.097656c0-39.980469-27.015625-74.953125-65.695312-85.050782zm-33.960938 153.558594c-5.816406 0-10.546875-4.730468-10.546875-10.546875 0-5.8125 4.730469-10.546875 10.546875-10.546875 5.8125 0 10.542969 4.730469 10.542969 10.546875.003906 5.816407-4.730469 10.546875-10.542969 10.546875zm-218.164062-350.441406c0-44.371094 36.09375-80.46875 80.464843-80.46875h2.710938c44.371093 0 80.46875 36.097656 80.46875 80.46875v12.683594c-10.160157-2.175782-19.410157-7.632813-26.277344-15.699219l-2.914063-3.425781c2.082032-6.054688 3.226563-12.539063 3.226563-19.292969 0-5.519531-4.476563-10-10-10s-10 4.480469-10 10c0 21.773437-17.710937 39.480469-39.480469 39.480469h-78.199218zm0 70.125v-36.375h78.199218c18.441406 0 34.949219-8.4375 45.867188-21.65625 10.5 11.328125 24.453125 18.640625 39.574218 20.894531v37.136719c0 45.117188-36.703124 81.820312-81.820312 81.820312s-81.820312-36.703124-81.820312-81.820312zm81.820312 101.820312c12.367188 0 24.226562-2.21875 35.199219-6.273437v8.886719c0 4.550781 3.074219 8.527344 7.476562 9.675781l9.917969 2.90625-52.304688 111.875-52.371093-112.015625 9.980469-2.761719c4.40625-1.148437 7.480468-5.125 7.480468-9.679687v-8.679688c10.8125 3.921875 22.472656 6.066406 34.621094 6.066406zm-216 219.585938v-109.550781c0-30.90625 20.890625-57.925781 50.800781-65.710938l42.644531-11.097656c-14.972656 18.125-23.789062 41.253906-23.789062 65.898437v4.714844c-20.703125 4.582032-36.238281 23.074219-36.238281 45.136719v39.519531c0 5.523438 4.476562 10 10 10h13.867187c5.523438 0 10-4.476562 10-10 0-5.523437-4.476562-10-10-10h-3.867187v-29.519531c0-14.46875 11.769531-26.238281 26.238281-26.238281s26.238281 11.769531 26.238281 26.238281v29.519531h-5.289062c-5.523438 0-10 4.476563-10 10 0 5.523438 4.476562 10 10 10h15.289062c5.523438 0 10-4.476562 10-10v-39.519531c0-22.0625-15.535156-40.554687-36.238281-45.136719v-4.714844c0-35.148437 22.234375-66.484374 54.828125-78.410156l61.851563 132.28125v66.589844zm0 0" fill="#3a506b" data-original="#000000" style="" class=""/>
    <path xmlns="http://www.w3.org/2000/svg" d="m272.261719 443.429688c-1.863281 1.859374-2.933594 4.441406-2.933594 7.070312s1.070313 5.210938 2.933594 7.070312c1.867187 1.859376 4.4375 2.929688 7.066406 2.929688 2.632813 0 5.210937-1.070312 7.070313-2.929688 1.871093-1.859374 2.929687-4.441406 2.929687-7.070312s-1.058594-5.210938-2.929687-7.070312c-1.859376-1.859376-4.429688-2.929688-7.070313-2.929688-2.628906 0-5.207031 1.070312-7.066406 2.929688zm0 0" fill="#3a506b" data-original="#000000" style="" class=""/>
    <path xmlns="http://www.w3.org/2000/svg" d="m462 421.5c-2.628906 0-5.210938 1.070312-7.070312 2.929688-1.859376 1.859374-2.929688 4.441406-2.929688 7.070312s1.070312 5.210938 2.929688 7.070312c1.859374 1.859376 4.441406 2.929688 7.070312 2.929688s5.210938-1.070312 7.070312-2.929688c1.859376-1.859374 2.929688-4.441406 2.929688-7.070312s-1.070312-5.210938-2.929688-7.070312c-1.859374-1.859376-4.441406-2.929688-7.070312-2.929688zm0 0" fill="#3a506b" data-original="#000000" style="" class=""/>
  </g>
</svg>
