<?xml version="1.0" encoding="UTF-8"?>
<svg xmlns="http://www.w3.org/2000/svg" xmlns:xlink="http://www.w3.org/1999/xlink" xmlns:svgjs="http://svgjs.com/svgjs" version="1.1" width="512" height="512" x="0" y="0" viewBox="0 0 512.00013 512" style="enable-background:new 0 0 512 512" xml:space="preserve" class="">
  <g>
    <path xmlns="http://www.w3.org/2000/svg" d="m512 63.984375c-.007812-5.515625-4.484375-9.984375-10-9.984375h-23.75c-5.523438 0-10 4.476562-10 10 0 5.519531 4.476562 10 10 10h12.445312c-1.703124 6.320312-5.035156 12.113281-9.785156 16.871094-7.164062 7.175781-16.695312 11.128906-26.839844 11.128906h-70.070312c-5.523438 0-10 4.476562-10 10 0 5.519531 4.476562 10 10 10h62.550781c-4.125 11.636719-15.242187 20-28.277343 20h-44.8125c-5.523438 0-10 4.476562-10 10 0 5.519531 4.476562 10 10 10h19.875c-4.128907 11.636719-15.242188 20-28.28125 20h-75.054688v-58.007812c21.742188-.140626 41.53125-11.226563 53-29.722657 7.867188-12.695312 21.480469-20.269531 36.414062-20.269531h8.835938c5.523438 0 10-4.480469 10-10 0-5.523438-4.476562-10-10-10h-8.835938c-21.902343 0-41.871093 11.113281-53.414062 29.730469-7.796875 12.574219-21.230469 20.117187-36 20.253906v-12.691406c11.011719-9.539063 18-23.613281 18-39.292969 0-28.671875-23.328125-52-52-52s-52 23.328125-52 52c0 15.679688 6.988281 29.753906 18 39.292969v12.691406c-14.769531-.136719-28.203125-7.679687-36-20.253906-11.542969-18.617188-31.511719-29.730469-53.414062-29.730469h-122.585938c-5.515625 0-9.9921875 4.46875-10 9.984375-.0234375 15.488281 5.992188 30.054687 16.9375 41.015625 7.695312 7.707031 17.179688 12.96875 27.511719 15.417969 4.019531 23.574219 24.578125 41.582031 49.277343 41.582031h4.222657c4.648437 22.792969 24.847656 40 48.996093 40h75.054688v93.332031h-35.332031c-14.703125 0-26.667969-11.960937-26.667969-26.664062 0-14.707031 11.964844-26.667969 26.667969-26.667969h.832031c5.523438 0 10-4.480469 10-10 0-5.523438-4.476562-10-10-10h-.832031c-25.734375 0-46.667969 20.933594-46.667969 46.667969 0 25.730469 20.933594 46.664062 46.667969 46.664062h35.332031v42.335938h-12.230469c-21.871093 0-39.667969 17.792969-39.667969 39.664062 0 21.871094 17.796876 39.667969 39.667969 39.667969h13.574219c3.023438 24.730469 11.183594 48.648438 24.082031 70.144531 1.808594 3.011719 5.0625 4.855469 8.574219 4.855469s6.769531-1.84375 8.574219-4.855469c2.269531-3.785156 4.378906-7.648437 6.355469-11.574219h32.117187c21.664063 0 39.285156-17.621093 39.285156-39.285156 0-21.660156-17.621093-39.285156-39.285156-39.285156h-13.074219c.003906-.550781.027344-1.097656.027344-1.648438v-37.683593h28.332031c22.699219 0 41.167969-18.46875 41.167969-41.167969s-18.46875-41.167969-41.167969-41.167969h-28.332031v-93.332031h75.058594c24.144531 0 44.347656-17.207031 48.992187-40h4.222657c24.699218 0 45.261718-18.007812 49.277343-41.582031 10.335938-2.449219 19.820313-7.710938 27.515625-15.417969 10.941406-10.960938 16.957032-25.527344 16.933594-41.015625zm-256-43.984375c17.644531 0 32 14.355469 32 32s-14.355469 32-32 32-32-14.355469-32-32 14.355469-32 32-32zm-109.058594 162c-13.035156 0-24.148437-8.363281-28.277344-20h19.875c5.519532 0 10-4.480469 10-10 0-5.523438-4.480468-10-10-10h-44.8125c-13.035156 0-24.152343-8.363281-28.277343-20h62.550781c5.523438 0 10-4.480469 10-10 0-5.523438-4.476562-10-10-10h-70.070312c-10.144532 0-19.675782-3.953125-26.839844-11.128906-4.75-4.757813-8.082032-10.550782-9.785156-16.871094h111.28125c14.933593 0 28.546874 7.574219 36.414062 20.269531 11.46875 18.496094 31.257812 29.582031 53 29.722657v58.007812zm62.828125 235c-10.84375 0-19.667969-8.824219-19.667969-19.667969s8.824219-19.664062 19.667969-19.664062h12.230469v37.683593c0 .550782.023438 1.097657.027344 1.648438zm33.722657 20h25.015624c-2.074218 15.003906-6.277343 29.644531-12.507812 43.460938-6.230469-13.816407-10.433594-28.457032-12.507812-43.460938zm59.554687 0c10.636719 0 19.285156 8.648438 19.285156 19.285156 0 10.632813-8.648437 19.285156-19.285156 19.285156h-23.535156c4.46875-12.464843 7.535156-25.402343 9.144531-38.570312zm-61.023437-20c-.007813-.550781-.023438-1.097656-.023438-1.648438v-100.019531h28v100.019531c0 .550782-.015625 1.097657-.023438 1.648438zm76.308593-101.667969c11.671875 0 21.167969 9.496094 21.167969 21.167969s-9.496094 21.167969-21.167969 21.167969h-28.332031v-42.335938zm-76.332031-20v-193.261719c4.457031 1.246094 9.148438 1.929688 14 1.929688s9.542969-.683594 14-1.929688v193.261719zm0 0" fill="#3a506b" data-original="#000000" style="" class=""/>
    <path xmlns="http://www.w3.org/2000/svg" d="m433.25 74c2.628906 0 5.210938-1.070312 7.070312-2.933594 1.859376-1.855468 2.929688-4.4375 2.929688-7.066406 0-2.632812-1.070312-5.210938-2.929688-7.070312-1.859374-1.859376-4.441406-2.929688-7.070312-2.929688s-5.210938 1.066406-7.070312 2.929688c-1.859376 1.859374-2.929688 4.4375-2.929688 7.070312 0 2.628906 1.070312 5.210938 2.929688 7.066406 1.859374 1.863282 4.441406 2.933594 7.070312 2.933594zm0 0" fill="#3a506b" data-original="#000000" style="" class=""/>
  </g>
</svg>
