<?xml version="1.0" encoding="UTF-8"?>
<svg xmlns="http://www.w3.org/2000/svg" xmlns:xlink="http://www.w3.org/1999/xlink" xmlns:svgjs="http://svgjs.com/svgjs" version="1.1" width="512" height="512" x="0" y="0" viewBox="0 0 512 512" style="enable-background:new 0 0 512 512" xml:space="preserve" class="">
  <g>
    <path xmlns="http://www.w3.org/2000/svg" d="m432 256c0 5.519531 4.480469 10 10 10s10-4.480469 10-10-4.480469-10-10-10-10 4.480469-10 10zm0 0" fill="#3a506b" data-original="#000000" style="" class=""/>
    <path xmlns="http://www.w3.org/2000/svg" d="m120 322.832031v33.167969c0 13.035156 8.359375 24.152344 20 28.28125v37.71875c0 48.785156 42.589844 90 93 90s93-41.214844 93-90v-166c0-26.636719 24.765625-50 53-50 16.070312 0 32.90625 7.464844 41.898438 18.570312 3.472656 4.292969 9.769531 4.957032 14.0625 1.480469 4.292968-3.472656 4.957031-9.769531 1.480468-14.0625-12.777344-15.789062-35.324218-25.988281-57.441406-25.988281-39.570312 0-73 32.054688-73 70v166c0 37.945312-33.429688 70-73 70s-73-32.054688-73-70v-37.71875c11.640625-4.128906 20-15.246094 20-28.28125v-33.167969c69.128906-14.074219 120-74.972656 120-146.832031v-20c0-13.035156-8.359375-24.152344-20-28.28125v-77.71875c0-16.542969-13.457031-30-30-30h-11.71875c-4.128906-11.640625-15.246094-20-28.28125-20-16.542969 0-30 13.457031-30 30s13.457031 30 30 30c13.035156 0 24.152344-8.359375 28.28125-20h11.71875c5.515625 0 10 4.484375 10 10v77.71875c-11.640625 4.128906-20 15.246094-20 28.28125v20c0 49.625-40.375 90-90 90s-90-40.375-90-90v-20c0-13.035156-8.359375-24.152344-20-28.28125v-77.71875c0-5.515625 4.484375-10 10-10h11.71875c4.128906 11.640625 15.246094 20 28.28125 20 16.542969 0 30-13.457031 30-30s-13.457031-30-30-30c-13.035156 0-24.152344 8.359375-28.28125 20h-11.71875c-16.542969 0-30 13.457031-30 30v77.71875c-11.640625 4.128906-20 15.246094-20 28.28125v20c0 71.960938 50.972656 132.78125 120 146.832031zm90-282.832031c-5.515625 0-10-4.484375-10-10s4.484375-10 10-10 10 4.484375 10 10-4.484375 10-10 10zm-120-20c5.515625 0 10 4.484375 10 10s-4.484375 10-10 10-10-4.484375-10-10 4.484375-10 10-10zm-70 136c0-5.515625 4.484375-10 10-10s10 4.484375 10 10v20c0 60.652344 49.347656 110 110 110s110-49.347656 110-110v-20c0-5.515625 4.484375-10 10-10s10 4.484375 10 10v20c0 64.6875-48.351562 120.003906-112.46875 128.671875-6.878906.925781-10.71875 8.414063-7.53125 14.527344v36.800781c0 5.515625-4.484375 10-10 10s-10-4.484375-10-10v-36.796875c3.183594-6.105469-.644531-13.601563-7.53125-14.53125-64.117188-8.667969-112.46875-63.984375-112.46875-128.671875zm0 0" fill="#3a506b" data-original="#000000" style="" class=""/>
    <path xmlns="http://www.w3.org/2000/svg" d="m472 378.746094v-16.746094c0-13.035156-8.359375-24.152344-20-28.28125v-37.71875c0-5.523438-4.476562-10-10-10s-10 4.476562-10 10v37.71875c-11.640625 4.128906-20 15.246094-20 28.28125v16.746094c-24.1875 11.484375-40 36.0625-40 63.253906 0 38.597656 31.402344 70 70 70s70-31.402344 70-70c0-27.191406-15.8125-51.769531-40-63.253906zm-30-26.746094c5.515625 0 10 4.484375 10 10v10.722656c-3.296875-.472656-6.632812-.722656-10-.722656s-6.703125.253906-10 .722656v-10.722656c0-5.515625 4.484375-10 10-10zm0 140c-27.570312 0-50-22.429688-50-50 0-27.277344 22.066406-50 50-50 27.9375 0 50 22.726562 50 50 0 27.570312-22.429688 50-50 50zm0 0" fill="#3a506b" data-original="#000000" style="" class=""/>
    <path xmlns="http://www.w3.org/2000/svg" d="m442 412c-16.542969 0-30 13.457031-30 30s13.457031 30 30 30 30-13.457031 30-30-13.457031-30-30-30zm0 40c-5.515625 0-10-4.484375-10-10s4.484375-10 10-10 10 4.484375 10 10-4.484375 10-10 10zm0 0" fill="#3a506b" data-original="#000000" style="" class=""/>
  </g>
</svg>
