<?xml version="1.0" encoding="UTF-8"?>
<svg xmlns="http://www.w3.org/2000/svg" xmlns:xlink="http://www.w3.org/1999/xlink" xmlns:svgjs="http://svgjs.com/svgjs" version="1.1" width="512" height="512" x="0" y="0" viewBox="0 0 512 512" style="enable-background:new 0 0 512 512" xml:space="preserve" class="">
  <g>
    <path xmlns="http://www.w3.org/2000/svg" d="m441.347 324.113-39.844-13.837c4.46-9.422 6.582-18.53 5.806-27.839-1.465-17.565-13.125-34.484-37.672-54.677v-114.266c0-70.724-26.557-97.332-48.836-107.2-38.059-16.861-90.028 2.428-123.882 30.967-3.903-2.264-7.975-3.405-12.167-3.405-7.054 0-13.381 2.896-18.8 8.608-24.131 25.434-27.121 108.682-24.956 186.287-25.903 20.916-33.712 51.85-29.649 81.631l-40.633 13.712c-8.694 2.935-14.534 11.806-14.534 22.079v142.729c0 12.737 9.239 23.099 20.595 23.099h358.453c11.354 0 20.593-10.363 20.593-23.099v-142.73c-.001-10.194-5.819-19.059-14.474-22.059zm-47.827-40.525c.582 6.991-1.362 14.307-5.237 22.097l-18.724-6.502h.078v-53.133c15.429 14.143 22.919 25.993 23.883 37.538zm-217.53-231.6c2.779-2.93 5.563-4.295 8.761-4.295 2.59 0 5.313 1.214 8.095 3.61 2.646 2.282 6.581 2.234 9.165-.117 29.57-26.836 79.282-47.246 113.186-32.241 26.561 11.766 40.602 44.46 40.602 94.548v180.91l-30.464-10.58c-12.563-20.239-16.487-38.719-11.998-56.438l-.441-.112c14.657-11.088 25.688-26.603 28.698-45.823 2.782-17.901.777-57.974-3.698-73.929-.892-3.176-3.946-5.306-7.185-5.032-25.726 1.95-60.532-5.07-81.199-30.597-1.673-2.068-4.383-2.993-6.971-2.378-2.588.61-4.595 2.651-5.164 5.248-5.484 24.973-29.827 45.336-62.021 51.877-3.115.633-5.399 3.306-5.534 6.484-1.516 35.471-2.974 72.085 32.816 96.947 3.463 16.885-.579 34.502-12.507 53.723l-32.453 10.951c-.124-2.894-.329-6.797-.588-11.724-6.976-132.731-.618-210.462 18.9-231.032zm119.348 297.615c-23.902-15.121-54.959-14.355-78.096 1.935l-17.221-57.509.458-.711c12.341-19.131 17.939-37.175 17.129-54.769 11.847 5.236 24.862 7.987 38.325 7.987h.077c14.008-.009 28.735-3.504 41.988-10.032-1.294 17.29 3.697 35.003 15.126 53.711zm-4.161 13.894-35.179 117.468-34.513-115.257c19.875-16.663 48.875-17.542 69.692-2.211zm-35.177-130.799c-.023 0-.045 0-.068 0-15.696 0-30.656-4.306-43.271-12.457-30.241-19.543-30.577-48.1-29.237-81.246 30.045-7.552 53.645-26.09 63.683-49.51 19.521 17.971 48.266 27.991 78.665 27.117 3.09 16.689 4.345 48.575 2.149 62.717-5.229 33.385-40.675 53.358-71.921 53.379zm-114.391 14.652c.474 12.514 1.05 24.746 1.662 36.4.405 7.712.698 13.284.698 15.433h.562l-19.771 6.672c-2.282-21.008 2.37-42.225 16.849-58.505zm-71.591 241.551v-142.729c0-4.329 2.059-7.933 5.119-8.966l38.918-13.133c2.903 11.161 7.419 21.888 13.169 31.576-9.951 10.643-11.505 27.171-2.855 39.598l22.838 32.816c1.047 1.507 2.651 2.534 4.457 2.858.405.072.813.108 1.221.108 1.403 0 2.786-.428 3.953-1.241l7.701-5.36c3.135-2.182 3.908-6.496 1.725-9.631s-6.489-3.91-9.631-1.725l-2.023 1.408-18.885-27.138c-5.588-8.027-3.601-19.106 4.426-24.696 3.869-2.687 8.574-3.707 13.261-2.874 4.682.84 8.743 3.432 11.435 7.3l18.888 27.135-2.448 1.705c-3.137 2.182-3.908 6.496-1.725 9.631 2.18 3.133 6.491 3.908 9.631 1.725l8.126-5.658c3.135-2.182 3.908-6.496 1.725-9.631l-22.84-32.813c-4.802-6.901-12.029-11.523-20.352-13.014-5.862-1.057-11.748-.425-17.135 1.702-5.072-8.69-8.998-18.284-11.495-28.225l59.96-20.234 59.521 198.768h-169.928c-3.662 0-6.757-4.241-6.757-9.262zm371.964 0c0 5.02-3.092 9.261-6.755 9.261h-169.934l59.825-199.764 55.924 19.421c-4.775 6.952-10.746 14.308-17.575 22.147-3.718-1.813-7.876-2.86-12.283-2.86-15.52 0-28.149 12.629-28.149 28.151 0 15.52 12.629 28.149 28.149 28.149 15.523 0 28.154-12.629 28.154-28.149 0-6.107-1.977-11.75-5.294-16.369 8.172-9.388 15.116-18.079 20.521-26.374l42.247 14.671c3.092 1.074 5.171 4.685 5.171 8.987v142.729zm-76.483-123.643c0 7.892-6.421 14.311-14.315 14.311-7.892 0-14.311-6.419-14.311-14.311s6.419-14.313 14.311-14.313c7.894 0 14.315 6.421 14.315 14.313z" fill="#3a506b" data-original="#000000" style="" class=""/>
  </g>
</svg>
