<?xml version="1.0" encoding="UTF-8"?>
<svg xmlns="http://www.w3.org/2000/svg" xmlns:xlink="http://www.w3.org/1999/xlink" xmlns:svgjs="http://svgjs.com/svgjs" version="1.1" width="512" height="512" x="0" y="0" viewBox="0 0 512 512" style="enable-background:new 0 0 512 512" xml:space="preserve" class="">
  <g>
    <path xmlns="http://www.w3.org/2000/svg" d="m482 40h-141.96875v-10c0-16.542969-13.460938-30-30-30h-108.0625c-16.542969 0-30 13.457031-30 30v10h-31.96875c-5.523438 0-10 4.476562-10 10s4.476562 10 10 10h342c5.515625 0 10 4.484375 10 10v280c0 5.511719-4.484375 10-10 10h-452c-5.515625 0-10-4.488281-10-10v-280c0-5.515625 4.484375-10 10-10h41.035156c5.519532 0 10-4.476562 10-10s-4.480468-10-10-10h-41.035156c-16.542969 0-30 13.457031-30 30v280c0 16.542969 13.457031 30 30 30h452c16.542969 0 30-13.457031 30-30v-280c0-16.542969-13.457031-30-30-30zm-290.03125-10c0-5.515625 4.488281-10 10-10h108.0625c5.511719 0 10 4.484375 10 10v10h-128.0625zm0 0" fill="#3a506b" data-original="#000000" style="" class=""/>
    <path xmlns="http://www.w3.org/2000/svg" d="m99.765625 60h.269531c5.523438 0 10-4.476562 10-10s-4.476562-10-10-10h-.269531c-5.523437 0-10 4.476562-10 10s4.476563 10 10 10zm0 0" fill="#3a506b" data-original="#000000" style="" class=""/>
    <path xmlns="http://www.w3.org/2000/svg" d="m32 82v256c0 5.519531 4.476562 10 10 10h428c5.523438 0 10-4.480469 10-10v-256c0-5.523438-4.476562-10-10-10h-428c-5.523438 0-10 4.476562-10 10zm20 10h408v236h-408zm0 0" fill="#3a506b" data-original="#000000" style="" class=""/>
    <path xmlns="http://www.w3.org/2000/svg" d="m304 180h-18v-18c0-12.132812-9.871094-22-22-22h-16c-12.132812 0-22 9.867188-22 22v18h-18c-12.132812 0-22 9.867188-22 22v16c0 12.128906 9.867188 22 22 22h18v18c0 12.128906 9.867188 22 22 22h16c12.128906 0 22-9.871094 22-22v-18h18c12.128906 0 22-9.871094 22-22v-16c0-12.132812-9.871094-22-22-22zm2 38c0 1.082031-.917969 2-2 2h-28c-5.523438 0-10 4.476562-10 10v28c0 1.082031-.917969 2-2 2h-16c-1.085938 0-2-.917969-2-2v-28c0-5.523438-4.476562-10-10-10h-28c-1.085938 0-2-.914062-2-2v-16c0-1.085938.914062-2 2-2h28c5.523438 0 10-4.476562 10-10v-28c0-1.085938.914062-2 2-2h16c1.082031 0 2 .914062 2 2v28c0 5.523438 4.476562 10 10 10h28c1.082031 0 2 .914062 2 2zm0 0" fill="#3a506b" data-original="#000000" style="" class=""/>
    <path xmlns="http://www.w3.org/2000/svg" d="m440 298h-41.035156c-5.523438 0-10 4.476562-10 10 0 5.519531 4.476562 10 10 10h41.035156c5.519531 0 10-4.480469 10-10 0-5.523438-4.480469-10-10-10zm0 0" fill="#3a506b" data-original="#000000" style="" class=""/>
    <path xmlns="http://www.w3.org/2000/svg" d="m370.234375 298h-.234375c-5.523438 0-10 4.476562-10 10s4.476562 10 10 10h.234375c5.519531 0 10-4.476562 10-10s-4.476563-10-10-10zm0 0" fill="#3a506b" data-original="#000000" style="" class=""/>
  </g>
</svg>
