<?xml version="1.0" encoding="UTF-8"?>
<svg xmlns="http://www.w3.org/2000/svg" xmlns:xlink="http://www.w3.org/1999/xlink" xmlns:svgjs="http://svgjs.com/svgjs" version="1.1" width="512" height="512" x="0" y="0" viewBox="0 0 512 512" style="enable-background:new 0 0 512 512" xml:space="preserve" class="">
  <g>
<g xmlns="http://www.w3.org/2000/svg">
	<g>
		<path d="M407.049,395.09c-0.13-0.64-0.32-1.27-0.57-1.87c-0.25-0.6-0.56-1.19-0.92-1.73c-0.359-0.55-0.779-1.06-1.24-1.52    c-0.46-0.46-0.97-0.88-1.52-1.24c-0.54-0.36-1.12-0.67-1.73-0.92c-0.599-0.25-1.229-0.44-1.869-0.57c-1.29-0.26-2.62-0.26-3.91,0    c-0.63,0.13-1.26,0.32-1.87,0.57c-0.601,0.25-1.18,0.56-1.72,0.92c-0.551,0.36-1.061,0.78-1.521,1.24    c-0.46,0.46-0.88,0.97-1.25,1.52c-0.36,0.54-0.66,1.13-0.91,1.73c-0.25,0.6-0.45,1.23-0.58,1.87s-0.19,1.3-0.19,1.95    c0,0.65,0.06,1.31,0.19,1.96c0.13,0.64,0.33,1.26,0.58,1.87c0.25,0.6,0.55,1.18,0.91,1.72c0.37,0.55,0.79,1.06,1.25,1.53    c0.46,0.46,0.97,0.87,1.521,1.24c0.54,0.36,1.119,0.67,1.72,0.92c0.61,0.25,1.24,0.44,1.87,0.57c0.65,0.13,1.31,0.19,1.96,0.19    c0.649,0,1.31-0.06,1.95-0.19s1.269-0.32,1.869-0.57c0.61-0.25,1.19-0.56,1.73-0.92c0.55-0.37,1.06-0.78,1.52-1.24    c0.461-0.47,0.881-0.98,1.24-1.53c0.36-0.54,0.67-1.12,0.92-1.72c0.25-0.6,0.44-1.23,0.57-1.87c0.13-0.65,0.2-1.3,0.2-1.96    C407.249,396.39,407.179,395.73,407.049,395.09z" fill="#3a506b" data-original="#000000" style="" class=""/>
	</g>
</g>
<g xmlns="http://www.w3.org/2000/svg">
	<g>
		<path d="M470.039,76.765H350.696v-50.21C350.696,11.913,338.784,0,324.142,0H187.858c-14.643,0-26.555,11.913-26.555,26.555v50.21    H41.961C28.749,76.765,18,87.513,18,100.725v89.246c0,12.078,7.182,22.509,17.499,27.249v218.696    c0,15.163,9.316,28.192,22.524,33.663V502c0,5.523,4.478,10,10,10h98.004c5.523,0,10-4.477,10-10v-29.667h159.945V502    c0,5.523,4.478,10,10,10h98.004c5.522,0,10-4.477,10-10v-32.421c13.208-5.471,22.524-18.5,22.524-33.663V217.22    c10.318-4.74,17.5-15.171,17.5-27.249v-89.246C494,87.513,483.251,76.765,470.039,76.765z M181.304,26.555    c0-3.614,2.94-6.555,6.555-6.555h136.283c3.614,0,6.555,2.94,6.555,6.555v50.21h-17.056V47.056c0-5.523-4.478-10-10-10H208.36    c-5.523,0-10,4.477-10,10v29.708h-17.056V26.555z M293.64,57.056v19.708h-75.281V57.056H293.64z M156.027,492L156.027,492H78.023    v-19.667h78.004V492z M433.977,492h-78.004v-19.667h78.004V492z M440.084,452.334H71.916c-9.053,0-16.417-7.365-16.417-16.418    V219.94h11.336v34.975c0,5.523,4.478,10,10,10h55.326c5.522,0,10-4.477,10-10V219.94h227.678v34.975c0,5.523,4.478,10,10,10    h55.326c5.522,0,10-4.477,10-10V219.94h11.336v215.976h0C456.501,444.969,449.137,452.334,440.084,452.334z M86.835,244.915    v-82.001h35.326v82.001H86.835z M389.839,244.915v-82.001h35.326v82.001H389.839z M474,189.971c0,5.497-4.472,9.969-9.969,9.969    h-18.866v-47.026c0-5.523-4.478-10-10-10h-55.326c-5.522,0-10,4.477-10,10v47.026H142.161v-47.026c0-5.523-4.478-10-10-10H76.835    c-5.522,0-10,4.477-10,10v47.026H47.969c-5.497,0-9.969-4.472-9.969-9.969v-89.246c0-2.184,1.776-3.96,3.961-3.96h428.078    c2.185,0,3.961,1.777,3.961,3.96V189.971z" fill="#3a506b" data-original="#000000" style="" class=""/>
	</g>
</g>
<g xmlns="http://www.w3.org/2000/svg">
	<g>
		<path d="M357.988,387.043h-65.304v-23.236h33.235c5.523,0,10-4.477,10-10v-53.369c0-5.523-4.477-10-10-10h-33.235v-33.236    c0-5.523-4.478-10-10-10h-53.369c-5.522,0-10,4.477-10,10v33.236H186.08c-5.522,0-10,4.477-10,10v53.369c0,5.523,4.478,10,10,10    h33.235v23.236H114.751c-5.522,0-10,4.477-10,10s4.478,10,10,10h243.237c5.522,0,10-4.477,10-10    C367.988,391.521,363.511,387.043,357.988,387.043z M272.684,353.807v33.236h-33.369v-33.236c0-5.523-4.477-10-10-10H196.08    v-33.369h33.235c5.523,0,10-4.477,10-10v-33.236h33.369v33.236c0,5.523,4.478,10,10,10h33.235v33.369h-33.235    C277.162,343.807,272.684,348.284,272.684,353.807z" fill="#3a506b" data-original="#000000" style="" class=""/>
	</g>
</g>















</g>
</svg>
