<?xml version="1.0" encoding="UTF-8"?>
<svg xmlns="http://www.w3.org/2000/svg" xmlns:xlink="http://www.w3.org/1999/xlink" xmlns:svgjs="http://svgjs.com/svgjs" version="1.1" width="512" height="512" x="0" y="0" viewBox="0 0 512 512" style="enable-background:new 0 0 512 512" xml:space="preserve" class="">
  <g>
    <g xmlns="http://www.w3.org/2000/svg">
      <g>
        <g>
          <g>
            <path d="m378.185 0h-244.37c-56.58 0-102.611 46.057-102.611 102.669v242.399c0 5.522 4.477 10 10 10h47.728v110.334c0 25.694 20.903 46.598 46.598 46.598h240.941c25.694 0 46.598-20.903 46.598-46.598v-110.334h47.728c5.522 0 10-4.478 10-10v-242.399c-.001-56.612-46.032-102.669-102.612-102.669zm-34.909 20 18.135 82.378-44.466 24.324c-3.323 1.818-5.334 5.357-5.194 9.143l2.054 55.642-43.875 37.641 35.636-209.128zm-87.276 171.809-29.278-171.809h58.556zm-49.566-171.809 35.637 209.127-43.875-37.641 2.054-55.642c.14-3.785-1.871-7.324-5.194-9.143l-44.466-24.324 18.134-82.377zm-97.502 335.068h84.153v52.399h-84.153zm84.153-20h-84.153v-27.102h84.153zm209.983 0h-84.153v-27.102h84.153zm-84.153 20h84.153v52.399h-84.153zm141.881-20h-37.728v-54.848c0-5.522-4.478-10-10-10s-10 4.478-10 10v7.746h-94.153c-5.522 0-10 4.478-10 10v119.501c0 5.522 4.478 10 10 10h94.153v37.935c0 14.666-11.932 26.598-26.598 26.598h-240.941c-14.666 0-26.598-11.932-26.598-26.598v-37.935h94.153c5.522 0 10-4.478 10-10v-119.5c0-5.522-4.478-10-10-10h-94.153v-118.952c0-5.522-4.478-10-10-10s-10 4.478-10 10v166.054h-37.727v-232.4c0-45.584 37.06-82.669 82.611-82.669h14.429l-18.8 85.402c-.955 4.34 1.068 8.79 4.968 10.923l45.623 24.957-2.004 54.285c-.112 3.045 1.17 5.975 3.482 7.959l64.487 55.324v163.574c0 5.522 4.477 10 10 10 5.522 0 10-4.478 10-10v-163.574l64.486-55.324c2.313-1.984 3.595-4.914 3.483-7.959l-2.004-54.285 45.623-24.957c3.899-2.133 5.923-6.583 4.968-10.923l-18.8-85.402h14.43c45.552 0 82.61 37.085 82.61 82.669z" fill="#3a506b" data-original="#000000" style="" class=""/>
            <path d="m413.068 199.809c5.522 0 10-4.477 10-10v-20.794c0-5.522-4.478-10-10-10s-10 4.478-10 10v20.794c0 5.522 4.478 10 10 10z" fill="#3a506b" data-original="#000000" style="" class=""/>
            <path d="m422.3 231.37c-1.556-3.739-5.302-6.198-9.349-6.168-4.192.031-8.003 2.825-9.351 6.784-1.361 4 .017 8.581 3.383 11.145 3.309 2.521 7.922 2.732 11.44.51 4.068-2.571 5.696-7.836 3.877-12.271z" fill="#3a506b" data-original="#000000" style="" class=""/>
          </g>
        </g>
      </g>
    </g>
  </g>
</svg>
