<?xml version="1.0" encoding="UTF-8"?>
<svg xmlns="http://www.w3.org/2000/svg" xmlns:xlink="http://www.w3.org/1999/xlink" xmlns:svgjs="http://svgjs.com/svgjs" version="1.1" width="512" height="512" x="0" y="0" viewBox="0 0 512 512" style="enable-background:new 0 0 512 512" xml:space="preserve" class="">
  <g>
    <path xmlns="http://www.w3.org/2000/svg" d="m266.84375 357.316406h-21.6875c-12.40625 0-22.5-10.089844-22.5-22.492187v-12.910157h-12.929688c-12.410156 0-22.503906-10.089843-22.503906-22.492187v-21.664063c0-12.402343 10.097656-22.492187 22.503906-22.492187h12.929688v-12.914063c0-12.402343 10.09375-22.492187 22.5-22.492187h21.6875c12.40625 0 22.5 10.089844 22.5 22.492187v12.914063h12.929688c12.410156 0 22.503906 10.089844 22.503906 22.492187v21.664063c0 12.402344-10.097656 22.492187-22.503906 22.492187h-12.929688v12.910157c0 12.402343-10.09375 22.492187-22.5 22.492187zm-57.117188-82.046875c-1.355468 0-2.5 1.136719-2.5 2.488281v21.664063c0 1.347656 1.144532 2.488281 2.5 2.488281h22.929688c5.523438 0 10.003906 4.476563 10.003906 10v22.914063c0 1.347656 1.144532 2.488281 2.496094 2.488281h21.6875c1.351562 0 2.496094-1.140625 2.496094-2.488281v-22.914063c0-5.523437 4.480468-10 10.003906-10h22.929688c1.355468 0 2.5-1.140625 2.5-2.488281v-21.664063c0-1.328124-1.167969-2.488281-2.5-2.488281h-22.929688c-5.523438 0-10.003906-4.480469-10.003906-10.003906v-22.910156c0-1.351563-1.144532-2.488281-2.496094-2.488281h-21.6875c-1.351562 0-2.496094 1.140624-2.496094 2.488281v22.910156c0 5.523437-4.480468 10.003906-10.003906 10.003906zm0 0" fill="#3a506b" data-original="#000000" style="" class=""/>
    <path xmlns="http://www.w3.org/2000/svg" d="m471.664062 107.179688v-28.101563c0-5.523437-4.476562-10-10.003906-10h-65.902344c-5.523437 0-10 4.476563-10 10v27.101563h-20.191406v-43.101563c0-34.78125-28.328125-63.078125-63.152344-63.078125h-92.859374c-34.804688 0-63.121094 28.296875-63.121094 63.078125v43.101563h-20.21875v-27.101563c0-5.523437-4.480469-10-10.003906-10h-65.871094c-5.527344 0-10.003906 4.476563-10.003906 10v28.101563c-22.980469 4.648437-40.335938 24.984374-40.335938 49.300781v264.214843c0 27.738282 22.582031 50.304688 50.339844 50.304688h165.59375c5.523437 0 10-4.476562 10-10.003906 0-5.523438-4.476563-10-10-10h-165.59375c-16.726563 0-30.335938-13.59375-30.335938-30.300782v-35.625h146.777344c16.484375 15.265626 36.726562 26.078126 59.203125 31.34375 10.046875 2.355469 20.09375 3.480469 29.996094 3.480469 33.433593 0 65.144531-12.863281 89.054687-34.824219h146.960938v35.625c0 16.707032-13.605469 30.300782-30.332032 30.300782h-165.992187c-5.527344 0-10.003906 4.476562-10.003906 10 0 5.527344 4.476562 10.003906 10.003906 10.003906h165.988281c27.757813 0 50.339844-22.566406 50.339844-50.304688v-264.214843c0-24.316407-17.355469-44.652344-40.335938-49.300781zm-107.660156 106.769531h127.992188v31.230469h-112.042969c-3.910156-11.085938-9.285156-21.59375-15.949219-31.230469zm21.269532 51.234375h106.722656v48.652344h-107.058594c3.242188-16.5 3.207031-32.949219.335938-48.652344zm20.488281-176.101563h45.898437v17.097657h-45.898437zm-239.324219-26.003906c0-23.753906 19.34375-43.074219 43.117188-43.074219h92.863281c23.789062 0 43.144531 19.324219 43.144531 43.074219v43.101563h-18.007812v-43.101563c0-13.855469-11.277344-25.128906-25.136719-25.128906h-92.863281c-13.859376 0-25.136719 11.273437-25.136719 25.128906v43.101563h-17.980469zm37.984375 41.089844v-41.089844c0-2.730469 2.398437-5.125 5.132813-5.125h92.863281c2.734375 0 5.132812 2.394531 5.132812 5.125v41.089844zm-144.082031-15.085938h45.871094v17.097657h-45.871094zm-10 37.101563h411.320312c16.726563 0 30.335938 13.589844 30.335938 30.296875v37.46875h-145c-16.433594-15.835938-37.1875-27.597657-60.980469-33.183594-44.917969-10.527344-89.957031 3.449219-121.027344 33.183594h-144.984375v-37.46875c0-16.707031 13.609375-30.296875 30.335938-30.296875zm-30.335938 139h106.695313c-2.976563 16.300781-2.84375 32.75.28125 48.652344h-106.976563zm111.980469-20h-111.980469v-31.230469h127.886719c-6.574219 9.480469-11.960937 19.945313-15.90625 31.230469zm-111.980469 88.65625h112.597656c3.050782 8.261718 6.957032 16.277344 11.707032 23.933594 1.546875 2.496093 3.179687 4.925781 4.871094 7.292968h-129.175782zm210.542969 63.097656c-19.9375-4.667969-37.800781-14.488281-52.113281-28.390625-.339844-.398437-.710938-.769531-1.109375-1.105469-6.027344-6.027344-11.410157-12.789062-16.015625-20.214844-5.035156-8.109374-8.949219-16.695312-11.726563-25.570312-.113281-.503906-.265625-.992188-.449219-1.464844-5.46875-18.347656-6.082031-37.886718-1.582031-57.027344 12.027344-51.226562 57.910157-85.878906 108.453125-85.878906 8.394532 0 16.925782.957032 25.445313 2.953125 59.785156 14.039063 97.019531 74.050781 83.003906 133.773438-.535156 2.277343-1.144531 4.515625-1.8125 6.722656-.03125.101563-.0625.199219-.089844.296875-16.933593 55.589844-74.597656 89.355469-132.003906 75.90625zm132.242187-31.871094c6.800782-9.449218 12.410157-19.917968 16.558594-31.226562h112.648438v31.226562zm0 0" fill="#3a506b" data-original="#000000" style="" class=""/>
    <path xmlns="http://www.w3.org/2000/svg" d="m255.984375 450.996094h-.167969c-5.523437 0-10.003906 4.476562-10.003906 10 0 5.527344 4.480469 10.003906 10.003906 10.003906h.167969c5.527344 0 10.003906-4.476562 10.003906-10.003906 0-5.523438-4.476562-10-10.003906-10zm0 0" fill="#3a506b" data-original="#000000" style="" class=""/>
  </g>
</svg>
