<?xml version="1.0" encoding="UTF-8"?>
<svg xmlns="http://www.w3.org/2000/svg" xmlns:xlink="http://www.w3.org/1999/xlink" xmlns:svgjs="http://svgjs.com/svgjs" version="1.1" width="512" height="512" x="0" y="0" viewBox="0 0 511.99999 511" style="enable-background:new 0 0 512 512" xml:space="preserve" class="">
  <g>
    <path xmlns="http://www.w3.org/2000/svg" d="m242.355469 358h27.289062c12.351563 0 22.402344-10.050781 22.402344-22.402344v-31.550781h31.550781c12.351563 0 22.402344-10.050781 22.402344-22.402344v-27.289062c0-12.351563-10.050781-22.402344-22.402344-22.402344h-31.550781v-31.550781c0-12.351563-10.050781-22.402344-22.402344-22.402344h-27.289062c-12.351563 0-22.402344 10.050781-22.402344 22.402344v31.550781h-31.550781c-12.351563 0-22.402344 10.050781-22.402344 22.402344v27.289062c0 12.351563 10.050781 22.402344 22.402344 22.402344h31.550781v31.550781c0 12.351563 10.050781 22.402344 22.402344 22.402344zm-53.953125-73.953125c-1.300782 0-2.402344-1.101563-2.402344-2.402344v-27.289062c0-1.300781 1.101562-2.402344 2.402344-2.402344h41.550781c5.523437 0 10-4.476563 10-10v-41.550781c0-1.304688 1.101563-2.402344 2.402344-2.402344h27.289062c1.300781 0 2.402344 1.101562 2.402344 2.402344v41.550781c0 5.523437 4.476563 10 10 10h41.550781c1.304688 0 2.402344 1.101563 2.402344 2.402344v27.289062c0 1.300781-1.101562 2.402344-2.402344 2.402344h-41.550781c-5.523437 0-10 4.476563-10 10v41.550781c0 1.300782-1.101563 2.402344-2.402344 2.402344h-27.289062c-1.300781 0-2.402344-1.101562-2.402344-2.402344v-41.550781c0-5.523437-4.476563-10-10-10zm0 0" fill="#3a506b" data-original="#000000" style=""/>
    <path xmlns="http://www.w3.org/2000/svg" d="m421.964844 118h.269531c5.523437 0 10-4.476562 10-10s-4.476563-10-10-10h-.269531c-5.523438 0-10 4.476562-10 10s4.476562 10 10 10zm0 0" fill="#3a506b" data-original="#000000" style=""/>
    <path xmlns="http://www.w3.org/2000/svg" d="m482 98h-31.035156c-5.523438 0-10 4.476562-10 10s4.476562 10 10 10h31.035156c5.515625 0 10 4.488281 10 10v280c0 5.515625-4.484375 10-10 10h-452c-5.515625 0-10-4.484375-10-10v-280c0-5.515625 4.484375-10 10-10h352c5.523438 0 10-4.476562 10-10s-4.476562-10-10-10h-18.5v-50c0-26.191406-21.308594-47.5-47.5-47.5h-120c-26.191406 0-47.5 21.308594-47.5 47.5v50h-118.5c-16.542969 0-30 13.457031-30 30v280c0 16.542969 13.457031 30 30 30h452c16.542969 0 30-13.457031 30-30v-280c0-16.542969-13.457031-30-30-30zm-173.5 0h-105v-42.5h105zm-140-50c0-15.164062 12.335938-27.5 27.5-27.5h120c15.164062 0 27.5 12.335938 27.5 27.5v50h-15v-50c0-6.890625-5.605469-12.5-12.5-12.5h-120c-6.894531 0-12.5 5.605469-12.5 12.5v50h-15zm0 0" fill="#3a506b" data-original="#000000" style=""/>
    <path xmlns="http://www.w3.org/2000/svg" d="m115.332031 378.894531c-5.523437 0-10 4.476563-10 10 0 5.523438 4.476563 10 10 10h.269531c5.523438 0 10-4.476562 10-10 0-5.523437-4.476562-10-10-10zm0 0" fill="#3a506b" data-original="#000000" style=""/>
    <path xmlns="http://www.w3.org/2000/svg" d="m86.601562 378.894531h-31.035156c-5.523437 0-10 4.476563-10 10 0 5.523438 4.476563 10 10 10h31.035156c5.523438 0 10-4.476562 10-10 0-5.523437-4.476562-10-10-10zm0 0" fill="#3a506b" data-original="#000000" style=""/>
    <path xmlns="http://www.w3.org/2000/svg" d="m86.601562 340.144531h-31.035156c-5.523437 0-10 4.476563-10 10 0 5.523438 4.476563 10 10 10h31.035156c5.523438 0 10-4.476562 10-10 0-5.523437-4.476562-10-10-10zm0 0" fill="#3a506b" data-original="#000000" style=""/>
  </g>
</svg>
