<?xml version="1.0" encoding="UTF-8"?>
<svg xmlns="http://www.w3.org/2000/svg" xmlns:xlink="http://www.w3.org/1999/xlink" xmlns:svgjs="http://svgjs.com/svgjs" version="1.1" width="512" height="512" x="0" y="0" viewBox="0 0 512 512" style="enable-background:new 0 0 512 512" xml:space="preserve" class="">
  <g>
    <path xmlns="http://www.w3.org/2000/svg" d="m395.847656 302.527344-52.871094-13.804688c-14.085937-14.441406-33.074218-24.078125-54.25-26.171875 23.886719-17.90625 39.371094-46.445312 39.371094-78.53125v-63.71875c13.378906-12.28125 21.78125-29.902343 21.78125-49.449219v-60.851562c0-5.523438-4.476562-10-10-10h-122.621094c-47.066406 0-85.359374 38.292969-85.359374 85.363281v42.636719c0 .167969.015624.332031.023437.5-.007813.167969-.023437.332031-.023437.5v55.019531c0 32.605469 15.992187 61.542969 40.542968 79.390625-16.082031 2.917969-30.492187 10.707032-41.605468 21.808594l-66.621094 17.339844c-37.808594 9.839844-64.214844 43.996094-64.214844 83.0625v116.375c0 5.523437 4.476562 10 10 10h204.515625c.023437 0 .046875.003906.070313.003906.015624 0 .03125-.003906.042968-.003906h31.390625c.011719 0 .027344.003906.042969.003906.023438 0 .046875-.003906.070312-.003906h66.867188c5.523438 0 10-4.476563 10-10 0-5.519532-4.476562-10-10-10h-53.722656l53.878906-190.386719 19.019531 4.964844c9.867188 11.804687 15.820313 26.992187 15.820313 43.546875v13.8125c-21.683594 4.613281-38 23.90625-38 46.945312v37.117188c0 5.523437 4.476562 10 10 10h15.128906c5.523438 0 10-4.476563 10-10 0-5.519532-4.476562-10-10-10h-5.128906v-27.117188c0-15.441406 12.5625-28 28-28 15.441406 0 28 12.558594 28 28v27.117188h-5.566406c-5.523438 0-10 4.480468-10 10 0 5.523437 4.476562 10 10 10h15.566406c5.523437 0 10-4.476563 10-10v-37.117188c0-23.039062-16.316406-42.332031-38-46.945312v-13.8125c0-12.910156-2.792969-25.179688-7.808594-36.234375l30.605469 7.992187c28.972656 7.5625 49.203125 33.753906 49.203125 63.695313v106.421875h-37c-5.523438 0-10 4.480468-10 10 0 5.523437 4.476562 10 10 10h47c5.523437 0 10-4.476563 10-10v-116.421875c0-39.039063-26.378906-73.1875-64.148438-83.046875zm-229.011718-6.007813 19.460937-5.066406 27.9375 27.84375-34.722656 22.023437zm63.199218 10.289063-29.21875-29.121094c9.21875 2.878906 19.023438 4.433594 29.179688 4.433594 10.167968 0 19.976562-1.554688 29.207031-4.4375zm-78.136718-221.445313c0-36.042969 29.320312-65.363281 65.359374-65.363281h112.621094v50.851562c0 25.996094-21.152344 47.148438-47.148437 47.148438h-130.832031zm0 98.65625v-46.019531h130.832031c8.972656 0 17.535156-1.785156 25.367187-4.992188v51.011719c0 27.667969-14.472656 52-36.230468 65.878907-2.097657.453124-3.941407 1.570312-5.320313 3.113281-10.914063 5.804687-23.351563 9.109375-36.550781 9.109375-12.800782 0-24.882813-3.117188-35.558594-8.601563-1.5625-2.003906-3.871094-3.386719-6.507812-3.75-21.648438-13.898437-36.03125-38.167969-36.03125-65.75zm-34.234376 217.488281c10.9375 0 19.835938 8.898438 19.835938 19.832032 0 10.9375-8.898438 19.832031-19.835938 19.832031-10.933593 0-19.832031-8.894531-19.832031-19.832031 0-10.933594 8.898438-19.832032 19.832031-19.832032zm-97.664062-15.886718c0-29.964844 20.25-56.160156 49.25-63.707032l44.644531-11.617187c-4.011719 9.445313-6.230469 19.828125-6.230469 30.71875v41.765625c-17.136718 4.445312-29.832031 20.046875-29.832031 38.558594 0 21.964844 17.871094 39.832031 39.832031 39.832031 21.964844 0 39.835938-17.867187 39.835938-39.832031 0-18.511719-12.695312-34.113282-29.835938-38.558594v-41.765625c0-14.433594 5.226563-27.664063 13.878907-37.917969l5.929687-1.542968 53.898438 190.441406h-181.371094zm202.15625 106.375-36.960938-130.597656 45.128907-28.625 45.128906 28.625-36.960937 130.597656zm58.976562-150.675782-35.074218-22.25 27.769531-27.726562 19.976563 5.214844zm0 0" fill="#3a506b" data-original="#000000" style=""/>
    <path xmlns="http://www.w3.org/2000/svg" d="m230.324219 228.128906c8.257812 0 16.515625-3.144531 22.800781-9.429687 3.90625-3.90625 3.90625-10.238281 0-14.144531-3.90625-3.902344-10.238281-3.902344-14.140625 0-4.777344 4.777343-12.546875 4.777343-17.320313 0-3.90625-3.902344-10.238281-3.902344-14.140624 0-3.90625 3.90625-3.90625 10.238281 0 14.144531 6.285156 6.285156 14.542968 9.429687 22.800781 9.429687zm0 0" fill="#3a506b" data-original="#000000" style=""/>
    <path xmlns="http://www.w3.org/2000/svg" d="m117.667969 431.335938c2.628906 0 5.210937-1.070313 7.070312-2.929688s2.929688-4.429688 2.929688-7.070312c0-2.628907-1.070313-5.207032-2.929688-7.070313-1.859375-1.855469-4.441406-2.929687-7.070312-2.929687-2.640625 0-5.210938 1.070312-7.078125 2.929687-1.863282 1.863281-2.921875 4.441406-2.921875 7.070313 0 2.640624 1.058593 5.210937 2.921875 7.070312 1.859375 1.859375 4.4375 2.929688 7.078125 2.929688zm0 0" fill="#3a506b" data-original="#000000" style=""/>
    <path xmlns="http://www.w3.org/2000/svg" d="m357.996094 491.996094c-2.628906 0-5.210938 1.070312-7.070313 2.929687s-2.929687 4.441407-2.929687 7.070313c0 2.632812 1.070312 5.210937 2.929687 7.070312s4.441407 2.929688 7.070313 2.929688 5.210937-1.070313 7.070312-2.929688 2.929688-4.4375 2.929688-7.070312c0-2.628906-1.070313-5.210938-2.929688-7.070313s-4.441406-2.929687-7.070312-2.929687zm0 0" fill="#3a506b" data-original="#000000" style=""/>
  </g>
</svg>
