<?xml version="1.0" encoding="UTF-8"?>
<svg xmlns="http://www.w3.org/2000/svg" xmlns:xlink="http://www.w3.org/1999/xlink" xmlns:svgjs="http://svgjs.com/svgjs" version="1.1" width="512" height="512" x="0" y="0" viewBox="0 0 512 512" style="enable-background:new 0 0 512 512" xml:space="preserve" class="">
  <g>
    <g xmlns="http://www.w3.org/2000/svg">
      <path d="m504.5 496.99h-13.789v-20.406c0-4.142-3.358-7.5-7.5-7.5s-7.5 3.358-7.5 7.5v20.406h-87.961v-236.541h87.961v181.017c0 4.142 3.358 7.5 7.5 7.5s7.5-3.358 7.5-7.5v-181.017h13.789c4.142 0 7.5-3.358 7.5-7.5s-3.358-7.5-7.5-7.5h-116.75v-90.322h7.542c4.142 0 7.5-3.358 7.5-7.5s-3.358-7.5-7.5-7.5h-131.75v-14.73h12.888c4.142 0 7.5-3.358 7.5-7.5v-27.223h27.461c4.142 0 7.5-3.358 7.5-7.5v-40.94c0-4.142-3.358-7.5-7.5-7.5h-27.461v-27.224c0-4.142-3.358-7.5-7.5-7.5h-41.086c-4.142 0-7.5 3.358-7.5 7.5v27.224h-27.236c-4.142 0-7.5 3.358-7.5 7.5v40.94c0 4.142 3.358 7.5 7.5 7.5h27.236v27.224c0 4.142 3.358 7.5 7.5 7.5h13.198v14.73h-131.75c-4.142 0-7.5 3.358-7.5 7.5s3.358 7.5 7.5 7.5h7.458v90.322h-116.75c-4.142 0-7.5 3.358-7.5 7.5s3.358 7.5 7.5 7.5h13.789v236.54h-13.789c-4.142 0-7.5 3.358-7.5 7.5s3.358 7.5 7.5 7.5h158.064c4.142 0 7.5-3.358 7.5-7.5s-3.358-7.5-7.5-7.5h-26.314v-182.32c0-4.142-3.358-7.5-7.5-7.5s-7.5 3.358-7.5 7.5v182.32h-87.961v-236.541h87.961v19.272c0 4.142 3.358 7.5 7.5 7.5s7.5-3.358 7.5-7.5v-124.594h233.5v341.863h-92.403v-119.127c0-4.142-3.358-7.5-7.5-7.5h-33.609c-4.142 0-7.5 3.358-7.5 7.5v119.127h-31.054c-4.142 0-7.5 3.358-7.5 7.5s3.358 7.5 7.5 7.5h303.816c4.142 0 7.5-3.358 7.5-7.5s-3.358-7.5-7.5-7.5zm-269.156-421.316h-27.236v-25.94h27.236c4.142 0 7.5-3.358 7.5-7.5v-27.224h26.086v27.224c0 4.142 3.358 7.5 7.5 7.5h27.461v25.94h-27.461c-4.142 0-7.5 3.358-7.5 7.5v27.224h-26.086v-27.224c0-4.142-3.358-7.5-7.5-7.5zm30.003 309.689v12.747h-18.609v-12.747zm-18.609 111.627v-83.88h18.609v83.88z" fill="#3a506b" data-original="#000000" style=""/>
      <path d="m199.887 174.28h-33.609c-4.142 0-7.5 3.358-7.5 7.5v55.609c0 4.142 3.358 7.5 7.5 7.5h33.609c4.142 0 7.5-3.358 7.5-7.5v-55.609c0-4.142-3.358-7.5-7.5-7.5zm-7.5 15v12.747h-18.609v-12.747zm-18.61 40.61v-12.863h18.609v12.863z" fill="#3a506b" data-original="#000000" style=""/>
      <path d="m272.805 174.28h-33.609c-4.142 0-7.5 3.358-7.5 7.5v55.609c0 4.142 3.358 7.5 7.5 7.5h33.609c4.142 0 7.5-3.358 7.5-7.5v-55.609c0-4.142-3.358-7.5-7.5-7.5zm-7.5 15v12.747h-18.609v-12.747zm-18.61 40.61v-12.863h18.609v12.863z" fill="#3a506b" data-original="#000000" style=""/>
      <path d="m345.638 174.28h-33.609c-4.142 0-7.5 3.358-7.5 7.5v55.609c0 4.142 3.358 7.5 7.5 7.5h33.609c4.142 0 7.5-3.358 7.5-7.5v-55.609c0-4.142-3.358-7.5-7.5-7.5zm-7.5 15v12.747h-18.609v-12.747zm-18.609 40.61v-12.863h18.609v12.863z" fill="#3a506b" data-original="#000000" style=""/>
      <path d="m199.929 264.475h-33.609c-4.142 0-7.5 3.358-7.5 7.5v71.609c0 4.142 3.358 7.5 7.5 7.5h33.609c4.142 0 7.5-3.358 7.5-7.5v-71.609c0-4.142-3.358-7.5-7.5-7.5zm-7.5 15v12.747h-18.609v-12.747zm-18.61 56.609v-28.863h18.609v28.863z" fill="#3a506b" data-original="#000000" style=""/>
      <path d="m63.857 350.778h33.609c4.142 0 7.5-3.358 7.5-7.5v-55.609c0-4.142-3.358-7.5-7.5-7.5h-33.609c-4.142 0-7.5 3.358-7.5 7.5v55.609c0 4.142 3.358 7.5 7.5 7.5zm7.5-15v-12.863h18.609v12.863zm18.609-40.609v12.747h-18.609v-12.747z" fill="#3a506b" data-original="#000000" style=""/>
      <path d="m63.899 456.973h33.609c4.142 0 7.5-3.358 7.5-7.5v-71.609c0-4.142-3.358-7.5-7.5-7.5h-33.609c-4.142 0-7.5 3.358-7.5 7.5v71.609c0 4.142 3.358 7.5 7.5 7.5zm7.5-15v-28.863h18.609v28.863zm18.61-56.61v12.747h-18.61v-12.747z" fill="#3a506b" data-original="#000000" style=""/>
      <path d="m272.847 264.475h-33.609c-4.142 0-7.5 3.358-7.5 7.5v71.609c0 4.142 3.358 7.5 7.5 7.5h33.609c4.142 0 7.5-3.358 7.5-7.5v-71.609c0-4.142-3.358-7.5-7.5-7.5zm-7.5 15v12.747h-18.609v-12.747zm-18.609 56.609v-28.863h18.609v28.863z" fill="#3a506b" data-original="#000000" style=""/>
      <path d="m353.181 271.975c0-4.142-3.358-7.5-7.5-7.5h-33.609c-4.142 0-7.5 3.358-7.5 7.5v71.609c0 4.142 3.358 7.5 7.5 7.5h33.609c4.142 0 7.5-3.358 7.5-7.5zm-15 7.5v12.747h-18.609v-12.747zm-18.61 56.609v-28.863h18.609v28.863z" fill="#3a506b" data-original="#000000" style=""/>
      <path d="m166.319 476.973h33.609c4.142 0 7.5-3.358 7.5-7.5v-91.609c0-4.142-3.358-7.5-7.5-7.5h-33.609c-4.142 0-7.5 3.358-7.5 7.5v91.609c0 4.142 3.358 7.5 7.5 7.5zm7.5-15v-48.863h18.609v48.863zm18.61-76.61v12.747h-18.609v-12.747z" fill="#3a506b" data-original="#000000" style=""/>
      <path d="m345.681 370.363h-33.609c-4.142 0-7.5 3.358-7.5 7.5v91.609c0 4.142 3.358 7.5 7.5 7.5h33.609c4.142 0 7.5-3.358 7.5-7.5v-91.609c0-4.142-3.358-7.5-7.5-7.5zm-7.5 15v12.747h-18.609v-12.747zm-18.61 76.61v-48.863h18.609v48.863z" fill="#3a506b" data-original="#000000" style=""/>
      <path d="m455.643 287.669c0-4.142-3.358-7.5-7.5-7.5h-33.609c-4.142 0-7.5 3.358-7.5 7.5v55.609c0 4.142 3.358 7.5 7.5 7.5h33.609c4.142 0 7.5-3.358 7.5-7.5zm-15 7.5v12.747h-18.609v-12.747zm-18.609 40.609v-12.863h18.609v12.863z" fill="#3a506b" data-original="#000000" style=""/>
      <path d="m448.101 370.363h-33.609c-4.142 0-7.5 3.358-7.5 7.5v71.609c0 4.142 3.358 7.5 7.5 7.5h33.609c4.142 0 7.5-3.358 7.5-7.5v-71.609c0-4.142-3.358-7.5-7.5-7.5zm-7.5 15v12.747h-18.609v-12.747zm-18.61 56.61v-28.863h18.609v28.863z" fill="#3a506b" data-original="#000000" style=""/>
    </g>
  </g>
</svg>
