<?xml version="1.0" encoding="UTF-8"?>
<svg xmlns="http://www.w3.org/2000/svg" xmlns:xlink="http://www.w3.org/1999/xlink" xmlns:svgjs="http://svgjs.com/svgjs" version="1.1" width="512" height="512" x="0" y="0" viewBox="0 0 512 512" style="enable-background:new 0 0 512 512" xml:space="preserve" class="">
  <g>
<g xmlns="http://www.w3.org/2000/svg">
	<g>
		<path d="M383.708,220.079h-91.787v-95.787c0-10.753-8.749-19.501-19.501-19.501h-32.84c-10.753,0-19.501,8.749-19.501,19.501    v95.787h-91.787c-10.753,0-19.501,8.749-19.501,19.501v32.84c0,10.753,8.749,19.501,19.501,19.501h91.787v95.787    c0,10.752,8.749,19.501,19.501,19.501h32.84c10.753,0,19.501-8.749,19.501-19.501v-95.787h91.787    c10.753,0,19.501-8.749,19.501-19.501v-32.84C403.21,228.827,394.461,220.079,383.708,220.079z M388.209,272.419    c0,2.482-2.019,4.5-4.5,4.5h-99.287c-4.143,0-7.5,3.357-7.5,7.5v103.287c0,2.481-2.018,4.5-4.5,4.5h-32.84    c-2.481,0-4.5-2.019-4.5-4.5V284.42c0-4.143-3.357-7.5-7.5-7.5h-99.287c-2.481,0-4.5-2.018-4.5-4.5v-32.84    c0-2.481,2.019-4.5,4.5-4.5h99.287c4.143,0,7.5-3.357,7.5-7.5V124.291c0-2.481,2.019-4.5,4.5-4.5h32.84c2.482,0,4.5,2.019,4.5,4.5    v103.287c0,4.143,3.357,7.5,7.5,7.5h99.287c2.481,0,4.5,2.019,4.5,4.5V272.419z" fill="#3a506b" data-original="#000000" style="" class=""/>
	</g>
</g>
<g xmlns="http://www.w3.org/2000/svg">
	<g>
		<path d="M504.499,245.999c4.142,0,7.5-3.357,7.5-7.5V106.97C512,47.986,464.014,0,405.03,0H106.972C47.988,0,0,47.986,0,106.97    v298.06C0,464.013,47.987,512,106.972,512H405.03C464.014,512,512,464.014,512,405.029V273.501c0-4.142-3.358-7.5-7.5-7.5    c-4.143,0-7.5,3.358-7.5,7.5v131.528c0,50.712-41.258,91.97-91.969,91.97H106.972c-50.713,0-91.971-41.258-91.971-91.97V106.97    c0-50.712,41.258-91.969,91.971-91.969H405.03c50.711,0,91.969,41.257,91.969,91.969v131.529    C496.999,242.642,500.357,245.999,504.499,245.999z" fill="#3a506b" data-original="#000000" style="" class=""/>
	</g>
</g>
<g xmlns="http://www.w3.org/2000/svg">
	<g>
		<path d="M405.03,39.961H106.972c-36.948,0-67.008,30.061-67.008,67.009v298.06c0,36.949,30.06,67.011,67.008,67.011h131.527    c4.143,0,7.5-3.357,7.5-7.5c0-4.143-3.357-7.5-7.5-7.5H106.972c-28.677,0-52.007-23.331-52.007-52.01V106.97    c0-28.678,23.331-52.008,52.007-52.008H405.03c28.677,0,52.007,23.331,52.007,52.008v298.06c0,28.679-23.331,52.01-52.007,52.01    H273.502c-4.143,0-7.5,3.357-7.5,7.5c0,4.142,3.357,7.5,7.5,7.5H405.03c36.948,0,67.008-30.062,67.008-67.011V106.97    C472.038,70.02,441.978,39.961,405.03,39.961z" fill="#3a506b" data-original="#000000" style="" class=""/>
	</g>
</g>















</g>
</svg>
