<?xml version="1.0" encoding="UTF-8"?>
<svg xmlns="http://www.w3.org/2000/svg" xmlns:xlink="http://www.w3.org/1999/xlink" xmlns:svgjs="http://svgjs.com/svgjs" version="1.1" width="512" height="512" x="0" y="0" viewBox="0 0 512 512" style="enable-background:new 0 0 512 512" xml:space="preserve" class="">
  <g>
<g xmlns="http://www.w3.org/2000/svg">
	<g>
		<path d="M485.997,258.59c-4.143,0-7.5,3.358-7.5,7.5v180.424c0,8.851-7.201,16.052-16.053,16.052H49.556    c-8.851,0-16.052-7.201-16.052-16.052V266.09c0-4.142-3.358-7.5-7.5-7.5c-4.142,0-7.5,3.358-7.5,7.5v180.424    c0,17.122,13.93,31.052,31.052,31.052h412.889c17.122,0,31.053-13.93,31.053-31.052V266.09    C493.497,261.947,490.14,258.59,485.997,258.59z" fill="#3a506b" data-original="#000000" style=""/>
	</g>
</g>
<g xmlns="http://www.w3.org/2000/svg">
	<g>
		<path d="M488.535,116.336H353.167V82.691c0-26.609-21.647-48.257-48.257-48.257h-97.82c-26.609,0-48.257,21.648-48.257,48.257    v33.644H23.465C10.526,116.336,0,126.863,0,139.8v45.469c0,37.423,29.09,68.159,65.842,70.836v0.851    c0,8.953,7.284,16.236,16.236,16.236h0.088v40.879c0,12.59,10.243,22.833,22.833,22.833c12.59,0,22.833-10.243,22.833-22.833    v-40.879h1.088c8.953,0,16.236-7.284,16.236-16.236v-0.64H363.84v0.64c0,8.953,7.283,16.236,16.236,16.236h0.089v40.879    c0,12.59,10.243,22.833,22.833,22.833c12.59,0,22.833-10.243,22.833-22.833v-40.879h1.089c8.953,0,16.236-7.284,16.236-16.236    v-0.696C481.315,255.089,512,223.706,512,185.269V139.8C512,126.863,501.474,116.336,488.535,116.336z M395.167,131.571h15.666    v90.543h-15.666V131.571z M173.832,82.691h0.001c0-18.338,14.919-33.257,33.257-33.257h97.82    c18.338,0,33.257,14.919,33.257,33.257v33.644h-12.145V82.691c0-11.642-9.471-21.113-21.112-21.113h-97.82    c-11.642,0-21.113,9.471-21.113,21.113v33.644h-12.145V82.691z M311.022,82.691v33.644H200.978V82.691    c0-3.371,2.742-6.113,6.113-6.113h97.82C308.28,76.579,311.022,79.321,311.022,82.691z M97.167,131.571h15.667v90.543H97.167    V131.571z M65.842,238.352v2.714C37.37,238.43,15,214.418,15,185.269V139.8c0-4.667,3.797-8.465,8.465-8.465h58.702v90.779h-0.088    C73.125,222.115,65.842,229.399,65.842,238.352z M112.834,314.072L112.834,314.072c-0.001,4.319-3.515,7.833-7.834,7.833    c-4.319,0-7.833-3.514-7.833-7.833v-40.879h15.667V314.072z M130.158,256.957c0,0.682-0.555,1.236-1.236,1.236H82.078    c-0.682,0-1.236-0.555-1.236-1.236v-18.605c0-0.682,0.555-1.236,1.236-1.236h46.844c0.682,0,1.236,0.555,1.236,1.236V256.957z     M363.842,238.35v2.965H145.158v-2.965c0-8.953-7.284-16.236-16.236-16.236h-1.088v-90.779h252.333v90.779h-0.089    C371.125,222.115,363.842,229.399,363.842,238.35z M410.833,314.072c0,4.319-3.514,7.833-7.833,7.833    c-4.319,0-7.833-3.514-7.833-7.833v-40.879h15.666V314.072z M428.158,256.957c0,0.682-0.555,1.236-1.236,1.236h-46.844    c-0.682,0-1.236-0.555-1.236-1.236v-18.605c0-0.682,0.555-1.236,1.236-1.236h46.844c0.682,0,1.236,0.555,1.236,1.236V256.957z     M497,185.269c0,30.165-23.957,54.827-53.842,55.991v-2.909c0-8.953-7.283-16.236-16.236-16.236h-1.089v-90.779h62.702    c4.668,0,8.465,3.797,8.465,8.465V185.269z" fill="#3a506b" data-original="#000000" style=""/>
	</g>
</g>
<g xmlns="http://www.w3.org/2000/svg">
	<g>
		<path d="M314.507,332.443h-35.692v-35.692c0-5.509-4.482-9.992-9.992-9.992h-25.647c-5.509,0-9.992,4.482-9.992,9.992v35.692    h-35.692c-5.51,0-9.992,4.482-9.992,9.992v25.647c0,5.51,4.482,9.992,9.992,9.992h35.692v35.692c0,5.509,4.482,9.992,9.992,9.992    h25.647c5.51,0,9.992-4.482,9.992-9.992v-35.692h35.692c5.51,0,9.992-4.482,9.992-9.992v-25.647    C324.499,336.925,320.017,332.443,314.507,332.443z M309.5,363.074h-38.185c-4.143,0-7.5,3.358-7.5,7.5v38.184h-15.631v-38.184    c0-4.142-3.358-7.5-7.5-7.5H202.5v-15.631h38.185c4.142,0,7.5-3.358,7.5-7.5v-38.184h15.631v38.184c0,4.142,3.357,7.5,7.5,7.5    H309.5V363.074z" fill="#3a506b" data-original="#000000" style=""/>
	</g>
</g>















</g>
</svg>
