<?xml version="1.0" encoding="UTF-8"?>
<svg xmlns="http://www.w3.org/2000/svg" xmlns:xlink="http://www.w3.org/1999/xlink" xmlns:svgjs="http://svgjs.com/svgjs" version="1.1" width="512" height="512" x="0" y="0" viewBox="0 0 512 512" style="enable-background:new 0 0 512 512" xml:space="preserve" class="">
  <g>
    <path xmlns="http://www.w3.org/2000/svg" d="m266 251.858v-85.858c0-5.523-4.477-10-10-10s-10 4.477-10 10v90c0 2.652 1.054 5.196 2.929 7.071l63.61 63.61c3.905 3.905 10.237 3.905 14.143 0 3.905-3.905 3.905-10.237 0-14.143z" fill="#3a506b" data-original="#000000" style=""/>
    <path xmlns="http://www.w3.org/2000/svg" d="m256 60c-108.075 0-196 87.925-196 196s87.925 196 196 196 196-87.925 196-196-87.925-196-196-196zm156 205.99 19.71.01c-2.309 41.009-18.721 78.305-44.453 107.114l-14.115-14.115c-3.905-3.905-10.237-3.905-14.143 0-3.905 3.905-3.905 10.237 0 14.143l14.115 14.115c-28.809 25.732-66.105 42.144-107.114 44.453v-19.71c0-5.523-4.477-10-10-10s-10 4.477-10 10v19.71c-41.009-2.309-78.305-18.721-107.114-44.453l14.115-14.115c3.905-3.905 3.905-10.237 0-14.143-3.905-3.905-10.237-3.905-14.143 0l-14.115 14.115c-25.732-28.809-42.144-66.105-44.453-107.114h19.71c5.523 0 10-4.477 10-10s-4.477-10-10-10h-19.71c2.309-41.009 18.721-78.305 44.453-107.114l14.115 14.115c3.905 3.905 10.237 3.905 14.143 0 3.905-3.905 3.905-10.237 0-14.143l-14.115-14.115c28.809-25.732 66.105-42.144 107.114-44.453v19.71c0 5.523 4.477 10 10 10s10-4.477 10-10v-19.71c41.009 2.309 78.305 18.721 107.114 44.453l-14.115 14.115c-3.905 3.905-3.905 10.237 0 14.143 3.905 3.905 10.237 3.905 14.143 0l14.115-14.115c25.732 28.809 42.145 66.105 44.453 107.114h-19.71c-5.523 0-10 4.477-10 10s4.477 9.99 10 9.99z" fill="#3a506b" data-original="#000000" style=""/>
    <circle xmlns="http://www.w3.org/2000/svg" cx="430" cy="430" r="10" fill="#3a506b" data-original="#000000" style=""/>
    <path xmlns="http://www.w3.org/2000/svg" d="m256 512c52.164 0 102.336-15.56 145.091-44.997 4.549-3.132 5.698-9.359 2.566-13.908-3.133-4.549-9.357-5.695-13.908-2.566-39.404 27.131-85.654 41.471-133.749 41.471-130.131 0-236-105.869-236-236s105.869-236 236-236 236 105.869 236 236c0 48.094-14.34 94.344-41.47 133.749-3.132 4.549-1.983 10.775 2.565 13.908 4.548 3.131 10.775 1.983 13.908-2.566 29.437-42.757 44.997-92.928 44.997-145.091 0-141.582-114.384-256-256-256-141.582 0-256 114.384-256 256 0 141.582 114.384 256 256 256z" fill="#3a506b" data-original="#000000" style=""/>
  </g>
</svg>
