<?xml version="1.0" encoding="UTF-8"?>
<svg xmlns="http://www.w3.org/2000/svg" xmlns:xlink="http://www.w3.org/1999/xlink" xmlns:svgjs="http://svgjs.com/svgjs" version="1.1" width="512" height="512" x="0" y="0" viewBox="0 0 512 512" style="enable-background:new 0 0 512 512" xml:space="preserve" class="">
  <g>
<g xmlns="http://www.w3.org/2000/svg">
	<g>
		<path d="M252.83,456.148h-0.408c-5.523,0-10,4.477-10,10s4.477,10,10,10h0.408c5.523,0,10-4.477,10-10    S258.352,456.148,252.83,456.148z" fill="#3a506b" data-original="#000000" style="" class=""/>
	</g>
</g>
<g xmlns="http://www.w3.org/2000/svg">
	<g>
		<path d="M78.861,155.877c-0.131-0.631-0.321-1.26-0.571-1.87c-0.25-0.6-0.56-1.18-0.92-1.72c-0.36-0.55-0.78-1.06-1.24-1.52    c-0.46-0.46-0.98-0.88-1.52-1.24c-0.55-0.37-1.13-0.67-1.73-0.92c-0.6-0.25-1.23-0.45-1.87-0.57c-3.25-0.66-6.7,0.41-9.02,2.73    c-0.47,0.46-0.88,0.97-1.25,1.52c-0.36,0.54-0.67,1.12-0.92,1.72c-0.25,0.61-0.44,1.24-0.57,1.87c-0.13,0.65-0.19,1.31-0.19,1.96    s0.06,1.309,0.19,1.95c0.13,0.64,0.32,1.27,0.57,1.87c0.25,0.61,0.56,1.19,0.92,1.73c0.37,0.55,0.78,1.06,1.25,1.52    c0.46,0.46,0.97,0.88,1.51,1.24c0.55,0.36,1.13,0.671,1.73,0.921c0.6,0.25,1.23,0.44,1.87,0.57c0.65,0.13,1.3,0.2,1.961,0.2    c0.65,0,1.3-0.07,1.95-0.2c0.64-0.13,1.27-0.32,1.87-0.57c0.6-0.25,1.18-0.56,1.73-0.921c0.54-0.36,1.06-0.78,1.52-1.24    c1.86-1.86,2.93-4.44,2.93-7.07C79.061,157.187,78.991,156.527,78.861,155.877z" fill="#3a506b" data-original="#000000" style="" class=""/>
	</g>
</g>
<g xmlns="http://www.w3.org/2000/svg">
	<g>
		<path d="M503.387,318.29c0.363-1.438,0.715-2.879,1.053-4.323c4.462-19.082,6.72-38.681,6.72-58.381    c0-1.468-0.012-2.934-0.037-4.4c-0.077-4.51-0.273-9.009-0.584-13.494c-0.171-2.459-0.38-4.913-0.621-7.362    c-0.095-0.966-0.198-1.93-0.303-2.894c-1.523-13.878-4.165-27.584-7.924-40.976c0-0.001,0-0.002-0.001-0.003v-0.001v-0.001    c-14.585-52.042-44.798-97.406-87.374-131.187C371.068,20.955,319.032,1.893,263.835,0.144c-2.839-0.091-5.617-0.138-8.255-0.138    c-58.18,0-115.114,20.073-160.316,56.523c-6.958,5.61-13.599,11.572-19.9,17.851c-8.653,8.622-16.661,17.844-23.977,27.566    c-0.307,0.408-0.612,0.818-0.917,1.228c-18.86,25.379-32.998,54.137-41.394,84.676c-0.088,0.32-0.167,0.643-0.254,0.964    c-0.377,1.393-0.75,2.787-1.103,4.187c-0.434,1.722-0.85,3.45-1.248,5.182C2.177,216.902,0,236.216,0,255.586    c0,35.307,7.069,69.503,21.012,101.639c13.466,31.038,32.69,58.734,57.14,82.323c47.889,46.183,110.9,71.618,177.428,71.618    c30.609,0,60.484-5.35,88.889-15.894c7.033,4.563,13.172,8.397,17.802,11.287c2.009,1.254,3.671,2.292,4.92,3.089    c2.45,1.564,5.261,2.346,8.071,2.346c2.797,0,5.595-0.775,8.038-2.325c1.238-0.786,2.881-1.806,4.865-3.038    c23.599-14.653,86.284-53.576,107.802-89.949C507.055,397.94,512,379.833,512,357.973C512,343.282,509.052,329.909,503.387,318.29    z M484.392,199.324c0.501,2.043,0.969,4.095,1.414,6.152c0.075,0.346,0.151,0.692,0.225,1.038    c0.425,2.007,0.824,4.019,1.197,6.038c0.067,0.365,0.132,0.731,0.198,1.096c0.369,2.051,0.715,4.106,1.029,6.167    c0.038,0.248,0.072,0.498,0.109,0.746c0.311,2.089,0.598,4.182,0.854,6.281c0.014,0.114,0.03,0.228,0.044,0.342    c0.255,2.122,0.475,4.249,0.672,6.38c0.031,0.335,0.065,0.669,0.094,1.004c0.182,2.055,0.335,4.113,0.464,6.175    c0.024,0.381,0.046,0.762,0.068,1.142c0.119,2.074,0.215,4.152,0.28,6.232c0.009,0.3,0.015,0.601,0.023,0.901    c0.06,2.188,0.098,4.379,0.098,6.572c0,13.804-1.203,27.555-3.584,41.08c-0.026-0.025-0.05-0.051-0.077-0.076    c-7.255-6.86-15.838-12.19-25.294-15.833c-0.046-0.022-0.089-0.041-0.133-0.058c-0.921-0.353-1.857-0.678-2.795-0.998    c-0.3-0.103-0.594-0.217-0.895-0.316c-0.719-0.237-1.45-0.447-2.177-0.664c-0.528-0.158-1.049-0.329-1.582-0.477    c-0.547-0.152-1.105-0.281-1.657-0.422c-0.719-0.185-1.435-0.378-2.162-0.545c-0.421-0.096-0.85-0.172-1.273-0.262    c-0.864-0.184-1.725-0.372-2.6-0.53c-0.363-0.066-0.733-0.113-1.098-0.174c-0.939-0.157-1.876-0.316-2.826-0.443    c-0.399-0.054-0.805-0.087-1.206-0.135c-0.921-0.111-1.84-0.225-2.771-0.308c-0.573-0.051-1.153-0.075-1.729-0.116    c-0.767-0.053-1.529-0.118-2.302-0.152c-1.355-0.06-2.718-0.09-4.088-0.09c-1.06,0-2.098,0.022-3.126,0.054    c-0.21,0.007-0.417,0.017-0.626,0.026c-0.919,0.035-1.826,0.083-2.72,0.144c-0.087,0.006-0.174,0.012-0.26,0.018    c-6.831,0.482-12.925,1.685-18.355,3.403c-2.96-2.726-6.478-4.78-10.308-6.015v-5.997c0-6.553-0.899-12.968-2.639-19.104    l6.742,6.742c8.724,8.724,20.345,13.528,32.723,13.528c12.363,0,23.981-4.802,32.723-13.528    c8.824-8.824,13.684-20.561,13.684-33.047c0-7.852-1.922-15.409-5.546-22.133h11.147    C484.364,199.216,484.379,199.27,484.392,199.324z M290.498,33.7c-8.119,0-14.955-5.527-16.995-13.013    c94.369,7.045,174.521,69.132,204.979,158.472h-23.321c-4.651,0-8.668,2.666-10.482,6.957c-0.016,0.038-0.032,0.076-0.048,0.114    c-1.765,4.321-0.814,9.056,2.499,12.376l3.793,3.782c5.047,5.046,7.826,11.76,7.826,18.904s-2.779,13.858-7.82,18.899    c-4.958,4.95-11.56,7.676-18.586,7.676c-7.036,0-13.634-2.724-18.581-7.67l-9.183-9.183    c-10.309-10.308-23.327-16.855-37.648-18.934c-4.262-0.617-8.444,1.563-10.375,5.415c-1.931,3.851-1.178,8.506,1.868,11.553    l2.557,2.556c9.374,9.375,14.537,21.839,14.537,35.098v13.192c0,5.136,3.395,9.493,8.058,10.948    c-3.241,2.727-5.991,5.593-8.303,8.415c-9.566-11.705-26.567-24.187-55.557-24.187c-21.811,0-41.898,7.644-56.562,21.524    c-4.039,3.823-7.595,8.035-10.658,12.594v-11.229c0-9.869-8.024-17.898-17.886-17.898h-4.033    c-16.797,0-30.463-13.666-30.463-30.464v-17.669c0-17.592,14.312-31.904,31.904-31.904h94.756c5.523,0,10-4.477,10-10v-0.936    c0-18.702-7.286-36.287-20.514-49.516c-1.43-1.429-3.258-2.392-5.246-2.761l-75.37-13.996c-3.229-0.6-6.545,0.424-8.874,2.739    c-3.838,3.814-5.952,8.908-5.952,14.343c0,10.186-8.292,18.473-18.484,18.473h-11.607c-6.281,0-11.39-5.11-11.39-11.39v-15.63    c0-13.443,5.232-26.083,14.722-35.583l6.776-6.765c3.561-3.585,5.521-8.33,5.521-13.36v-2.341c0-7.637,6.213-13.851,13.851-13.851    c0.272,0,0.544-0.011,0.815-0.033l70.292-5.75c5.346-0.438,9.395-5.015,9.176-10.375C300.271,37.933,295.862,33.7,290.498,33.7z     M20,255.586c0-15.198,1.466-30.35,4.336-45.157c14.993,0.115,29.083,6.005,39.711,16.622l10.121,10.133    c6.211,6.194,14.461,9.605,23.23,9.605c9.985,0,19.375,3.892,26.443,10.959l0.213,0.213    c10.792,10.803,16.736,25.152,16.736,40.406v20.598c0,19.17-7.47,37.203-21.03,50.774l-22.05,22.05    c-6.61,6.609-12.096,14.215-16.256,22.468C41.722,370.801,20,315.028,20,255.586z M255.58,491.166    c-1.884,0-3.766-0.023-5.643-0.067c-0.627-0.015-1.251-0.045-1.877-0.065c-1.249-0.039-2.499-0.076-3.745-0.134    c-0.75-0.035-1.497-0.087-2.246-0.13c-1.119-0.063-2.239-0.122-3.356-0.201c-0.801-0.057-1.598-0.13-2.398-0.194    c-1.06-0.086-2.121-0.167-3.178-0.267c-0.828-0.078-1.652-0.172-2.478-0.259c-1.025-0.108-2.051-0.211-3.074-0.332    c-0.841-0.099-1.678-0.214-2.517-0.322c-1.003-0.129-2.007-0.256-3.007-0.398c-0.849-0.121-1.695-0.255-2.543-0.385    c-0.984-0.151-1.969-0.3-2.95-0.463c-0.854-0.142-1.705-0.297-2.557-0.448c-0.969-0.172-1.939-0.343-2.905-0.527    c-0.856-0.163-1.709-0.338-2.563-0.511c-0.956-0.193-1.913-0.387-2.866-0.592c-0.856-0.184-1.71-0.379-2.563-0.573    c-0.945-0.214-1.889-0.43-2.831-0.656c-0.854-0.205-1.706-0.419-2.557-0.634c-0.935-0.236-1.87-0.473-2.802-0.72    c-0.85-0.226-1.698-0.459-2.546-0.694c-0.926-0.257-1.851-0.516-2.773-0.784c-0.847-0.246-1.693-0.5-2.537-0.755    c-0.915-0.277-1.828-0.558-2.739-0.846c-0.844-0.267-1.685-0.54-2.525-0.816c-0.905-0.298-1.809-0.6-2.71-0.909    c-0.839-0.288-1.677-0.58-2.512-0.877c-0.894-0.318-1.786-0.641-2.676-0.97c-0.834-0.308-1.667-0.62-2.498-0.937    c-0.885-0.338-1.768-0.683-2.649-1.033c-0.827-0.328-1.653-0.658-2.476-0.995c-0.876-0.359-1.749-0.725-2.621-1.095    c-0.819-0.347-1.638-0.696-2.453-1.053c-0.869-0.38-1.734-0.769-2.598-1.159c-0.81-0.366-1.619-0.733-2.425-1.108    c-0.861-0.401-1.718-0.812-2.575-1.224c-0.8-0.384-1.6-0.769-2.395-1.162c-0.853-0.422-1.702-0.855-2.55-1.288    c-0.79-0.403-1.58-0.804-2.365-1.216c-0.845-0.443-1.684-0.898-2.524-1.352c-0.78-0.422-1.562-0.841-2.338-1.271    c-0.836-0.464-1.666-0.94-2.496-1.415c-0.768-0.439-1.538-0.874-2.302-1.322c-0.832-0.488-1.658-0.99-2.485-1.488    c-0.752-0.454-1.507-0.903-2.254-1.365c-0.829-0.513-1.65-1.04-2.473-1.563c-0.735-0.467-1.473-0.929-2.203-1.405    c-0.832-0.542-1.655-1.099-2.481-1.652c-0.711-0.476-1.425-0.945-2.131-1.429c-0.845-0.58-1.681-1.176-2.52-1.767    c-0.675-0.476-1.355-0.944-2.026-1.428c-0.881-0.635-1.752-1.288-2.625-1.936c-0.618-0.458-1.241-0.908-1.855-1.373    c-1.015-0.768-2.017-1.556-3.021-2.342c-0.462-0.362-0.929-0.713-1.389-1.079c-1.451-1.154-2.89-2.326-4.317-3.517    c-0.471-0.393-0.933-0.799-1.401-1.196c-0.957-0.811-1.916-1.62-2.862-2.448c-0.579-0.507-1.149-1.029-1.724-1.542    c-0.764-0.682-1.531-1.36-2.288-2.053c1.852-4.845,4.296-9.461,7.234-13.766c30.446,28.871,68.095,48.354,109.011,56.375    c0.65,0.128,1.297,0.189,1.935,0.189c4.685,0,8.867-3.308,9.802-8.078c1.063-5.42-2.47-10.675-7.889-11.737    c-37.4-7.332-71.808-25.211-99.581-51.72l16.806-16.806c17.337-17.351,26.885-40.404,26.885-64.914v-20.598    c0-20.592-8.021-39.962-22.59-54.545l-0.217-0.216c-10.844-10.844-25.257-16.816-40.584-16.816c-3.437,0-6.672-1.338-9.094-3.753    L78.189,212.91c-13.286-13.274-30.563-21.09-49.112-22.32c0.141-0.496,0.282-0.992,0.426-1.486c0.219-0.75,0.438-1.5,0.664-2.246    c0.257-0.85,0.521-1.696,0.787-2.541c0.232-0.738,0.464-1.477,0.703-2.212c0.276-0.849,0.56-1.693,0.845-2.537    c0.244-0.723,0.487-1.447,0.738-2.167c0.295-0.848,0.6-1.69,0.904-2.533c0.256-0.708,0.509-1.418,0.771-2.123    c0.316-0.85,0.642-1.694,0.967-2.538c0.265-0.688,0.526-1.379,0.797-2.064c0.34-0.859,0.691-1.711,1.04-2.564    c0.271-0.663,0.538-1.328,0.815-1.988c0.369-0.88,0.751-1.753,1.131-2.627c0.27-0.623,0.535-1.249,0.811-1.869    c0.419-0.942,0.851-1.876,1.282-2.812c0.25-0.543,0.493-1.09,0.747-1.631c0.556-1.183,1.126-2.357,1.7-3.528    c0.14-0.285,0.274-0.575,0.415-0.859c0.719-1.452,1.452-2.895,2.199-4.328c0.227-0.435,0.463-0.864,0.692-1.297    c0.527-0.995,1.053-1.991,1.593-2.977c0.304-0.555,0.618-1.102,0.926-1.654c0.478-0.857,0.955-1.716,1.443-2.566    c0.34-0.591,0.689-1.174,1.033-1.762c0.47-0.801,0.937-1.603,1.416-2.397c0.366-0.607,0.74-1.207,1.111-1.811    c0.47-0.765,0.939-1.531,1.418-2.29c0.386-0.612,0.78-1.217,1.171-1.825c0.477-0.741,0.953-1.482,1.438-2.216    c0.403-0.61,0.813-1.215,1.221-1.822c0.486-0.721,0.972-1.443,1.465-2.158c0.419-0.608,0.845-1.211,1.27-1.814    c0.495-0.703,0.991-1.406,1.494-2.104c0.433-0.601,0.872-1.198,1.31-1.795c0.507-0.69,1.016-1.379,1.531-2.063    c0.446-0.593,0.896-1.182,1.347-1.77c0.52-0.677,1.042-1.353,1.569-2.024c0.458-0.583,0.919-1.164,1.382-1.743    c0.533-0.666,1.069-1.329,1.608-1.988c0.469-0.573,0.94-1.143,1.414-1.711c0.546-0.655,1.096-1.305,1.649-1.954    c0.479-0.562,0.96-1.122,1.445-1.679c0.561-0.645,1.126-1.285,1.693-1.923c0.488-0.548,0.976-1.096,1.469-1.64    c0.576-0.635,1.157-1.266,1.74-1.894c0.496-0.536,0.992-1.071,1.493-1.602c0.592-0.627,1.19-1.248,1.789-1.869    c0.502-0.52,1.003-1.041,1.509-1.556c0.613-0.623,1.232-1.239,1.852-1.855c0.503-0.5,1.004-1.003,1.512-1.498    c0.637-0.622,1.281-1.236,1.925-1.85c0.502-0.479,1.001-0.961,1.507-1.435c0.665-0.623,1.338-1.237,2.009-1.852    c0.496-0.454,0.988-0.912,1.488-1.361c0.705-0.635,1.419-1.259,2.132-1.885c0.476-0.418,0.948-0.841,1.428-1.255    c0.781-0.674,1.572-1.337,2.361-2.001c0.421-0.354,0.837-0.714,1.26-1.065c1.037-0.86,2.085-1.707,3.137-2.549    c0.182-0.146,0.361-0.296,0.544-0.441c1.242-0.988,2.494-1.962,3.756-2.924c0.326-0.248,0.657-0.489,0.984-0.736    c0.936-0.706,1.874-1.411,2.821-2.104c0.466-0.341,0.94-0.673,1.409-1.01c0.815-0.586,1.629-1.174,2.452-1.75    c0.529-0.37,1.064-0.731,1.596-1.097c0.772-0.531,1.543-1.064,2.322-1.586c0.563-0.378,1.133-0.747,1.7-1.119    c0.757-0.498,1.513-0.997,2.276-1.486c0.584-0.375,1.173-0.741,1.761-1.11c0.755-0.475,1.511-0.95,2.271-1.417    c0.601-0.369,1.207-0.73,1.812-1.093c0.754-0.453,1.509-0.906,2.268-1.35c0.618-0.362,1.241-0.717,1.862-1.073    c0.756-0.433,1.513-0.866,2.275-1.291c0.629-0.351,1.262-0.697,1.895-1.043c0.763-0.417,1.527-0.831,2.295-1.24    c0.639-0.34,1.282-0.675,1.924-1.009c0.769-0.4,1.54-0.797,2.314-1.189c0.649-0.328,1.3-0.653,1.952-0.975    c0.777-0.384,1.556-0.764,2.338-1.14c0.656-0.315,1.313-0.627,1.972-0.936c0.787-0.369,1.576-0.733,2.368-1.093    c0.661-0.301,1.324-0.601,1.988-0.896c0.799-0.355,1.601-0.704,2.404-1.05c0.664-0.286,1.328-0.571,1.995-0.851    c0.812-0.341,1.628-0.675,2.444-1.007c0.667-0.271,1.333-0.543,2.003-0.808c0.826-0.327,1.655-0.646,2.486-0.964    c0.666-0.255,1.331-0.512,2-0.761c0.844-0.314,1.692-0.619,2.54-0.924c0.663-0.239,1.326-0.48,1.992-0.712    c0.864-0.302,1.733-0.593,2.602-0.885c0.656-0.22,1.309-0.444,1.967-0.659c0.896-0.292,1.797-0.573,2.697-0.855    c0.638-0.2,1.273-0.404,1.913-0.599c0.941-0.286,1.888-0.559,2.835-0.833c0.605-0.176,1.208-0.357,1.816-0.528    c1.038-0.292,2.082-0.569,3.125-0.848c0.52-0.139,1.037-0.285,1.558-0.42c1.368-0.355,2.743-0.694,4.121-1.025    c0.201-0.048,0.399-0.101,0.6-0.149c1.588-0.377,3.182-0.738,4.782-1.083c0.379-0.082,0.762-0.154,1.142-0.234    c1.215-0.256,2.43-0.509,3.651-0.746c0.569-0.111,1.142-0.21,1.713-0.316c1.036-0.193,2.072-0.388,3.112-0.567    c0.644-0.111,1.291-0.211,1.937-0.317c0.973-0.16,1.945-0.321,2.922-0.469c0.682-0.103,1.368-0.196,2.052-0.293    c0.945-0.135,1.889-0.271,2.837-0.394c0.709-0.092,1.422-0.175,2.133-0.261c0.927-0.112,1.855-0.225,2.785-0.327    c0.73-0.08,1.462-0.15,2.194-0.223c0.917-0.092,1.834-0.183,2.754-0.264c0.744-0.066,1.491-0.123,2.237-0.182    c0.912-0.072,1.825-0.142,2.74-0.204c0.754-0.051,1.509-0.095,2.265-0.138c0.912-0.053,1.825-0.103,2.74-0.146    c0.761-0.035,1.524-0.065,2.287-0.093c0.914-0.034,1.829-0.064,2.745-0.087c0.767-0.02,1.536-0.035,2.305-0.047    c0.473-0.008,0.948-0.01,1.422-0.015c0.587,5.564,2.402,10.761,5.15,15.338c-0.844-0.231-1.728-0.365-2.645-0.365    c-50.941,0-98.781,16.864-138.347,48.769c-12.912,10.412-24.686,22.336-34.994,35.439c-3.415,4.341-2.664,10.627,1.677,14.043    c1.833,1.441,4.012,2.141,6.176,2.141c2.961,0,5.894-1.31,7.867-3.818c9.378-11.922,20.087-22.768,31.829-32.236    c17.461-14.08,36.699-24.927,57.169-32.373c-0.39,2.052-0.602,4.166-0.602,6.33v1.895l-6.437,6.427    c-13.273,13.287-20.583,30.947-20.583,49.728v15.629c0,17.309,14.082,31.39,31.39,31.39h11.607    c19.809,0,36.169-15.037,38.259-34.294l63.569,11.804c6.128,6.887,10.168,15.193,11.798,24.144h-83.941    c-28.62,0-51.904,23.284-51.904,51.904v17.669c0,27.826,22.638,50.464,50.463,50.464h1.919v31.832    c0,10.525,2.101,20.657,6.246,30.15c0.07,2.404,0.214,4.76,0.413,7.083c0.01,0.119,0.017,0.24,0.027,0.359    c0.07,0.787,0.157,1.564,0.242,2.343c0.053,0.49,0.101,0.984,0.16,1.471c0.073,0.595,0.158,1.184,0.24,1.774    c0.091,0.663,0.182,1.327,0.285,1.985c0.075,0.477,0.159,0.951,0.24,1.426c0.13,0.763,0.263,1.526,0.409,2.283    c0.077,0.398,0.16,0.794,0.242,1.191c0.169,0.825,0.345,1.648,0.533,2.466c0.033,0.143,0.06,0.288,0.093,0.431    c0.048,0.202,0.105,0.401,0.153,0.603c0.207,0.86,0.424,1.717,0.653,2.571c0.084,0.313,0.17,0.625,0.257,0.937    c0.244,0.876,0.5,1.75,0.768,2.62c0.091,0.295,0.182,0.589,0.275,0.883c0.279,0.879,0.571,1.756,0.875,2.631    c0.1,0.288,0.199,0.576,0.301,0.864c0.311,0.872,0.637,1.742,0.973,2.611c0.112,0.291,0.222,0.582,0.337,0.873    c0.34,0.857,0.696,1.713,1.06,2.568c0.128,0.301,0.252,0.603,0.383,0.903c0.366,0.838,0.75,1.676,1.139,2.514    c0.147,0.315,0.287,0.631,0.437,0.946c0.392,0.823,0.803,1.647,1.219,2.471c0.164,0.326,0.321,0.651,0.488,0.977    c0.436,0.846,0.893,1.693,1.354,2.54c0.162,0.298,0.314,0.595,0.479,0.893c0.631,1.139,1.283,2.28,1.96,3.425    c0.192,0.324,0.396,0.651,0.595,0.977c0.148,0.242,0.291,0.484,0.443,0.727c0.15,0.241,0.311,0.484,0.466,0.725    c0.215,0.336,0.426,0.671,0.648,1.007c0.142,0.215,0.291,0.432,0.436,0.647c0.247,0.368,0.492,0.735,0.747,1.104    c0.135,0.196,0.278,0.394,0.416,0.59c0.276,0.393,0.552,0.786,0.837,1.179c0.128,0.177,0.261,0.355,0.391,0.532    c0.308,0.421,0.618,0.841,0.936,1.262c0.117,0.155,0.239,0.311,0.357,0.467c0.343,0.45,0.69,0.9,1.044,1.351    c0.104,0.132,0.21,0.264,0.315,0.397c0.386,0.487,0.776,0.974,1.174,1.461c0.08,0.098,0.162,0.197,0.242,0.295    c0.441,0.538,0.889,1.075,1.345,1.613c0.044,0.052,0.089,0.104,0.133,0.157c15.217,17.92,37.849,35.689,58.313,50.036    C301.632,487.823,278.839,491.166,255.58,491.166z M478.754,406.499c-19.021,32.153-80.829,70.53-101.14,83.141    c-0.843,0.523-1.626,1.01-2.345,1.458c-0.737-0.461-1.541-0.963-2.407-1.504c-10.396-6.491-31.673-19.775-52.489-35.473    c-0.529-0.399-1.056-0.798-1.575-1.193c-0.4-0.304-0.799-0.608-1.198-0.914c-25.149-19.307-37.757-33.396-44.036-42.943    c-0.065-0.1-0.129-0.2-0.194-0.3c-0.21-0.324-0.417-0.644-0.613-0.957c-0.235-0.376-0.464-0.751-0.687-1.125    c-0.037-0.062-0.079-0.128-0.115-0.189c-0.577-0.974-1.132-1.944-1.668-2.91c-0.088-0.158-0.167-0.314-0.253-0.471    c-0.446-0.814-0.885-1.626-1.303-2.436c-0.065-0.126-0.124-0.251-0.188-0.377c-0.431-0.844-0.852-1.686-1.253-2.527    c-0.039-0.082-0.074-0.164-0.113-0.246c-0.418-0.884-0.824-1.768-1.209-2.652c-0.025-0.057-0.047-0.114-0.072-0.171    c-0.393-0.906-0.771-1.812-1.129-2.719c-0.023-0.057-0.043-0.115-0.066-0.173c-0.355-0.903-0.695-1.807-1.016-2.714    c-0.027-0.077-0.052-0.155-0.079-0.232c-0.31-0.881-0.606-1.765-0.885-2.651c-0.038-0.121-0.072-0.243-0.11-0.364    c-0.259-0.837-0.507-1.677-0.74-2.52c-0.051-0.185-0.097-0.371-0.147-0.557c-0.207-0.773-0.406-1.549-0.591-2.329    c-0.064-0.272-0.123-0.545-0.185-0.818c-0.156-0.688-0.307-1.378-0.446-2.072c-0.075-0.377-0.144-0.758-0.215-1.137    c-0.109-0.587-0.216-1.175-0.314-1.767c-0.081-0.496-0.156-0.996-0.229-1.496c-0.07-0.473-0.139-0.947-0.201-1.423    c-0.082-0.627-0.156-1.259-0.226-1.894c-0.039-0.35-0.077-0.701-0.112-1.053c-0.075-0.761-0.142-1.529-0.2-2.302    c-0.017-0.227-0.035-0.455-0.051-0.683c-0.061-0.892-0.112-1.791-0.151-2.7c-0.005-0.114-0.01-0.228-0.015-0.343    c-0.04-1.006-0.069-2.021-0.083-3.051c-0.008-0.578-0.024-1.15-0.024-1.735c0-43.454,30.654-62.904,61.033-62.904    c26.488,0,39.088,13.175,44.994,24.228c0.52,0.973,1.163,1.855,1.903,2.629c2.221,2.324,5.324,3.686,8.642,3.689    c0.003,0,0.006,0,0.009,0c4.42-0.001,8.46-2.415,10.544-6.302c3.936-7.34,12.777-18.71,30.865-22.753    c0.073-0.016,0.146-0.033,0.22-0.049c0.627-0.138,1.265-0.266,1.914-0.385c0.269-0.049,0.543-0.092,0.815-0.137    c0.802-0.136,1.621-0.257,2.456-0.364c0.581-0.074,1.162-0.146,1.753-0.205c0.375-0.038,0.757-0.068,1.138-0.1    c0.647-0.053,1.299-0.098,1.957-0.133c0.324-0.018,0.645-0.037,0.974-0.051c0.994-0.04,1.996-0.067,3.014-0.067    c0.867,0,1.735,0.02,2.602,0.052c0.215,0.008,0.428,0.019,0.642,0.029c0.717,0.033,1.434,0.075,2.15,0.13    c0.157,0.012,0.314,0.022,0.47,0.035c1.789,0.149,3.572,0.366,5.343,0.653c0.118,0.019,0.235,0.039,0.352,0.059    c0.784,0.131,1.565,0.277,2.343,0.436c0.123,0.025,0.247,0.048,0.37,0.074c0.825,0.173,1.645,0.363,2.462,0.568    c0.293,0.074,0.582,0.155,0.873,0.233c0.449,0.119,0.896,0.243,1.342,0.371c0.481,0.14,0.962,0.282,1.437,0.432    c0.097,0.03,0.192,0.063,0.289,0.094c1.208,0.389,2.398,0.809,3.567,1.266c12.337,4.821,22.474,13.399,28.836,24.866    c0.001,0.003,0.003,0.004,0.005,0.007c0.16,0.288,0.338,0.563,0.523,0.83c4.698,8.845,7.481,19.716,7.481,32.769    C492,376.292,488.039,390.805,478.754,406.499z" fill="#3a506b" data-original="#000000" style="" class=""/>
	</g>
</g>















</g>
</svg>
