<svg width="50" height="50" viewBox="0 0 50 50" fill="none" xmlns="http://www.w3.org/2000/svg">
<g clip-path="url(#clip0)">
<path d="M41.4816 23.0605C41.077 23.0605 40.7492 23.3884 40.7492 23.793V37.4784C40.7492 43.5751 35.7891 48.5352 29.6923 48.5352H26.2998C20.203 48.5352 15.2429 43.5751 15.2429 37.4785L15.2431 34.1187C15.2431 33.7142 14.9153 33.3863 14.5107 33.3863C14.1062 33.3863 13.7783 33.7141 13.7783 34.1186L13.7781 37.4784C13.7781 44.3828 19.3953 50 26.2998 50H29.6923C36.5967 50 42.214 44.3828 42.214 37.4783V23.7929C42.214 23.3884 41.8861 23.0605 41.4816 23.0605Z" fill="#00214C"/>
<path d="M38.9571 23.1354C38.5526 23.1354 38.2247 23.4632 38.2247 23.8678V37.478C38.2247 42.1828 34.3971 46.0103 29.6923 46.0103H26.2998C21.5949 46.0103 17.7673 42.1819 17.7673 37.4758L17.7636 28.2242C20.7947 27.6188 23.4049 25.6273 24.7869 22.8478C25.0986 22.2209 25.0638 21.4901 24.6938 20.8927C24.5844 20.7162 24.4511 20.5612 24.3003 20.4292C24.3301 20.3054 24.3585 20.1809 24.3829 20.0548L27.6113 7.39314C27.6149 7.37888 27.618 7.36463 27.6209 7.35017C28.0128 5.30751 26.7367 3.32187 24.7157 2.82978L23.7093 2.58476C23.5754 2.03535 23.216 1.49942 22.654 1.02784C22.003 0.481451 21.1759 0.104304 20.4412 0.0189525C18.8701 -0.163762 17.4427 0.966117 17.2599 2.53779C17.0773 4.10937 18.2072 5.53651 19.7787 5.71903C19.9005 5.73319 20.0261 5.74012 20.155 5.74012C20.8047 5.74012 21.5305 5.56375 22.1639 5.24462C22.7874 4.93046 23.2452 4.51727 23.5092 4.04364L24.369 4.25302C25.6237 4.55849 26.4182 5.78612 26.186 7.05379L22.9582 19.7139C22.9546 19.7282 22.9513 19.7424 22.9486 19.7569C22.9372 19.8162 22.9244 19.8749 22.9117 19.9336C22.171 19.955 21.4901 20.3826 21.166 21.0374C20.1637 23.0616 18.0587 24.3693 15.8033 24.3693C13.5309 24.3693 11.483 23.1066 10.459 21.0738C10.1199 20.4004 9.43538 19.9596 8.69525 19.934C8.68245 19.8751 8.66966 19.8161 8.65824 19.7568C8.6556 19.7423 8.65228 19.7281 8.64867 19.7138L5.42055 7.05398C5.18823 5.78631 5.98286 4.55868 7.23744 4.25321L8.09505 4.04442C8.70238 5.14227 10.2631 5.73973 11.4596 5.73973C11.5868 5.73973 11.7104 5.73299 11.8279 5.71922C13.3994 5.53661 14.5293 4.10946 14.3468 2.53789C14.1641 0.96641 12.7381 -0.163273 11.1654 0.0191478C10.4306 0.104597 9.60345 0.481646 8.95237 1.02803C8.39046 1.49961 8.03109 2.03555 7.89711 2.58496L6.89086 2.82988C4.86997 3.32187 3.5937 5.30751 3.98569 7.35027C3.98843 7.36472 3.99165 7.37898 3.99526 7.39324L7.22367 20.055C7.24808 20.1809 7.27631 20.3054 7.30619 20.4291C7.15033 20.5652 7.01371 20.7263 6.90258 20.9094C6.54223 21.5033 6.51127 22.228 6.81977 22.8477C8.19203 25.6076 10.7747 27.5906 13.7785 28.2112L13.7783 30.7248C13.7783 31.1293 14.1062 31.4572 14.5107 31.4572C14.5108 31.4572 14.5108 31.4572 14.5108 31.4572C14.9152 31.4572 15.2432 31.1294 15.2432 30.7249L15.2434 27.8435C15.2434 27.3423 14.8845 26.9184 14.3901 26.8356C11.691 26.3837 9.3514 24.6492 8.13138 22.1954C8.04671 22.0253 8.05541 21.8335 8.15521 21.6692C8.25638 21.5022 8.43216 21.4003 8.61878 21.3967L8.6347 21.3965C8.84193 21.3965 9.04925 21.5317 9.15071 21.733C10.4253 24.2628 12.9745 25.8344 15.8033 25.8344C18.611 25.8344 21.2312 24.2066 22.4787 21.6876C22.5649 21.5135 22.7621 21.3966 22.9694 21.3966C23.1686 21.3966 23.3434 21.4942 23.4487 21.6644C23.5512 21.83 23.561 22.0236 23.4753 22.1957C22.2588 24.6423 19.9287 26.3739 17.2392 26.8317L17.2166 26.834C16.6933 26.8875 16.2984 27.3246 16.2984 27.8511L16.3023 37.4763C16.3023 42.9899 20.7872 47.4754 26.2997 47.4754H29.6922C35.2048 47.4754 39.6895 42.9907 39.6895 37.4782V23.8678C39.6896 23.4634 39.3617 23.1354 38.9571 23.1354ZM22.301 3.12382C22.2692 3.39775 21.9716 3.70146 21.5049 3.93671C21.0069 4.18759 20.3959 4.3163 19.9479 4.26425C19.1787 4.17489 18.6257 3.47626 18.715 2.70713C18.798 1.99268 19.4064 1.46475 20.109 1.46475C20.1629 1.46475 20.2174 1.46787 20.2721 1.47422C20.7198 1.52627 21.2851 1.7916 21.7124 2.15019C22.1128 2.48603 22.3328 2.85009 22.301 3.12382ZM11.3344 1.47412C12.1027 1.38565 12.8023 1.93779 12.8915 2.70693C12.9809 3.47626 12.4278 4.1748 11.6586 4.26415C10.7167 4.37323 9.37522 3.72343 9.3055 3.12373C9.23577 2.52412 10.3924 1.58369 11.3344 1.47412Z" fill="#00214C"/>
<path d="M40.0669 9.45959C36.7484 9.45959 34.0488 12.1593 34.0488 15.4776C34.0488 18.796 36.7485 21.4957 40.0669 21.4957C43.3852 21.4957 46.0849 18.796 46.0849 15.4776C46.0849 12.1593 43.3852 9.45959 40.0669 9.45959ZM40.0669 20.0307C37.5562 20.0307 35.5137 17.9882 35.5137 15.4775C35.5137 12.9669 37.5562 10.9243 40.0669 10.9243C42.5775 10.9243 44.6201 12.9668 44.6201 15.4775C44.6201 17.9883 42.5774 20.0307 40.0669 20.0307Z" fill="#00214C"/>
<path d="M40.0671 12.686C38.5278 12.686 37.2754 13.9383 37.2754 15.4776C37.2754 17.0168 38.5277 18.2692 40.0671 18.2692C41.6064 18.2692 42.8587 17.0168 42.8587 15.4776C42.8587 13.9383 41.6063 12.686 40.0671 12.686ZM40.0671 16.8044C39.3354 16.8044 38.7403 16.2092 38.7403 15.4777C38.7403 14.7461 39.3355 14.151 40.0671 14.151C40.7986 14.151 41.3938 14.7462 41.3938 15.4777C41.3937 16.2092 40.7986 16.8044 40.0671 16.8044Z" fill="#00214C"/>
</g>
<defs>
<clipPath id="clip0">
<rect width="50" height="50" fill="white"/>
</clipPath>
</defs>
</svg>
