<svg width="50" height="50" viewBox="0 0 50 50" fill="none" xmlns="http://www.w3.org/2000/svg">
<path d="M32.5309 4.10468C32.5309 3.70018 32.2029 3.37225 31.7984 3.37225H2.68555C1.20469 3.37225 0 4.57694 0 6.0578V49.2787C0 50.2257 1.46484 50.2257 1.46484 49.2787V6.0578C1.46484 5.38466 2.0124 4.8371 2.68555 4.8371H31.7984C32.2029 4.8371 32.5309 4.50917 32.5309 4.10468V4.10468Z" fill="#00214C"/>
<path d="M47.3146 3.37224H45.6393V3.15662C45.6393 1.42214 44.2282 0.0111084 42.4938 0.0111084H38.0112C36.2768 0.0111084 34.8657 1.42214 34.8657 3.15662V22.9569C34.8657 25.3933 36.8479 27.3755 39.2844 27.3755C41.7208 27.3755 43.7029 25.3933 43.7029 22.9569V9.35925C43.7029 6.11042 38.6533 6.08806 38.6533 9.35925V17.8496C38.6533 18.7966 40.1182 18.7966 40.1182 17.8496V9.35925C40.1182 8.03318 42.2381 7.97253 42.2381 9.35925V22.9569C42.2381 24.5856 40.9131 25.9106 39.2843 25.9106C37.6556 25.9106 36.3306 24.5856 36.3306 22.9569V4.83709H47.3146C47.9877 4.83709 48.5353 5.38464 48.5353 6.05779V49.2787C48.5353 50.2257 50.0001 50.2257 50.0001 49.2787V6.05779C50.0001 4.57693 48.7954 3.37224 47.3146 3.37224V3.37224ZM36.3306 3.15662C36.3306 2.22986 37.0846 1.47595 38.0112 1.47595H42.4938C43.4205 1.47595 44.1744 2.22986 44.1744 3.15662V3.37224H36.3306V3.15662Z" fill="#00214C"/>
<path d="M27.8432 20.2883H8.13455C7.18757 20.2883 7.18757 21.7532 8.13455 21.7532H27.8432C28.7902 21.7532 28.7902 20.2883 27.8432 20.2883Z" fill="#00214C"/>
<path d="M27.8432 27.6391H8.13455C7.18757 27.6391 7.18757 29.1039 8.13455 29.1039H27.8432C28.7902 29.1039 28.7902 27.6391 27.8432 27.6391Z" fill="#00214C"/>
<path d="M41.8656 34.9899H8.13455C7.18757 34.9899 7.18757 36.4548 8.13455 36.4548H41.8655C42.8126 36.4548 42.8126 34.9899 41.8656 34.9899V34.9899Z" fill="#00214C"/>
<path d="M41.8654 42.3407C41.8653 42.3407 41.8651 42.3407 41.865 42.3407C33.6858 42.3451 25.3959 42.3451 17.2259 42.3407C16.3051 42.3407 16.3043 43.805 17.2251 43.8055C21.3104 43.8077 25.4256 43.8089 29.542 43.8089C33.6584 43.8089 37.7759 43.8078 41.8657 43.8055C42.8125 43.805 42.812 42.3407 41.8654 42.3407V42.3407Z" fill="#00214C"/>
<path d="M12.5314 42.3407C12.5307 42.3407 12.5299 42.3407 12.5292 42.3407C11.0419 42.3451 9.56408 42.3451 8.13673 42.3407C7.21574 42.3407 7.21154 43.8027 8.13224 43.8055C8.84748 43.8077 11.7885 43.8077 12.5334 43.8055C13.4793 43.8027 13.4769 42.3407 12.5314 42.3407Z" fill="#00214C"/>
</svg>
