<?xml version="1.0" encoding="UTF-8"?>
<svg width="58" height="75" viewBox="0 0 58 75" fill="none" xmlns="http://www.w3.org/2000/svg">
<path d="M53.665 5.09187H52.1263V3.58233C52.1265 1.6072 50.4882 0 48.4747 0H9.17592C8.88475 0 8.60507 0.111275 8.39613 0.310253L0.339678 7.98488C0.122529 8.19162 0.000149161 8.47596 0.000149161 8.77274V50.814C0.000149161 51.4206 0.501308 51.9121 1.11947 51.9121C1.73764 51.9121 2.2388 51.4206 2.2388 50.814V9.87378L8.17256 9.8893H8.17838C8.7367 9.8893 9.26189 9.67671 9.65798 9.29032C10.0554 8.90261 10.2751 8.38606 10.2766 7.83627L10.2921 2.19622H37.1458V13.5895C37.1458 15.4213 38.6649 16.9115 40.5321 16.9115C42.3993 16.9115 43.9183 15.4211 43.9183 13.5895V7.931C43.9183 7.3244 43.4171 6.83289 42.7989 6.83289C42.1808 6.83289 41.6796 7.3244 41.6796 7.931V13.5895C41.6796 14.2103 41.1647 14.7153 40.5321 14.7153C39.8993 14.7153 39.3844 14.2103 39.3844 13.5895V2.19622H48.4748C49.254 2.19622 49.8878 2.81805 49.8878 3.58248V19.8467C49.8878 20.4533 50.389 20.9448 51.0072 20.9448C51.6253 20.9448 52.1265 20.4533 52.1265 19.8467V7.28809H53.6652C54.4444 7.28809 55.0784 7.91006 55.0784 8.6745V71.4174C55.0784 72.1818 54.4444 72.8036 53.6652 72.8036H8.84222C8.06302 72.8036 7.42918 72.1818 7.42918 71.4174V69.9078H48.4748C50.4884 69.9078 52.1265 68.3006 52.1265 66.3252V24.9241C52.1265 24.3175 51.6253 23.8259 51.0072 23.8259C50.389 23.8259 49.8878 24.3175 49.8878 24.9241V66.3255C49.8878 67.0899 49.2539 67.7119 48.4748 67.7119H3.65183C2.87263 67.7119 2.23865 67.0899 2.23865 66.3255V55.9261C2.23865 55.3195 1.73749 54.828 1.11932 54.828C0.501159 54.828 0 55.3195 0 55.9261V66.3254C0 68.3008 1.63824 69.908 3.65183 69.908H5.19053V71.4175C5.19053 73.3928 6.82878 75 8.84222 75H53.665C55.6786 75 57.3169 73.3928 57.3169 71.4175V8.6745C57.3169 6.69907 55.6786 5.09187 53.665 5.09187V5.09187ZM8.03809 7.69264L3.87137 7.6818L6.64088 5.04341L8.04914 3.70195L8.03809 7.69264Z" fill="white"/>
<path d="M27.5654 15.4076H24.5611C23.284 15.4076 22.245 16.4269 22.245 17.6798V20.974C22.245 21.0159 22.2102 21.05 22.1675 21.05H18.8097C17.5326 21.05 16.4936 22.0693 16.4936 23.3222V26.2695C16.4936 27.5225 17.5326 28.5419 18.8097 28.5419H22.1675C22.2102 28.5419 22.245 28.5759 22.245 28.6179V31.9121C22.245 33.1649 23.2839 34.1843 24.5611 34.1843H27.5654C28.8425 34.1843 29.8815 33.1649 29.8815 31.9121V28.6179C29.8815 28.576 29.9163 28.5419 29.9589 28.5419H33.3168C34.5938 28.5419 35.6329 27.5225 35.6329 26.2695V23.3222C35.6329 22.0693 34.5938 21.05 33.3168 21.05H29.9589C29.9163 21.05 29.8815 21.016 29.8815 20.974V17.6798C29.8815 16.4269 28.8425 15.4076 27.5654 15.4076V15.4076ZM29.9589 23.2462H33.3168C33.3594 23.2462 33.3942 23.2802 33.3942 23.3222V26.2695C33.3942 26.3114 33.3594 26.3457 33.3168 26.3457H29.9589C28.6819 26.3457 27.6428 27.365 27.6428 28.6179V31.9121C27.6428 31.9539 27.6081 31.9881 27.5654 31.9881H24.5611C24.5184 31.9881 24.4837 31.9541 24.4837 31.9121V28.6179C24.4837 27.365 23.4446 26.3457 22.1675 26.3457H18.8097C18.767 26.3457 18.7323 26.3115 18.7323 26.2695V23.3222C18.7323 23.2803 18.767 23.2462 18.8097 23.2462H22.1675C23.4446 23.2462 24.4837 22.2269 24.4837 20.974V17.6798C24.4837 17.6379 24.5183 17.6038 24.5611 17.6038H27.5654C27.6081 17.6038 27.6428 17.6378 27.6428 17.6798V20.974C27.6428 22.2269 28.6819 23.2462 29.9589 23.2462Z" fill="white"/>
<path d="M21.9886 39.0436H9.03101C8.41284 39.0436 7.91169 39.5351 7.91169 40.1417C7.91169 40.7483 8.41284 41.2398 9.03101 41.2398H21.9886C22.6068 41.2398 23.1079 40.7483 23.1079 40.1417C23.1079 39.5351 22.6068 39.0436 21.9886 39.0436Z" fill="white"/>
<path d="M28.6584 41.2398H43.0955C43.7136 41.2398 44.2148 40.7483 44.2148 40.1417C44.2148 39.5351 43.7136 39.0436 43.0955 39.0436H28.6584C28.0403 39.0436 27.5391 39.5351 27.5391 40.1417C27.5391 40.7483 28.0403 41.2398 28.6584 41.2398Z" fill="white"/>
<path d="M21.9886 44.9717H9.03101C8.41285 44.9717 7.91169 45.4632 7.91169 46.0698C7.91169 46.6764 8.41285 47.1679 9.03101 47.1679H21.9886C22.6068 47.1679 23.1079 46.6764 23.1079 46.0698C23.1079 45.4632 22.6068 44.9717 21.9886 44.9717Z" fill="white"/>
<path d="M43.0955 44.9717H28.6584C28.0403 44.9717 27.5391 45.4632 27.5391 46.0698C27.5391 46.6764 28.0403 47.1679 28.6584 47.1679H43.0955C43.7136 47.1679 44.2148 46.6764 44.2148 46.0698C44.2148 45.4632 43.7138 44.9717 43.0955 44.9717Z" fill="white"/>
<path d="M21.9886 50.9H9.03101C8.41285 50.9 7.91169 51.3915 7.91169 51.9981C7.91169 52.6047 8.41285 53.0962 9.03101 53.0962H21.9886C22.6068 53.0962 23.1079 52.6047 23.1079 51.9981C23.1079 51.3915 22.6068 50.9 21.9886 50.9Z" fill="white"/>
<path d="M43.0955 50.9H28.6584C28.0403 50.9 27.5391 51.3915 27.5391 51.9981C27.5391 52.6047 28.0403 53.0962 28.6584 53.0962H43.0955C43.7136 53.0962 44.2148 52.6047 44.2148 51.9981C44.2148 51.3915 43.7138 50.9 43.0955 50.9Z" fill="white"/>
<path d="M21.9886 56.8282H9.03101C8.41285 56.8282 7.91169 57.3198 7.91169 57.9264C7.91169 58.533 8.41285 59.0245 9.03101 59.0245H21.9886C22.6068 59.0245 23.1079 58.533 23.1079 57.9264C23.1079 57.3198 22.6068 56.8282 21.9886 56.8282Z" fill="white"/>
<path d="M43.0955 56.8282H28.6584C28.0403 56.8282 27.5391 57.3198 27.5391 57.9264C27.5391 58.533 28.0403 59.0245 28.6584 59.0245H43.0955C43.7136 59.0245 44.2148 58.533 44.2148 57.9264C44.2148 57.3198 43.7138 56.8282 43.0955 56.8282Z" fill="white"/>
</svg>
