<svg width="512" height="512" viewBox="0 0 512 512" fill="none" xmlns="http://www.w3.org/2000/svg">
<path d="M485.997 258.59C481.854 258.59 478.497 261.948 478.497 266.09V446.514C478.497 455.365 471.296 462.566 462.444 462.566H49.5559C40.7049 462.566 33.5039 455.365 33.5039 446.514V266.09C33.5039 261.948 30.1459 258.59 26.0039 258.59C21.8619 258.59 18.5039 261.948 18.5039 266.09V446.514C18.5039 463.636 32.4339 477.566 49.5559 477.566H462.445C479.567 477.566 493.498 463.636 493.498 446.514V266.09C493.497 261.947 490.14 258.59 485.997 258.59Z" fill="#00214C"/>
<path d="M488.535 116.336H353.167V82.691C353.167 56.082 331.52 34.434 304.91 34.434H207.09C180.481 34.434 158.833 56.082 158.833 82.691V116.335H23.465C10.526 116.336 0 126.863 0 139.8V185.269C0 222.692 29.09 253.428 65.842 256.105V256.956C65.842 265.909 73.126 273.192 82.078 273.192H82.166V314.071C82.166 326.661 92.409 336.904 104.999 336.904C117.589 336.904 127.832 326.661 127.832 314.071V273.192H128.92C137.873 273.192 145.156 265.908 145.156 256.956V256.316H363.84V256.956C363.84 265.909 371.123 273.192 380.076 273.192H380.165V314.071C380.165 326.661 390.408 336.904 402.998 336.904C415.588 336.904 425.831 326.661 425.831 314.071V273.192H426.92C435.873 273.192 443.156 265.908 443.156 256.956V256.26C481.315 255.089 512 223.706 512 185.269V139.8C512 126.863 501.474 116.336 488.535 116.336ZM395.167 131.571H410.833V222.114H395.167V131.571ZM173.832 82.691H173.833C173.833 64.353 188.752 49.434 207.09 49.434H304.91C323.248 49.434 338.167 64.353 338.167 82.691V116.335H326.022V82.691C326.022 71.049 316.551 61.578 304.91 61.578H207.09C195.448 61.578 185.977 71.049 185.977 82.691V116.335H173.832V82.691V82.691ZM311.022 82.691V116.335H200.978V82.691C200.978 79.32 203.72 76.578 207.091 76.578H304.911C308.28 76.579 311.022 79.321 311.022 82.691ZM97.167 131.571H112.834V222.114H97.167V131.571ZM65.842 238.352V241.066C37.37 238.43 15 214.418 15 185.269V139.8C15 135.133 18.797 131.335 23.465 131.335H82.167V222.114H82.079C73.125 222.115 65.842 229.399 65.842 238.352ZM112.834 314.072C112.833 318.391 109.319 321.905 105 321.905C100.681 321.905 97.167 318.391 97.167 314.072V273.193H112.834V314.072ZM130.158 256.957C130.158 257.639 129.603 258.193 128.922 258.193H82.078C81.396 258.193 80.842 257.638 80.842 256.957V238.352C80.842 237.67 81.397 237.116 82.078 237.116H128.922C129.604 237.116 130.158 237.671 130.158 238.352V256.957ZM363.842 238.35V241.315H145.158V238.35C145.158 229.397 137.874 222.114 128.922 222.114H127.834V131.335H380.167V222.114H380.078C371.125 222.115 363.842 229.399 363.842 238.35ZM410.833 314.072C410.833 318.391 407.319 321.905 403 321.905C398.681 321.905 395.167 318.391 395.167 314.072V273.193H410.833V314.072V314.072ZM428.158 256.957C428.158 257.639 427.603 258.193 426.922 258.193H380.078C379.396 258.193 378.842 257.638 378.842 256.957V238.352C378.842 237.67 379.397 237.116 380.078 237.116H426.922C427.604 237.116 428.158 237.671 428.158 238.352V256.957ZM497 185.269C497 215.434 473.043 240.096 443.158 241.26V238.351C443.158 229.398 435.875 222.115 426.922 222.115H425.833V131.336H488.535C493.203 131.336 497 135.133 497 139.801V185.269Z" fill="#00214C"/>
<path d="M314.507 332.443H278.815V296.751C278.815 291.242 274.333 286.759 268.823 286.759H243.176C237.667 286.759 233.184 291.241 233.184 296.751V332.443H197.492C191.982 332.443 187.5 336.925 187.5 342.435V368.082C187.5 373.592 191.982 378.074 197.492 378.074H233.184V413.766C233.184 419.275 237.666 423.758 243.176 423.758H268.823C274.333 423.758 278.815 419.276 278.815 413.766V378.074H314.507C320.017 378.074 324.499 373.592 324.499 368.082V342.435C324.499 336.925 320.017 332.443 314.507 332.443ZM309.5 363.074H271.315C267.172 363.074 263.815 366.432 263.815 370.574V408.758H248.184V370.574C248.184 366.432 244.826 363.074 240.684 363.074H202.5V347.443H240.685C244.827 347.443 248.185 344.085 248.185 339.943V301.759H263.816V339.943C263.816 344.085 267.173 347.443 271.316 347.443H309.5V363.074Z" fill="#00214C"/>
</svg>
