<svg width="512" height="512" viewBox="0 0 512 512" fill="none" xmlns="http://www.w3.org/2000/svg">
<path d="M396.222 230.772H176.562C172.416 230.772 169.057 234.132 169.057 238.277C169.057 242.422 172.417 245.782 176.562 245.782H396.222C400.367 245.782 403.727 242.422 403.727 238.277C403.727 234.132 400.367 230.772 396.222 230.772Z" fill="#00214C"/>
<path d="M141.372 230.772H115.776C111.631 230.772 108.271 234.132 108.271 238.277C108.271 242.422 111.631 245.782 115.776 245.782H141.372C145.517 245.782 148.877 242.422 148.877 238.277C148.877 234.132 145.517 230.772 141.372 230.772Z" fill="#00214C"/>
<path d="M396.222 303.75H115.776C111.631 303.75 108.271 307.11 108.271 311.255C108.271 315.4 111.631 318.76 115.776 318.76H396.222C400.367 318.76 403.727 315.4 403.727 311.255C403.727 307.11 400.367 303.75 396.222 303.75Z" fill="#00214C"/>
<path d="M396.222 386.112H355.428C351.283 386.112 347.923 389.472 347.923 393.617C347.923 397.762 351.283 401.122 355.428 401.122H396.222C400.367 401.122 403.727 397.762 403.727 393.617C403.727 389.472 400.367 386.112 396.222 386.112Z" fill="#00214C"/>
<path d="M320.155 386.112H115.776C111.631 386.112 108.271 389.472 108.271 393.617C108.271 397.762 111.631 401.122 115.776 401.122H320.155C324.3 401.122 327.66 397.762 327.66 393.617C327.66 389.472 324.3 386.112 320.155 386.112Z" fill="#00214C"/>
<path d="M451.53 113.163C451.512 112.982 451.481 112.804 451.45 112.627C451.439 112.563 451.433 112.498 451.421 112.435C451.378 112.222 451.323 112.013 451.263 111.807C451.255 111.78 451.25 111.753 451.242 111.726C451.178 111.516 451.103 111.311 451.021 111.11C451.011 111.086 451.004 111.06 450.994 111.036C450.915 110.846 450.826 110.663 450.732 110.482C450.713 110.445 450.698 110.407 450.679 110.371C450.592 110.208 450.494 110.051 450.395 109.896C450.362 109.844 450.334 109.791 450.3 109.74C450.203 109.595 450.096 109.457 449.989 109.319C449.946 109.263 449.907 109.204 449.862 109.15C449.723 108.981 449.575 108.82 449.422 108.664C449.404 108.646 449.389 108.625 449.371 108.607L342.963 2.198C342.948 2.183 342.932 2.171 342.917 2.156C342.757 1.999 342.592 1.848 342.419 1.705C342.372 1.666 342.322 1.634 342.274 1.596C342.128 1.482 341.982 1.369 341.828 1.266C341.787 1.238 341.743 1.216 341.701 1.189C341.536 1.083 341.37 0.98 341.197 0.887C341.166 0.871 341.134 0.858 341.103 0.842C340.917 0.745 340.728 0.653 340.532 0.572C340.511 0.563 340.489 0.557 340.468 0.549C340.263 0.466 340.055 0.39 339.842 0.325C339.817 0.317 339.79 0.313 339.765 0.305C339.557 0.244 339.347 0.189 339.132 0.146C339.072 0.134 339.01 0.129 338.95 0.118C338.769 0.086 338.589 0.055 338.404 0.037C338.157 0.013 337.907 0 337.656 0H82.4339C70.3009 0 60.4309 9.871 60.4309 22.003V489.997C60.4309 502.129 70.3019 512 82.4349 512H429.565C441.698 512 451.569 502.129 451.569 489.997V113.912C451.567 113.661 451.554 113.411 451.53 113.163ZM345.16 25.623L425.944 106.407H350.742C347.664 106.407 345.16 103.903 345.16 100.825V25.623ZM436.558 489.997C436.558 493.853 433.42 496.99 429.564 496.99H82.4339C78.5779 496.99 75.4399 493.853 75.4399 489.997V22.003C75.4399 18.147 78.5779 15.01 82.4339 15.01H330.151V100.825C330.151 112.179 339.388 121.416 350.742 121.416H436.558V489.997Z" fill="#00214C"/>
<path d="M242.296 95.927H204.074V57.705C204.074 52.112 199.524 47.562 193.932 47.562H166.78C161.187 47.562 156.637 52.112 156.637 57.705V95.927H118.415C112.822 95.927 108.272 100.477 108.272 106.07V133.222C108.271 138.815 112.821 143.365 118.415 143.365H156.637V181.587C156.637 187.18 161.187 191.73 166.78 191.73H193.932C199.524 191.73 204.074 187.18 204.074 181.587V143.365H242.296C247.889 143.365 252.439 138.815 252.439 133.222V106.07C252.439 100.477 247.889 95.927 242.296 95.927ZM237.432 128.356H196.571C192.426 128.356 189.066 131.716 189.066 135.861V176.721H171.647V135.861C171.647 131.716 168.287 128.356 164.142 128.356H123.281V110.937H164.142C168.287 110.937 171.647 107.577 171.647 103.432V62.571H189.066V103.432C189.066 107.577 192.426 110.937 196.571 110.937H237.432V128.356Z" fill="#00214C"/>
</svg>
